<svg xmlns="http://www.w3.org/2000/svg" width="51.733" height="50.198" viewBox="0 0 51.733 50.198">
  <g id="Grupo_110670" data-name="Grupo 110670" transform="translate(-849.134 -4026.5)">
    <g id="Grupo_109155" data-name="Grupo 109155" transform="translate(849.134 4026.5)">
      <path id="Trazado_166339" data-name="Trazado 166339" d="M1115.322-23.505a.855.855,0,0,1,1.132.2c.561.581,1.147,1.138,1.71,1.717a1.32,1.32,0,0,1,0,2.042q-1.221,1.242-2.463,2.463a1.321,1.321,0,0,1-2.044,0q-3.419-3.4-6.822-6.815a1.234,1.234,0,0,1-.408-1.184.606.606,0,0,0-.219-.648c-.515-.507-1.014-1.029-1.54-1.566-.163.19-.1.38-.1.548-.005,2.423,0,4.846,0,7.269,0,1.159-.471,1.639-1.607,1.639q-10.5,0-21,0c-.731,0-.864-.094-1.071-.731.186-.659.367-.787,1.137-.787q10.2,0,20.4.01c.483,0,.661-.078.649-.619-.04-1.883-.015-3.768-.015-5.653,0-1.063.007-1.044-.967-.676a.574.574,0,0,0-.43.658c.023,1.043.008,2.086.008,3.129,0,1.343-.439,1.784-1.779,1.784h-23.374c-.2,0-.4.016-.6.025-1.193-.008-2.387-.02-3.582-.024-1.064,0-1.054,0-.989,1.062.015.251.106.308.333.306,1.413-.014,2.825-.018,4.238-.026l1.965.024c.664.008.857.154,1.036.786a.851.851,0,0,1-.97.738c-2.222-.014-4.444,0-6.665-.008a1.3,1.3,0,0,1-1.447-1.43c-.007-.37-.016-.741,0-1.111.013-.261-.069-.363-.339-.349-.352.019-.707.008-1.06,0a1.358,1.358,0,0,1-1.515-1.534q0-10.955,0-21.911V-65.121c0-1.216.455-1.674,1.673-1.674h31.408c1.207,0,1.656.468,1.672,1.684.005.4-.187.924.09,1.152.234.191.741.053,1.126.054,1.2,0,1.682.477,1.682,1.681q0,5.68,0,11.36c0,.258-.027.479.328.56a.945.945,0,0,1,.611.688c.14.377.273.759.439,1.124a3.506,3.506,0,0,0,2.151,1.854c.237.085.473.173.707.264a.979.979,0,0,1,.679.964.992.992,0,0,1-.692,1.006c-.156.06-.31.123-.506.2a13.977,13.977,0,0,1,1.178,2.922,12.536,12.536,0,0,1-1.513,10.066c-.185.3-.187.457.078.7.547.5,1.061,1.033,1.576,1.565a.432.432,0,0,0,.483.148,1.226,1.226,0,0,1,1.24.377c.816.8,1.619,1.618,2.431,2.424a.827.827,0,0,1,.106,1.139c-.567.341-.792.314-1.271-.153l-1.182-1.151c-.245-.254-.5-.5-.729-.767s-.38-.286-.633-.016q-.826.886-1.714,1.714c-.277.259-.305.407-.012.694,1.837,1.806,3.65,3.634,5.472,5.456.947.948.948.948,1.845-.11.37-.358.73-.727,1.115-1.07.234-.208.271-.351.016-.584-.471-.43-.911-.9-1.36-1.35C1114.92-22.7,1114.9-22.971,1115.322-23.505Zm-17.6-6.308a7.826,7.826,0,0,0,5.682-2.752,8.056,8.056,0,0,0,1.763-7.528c-.058-.248-.091-.448-.485-.322a.971.971,0,0,1-1.2-.659c-.078-.185-.144-.376-.2-.568a3.77,3.77,0,0,0-2.561-2.562c-.191-.062-.382-.126-.567-.2a.993.993,0,0,1-.673-1.154c.037-.231-.027-.286-.213-.33a7.248,7.248,0,0,0-1.44-.214,1.309,1.309,0,0,0-.149-.025,8.19,8.19,0,0,0-8.412,9.824A8.153,8.153,0,0,0,1097.726-29.813Zm2.145,4.23a13.6,13.6,0,0,1-5.362-.05,9.462,9.462,0,0,0-1.94-.5q-9.8-.016-19.594,0a.8.8,0,0,1-.621-.794.8.8,0,0,1,.621-.743q8.375,0,16.75.006c.037,0,.074-.04.126-.07a11.962,11.962,0,0,1-2.054-1.888.6.6,0,0,0-.533-.2c-.791.005-1.581.01-2.371,0-.539-.008-.882-.324-.872-.77a.775.775,0,0,1,.85-.74c.42-.015.841-.015,1.262,0,.321.01.334-.1.186-.344a8.537,8.537,0,0,1-.742-1.538.392.392,0,0,0-.442-.294q-6.08.014-12.159.014a.78.78,0,0,1-.621-.739c-.016-.442.267-.645.621-.8h11.985c-.09-.6-.206-1.163-.247-1.729-.023-.324-.112-.415-.438-.413-3.766.014-7.532.012-11.3.014-.352-.153-.639-.352-.623-.8a.764.764,0,0,1,.622-.738c1.294,0,2.589.009,3.883.01,2.438,0,4.876-.006,7.314.007.359,0,.543-.04.542-.473a5.7,5.7,0,0,1,.2-1.342c.085-.346-.033-.381-.334-.38q-5.8.017-11.6.013a.767.767,0,0,1-.622-.738c-.016-.443.271-.643.622-.8q3.228.005,6.457.01,2.8,0,5.6,0c.18,0,.387.085.5-.2a12.662,12.662,0,0,1,1.756-3.11,1.118,1.118,0,0,0-.185-.041l-14.125.01c-.353-.151-.636-.355-.621-.8a.781.781,0,0,1,.621-.739q7.721,0,15.442.014a.812.812,0,0,0,.581-.236,12.3,12.3,0,0,1,2.489-1.7c.079-.042.251-.024.219-.234-.485,0-.971.007-1.457,0-.616-.01-.925-.267-.926-.754s.31-.758.921-.76c1.682-.007,3.365,0,5.047,0a.814.814,0,0,1,.658.192.617.617,0,0,0,.585.184,11.7,11.7,0,0,1,3.259.245c.33.076.357-.035.354-.308-.01-1.328.008-2.657-.01-3.986a.851.851,0,0,1,.724-.98c.641.158.8.349.8,1.015,0,1.245.052,2.493-.018,3.733-.044.777.147,1.219.938,1.458.467.142.479.044.479-.349q-.015-5.854-.006-11.708c0-.951,0-.932-.961-.946-.368-.005-.444.121-.438.46.02,1.11.01,2.22.007,3.33,0,.665-.156.857-.8,1.015a.856.856,0,0,1-.723-.983c.016-2.035-.01-4.07.018-6.1.007-.472-.088-.611-.591-.61q-13.045.027-26.091.014c-.167,0-.334.019-.5.029-1.329-.01-2.658,0-3.986-.042-.462-.015-.57.116-.57.572q.02,20.957.011,41.914c0,.1.008.2,0,.3-.017.2.065.266.261.264,1.429-.016,2.859-.025,4.289-.036.2.011.4.031.6.031q10.1,0,20.2,0c1.986,0,3.973,0,5.959.005.284,0,.424-.035.413-.376-.029-.975-.019-1.952-.024-2.928C1100.072-25.722,1099.968-25.629,1099.871-25.582Zm8.51-12.363a11.022,11.022,0,0,0-1.273-5.187c-.064-.115-.054-.381-.317-.281a1.41,1.41,0,0,0-.653,1.55,9.7,9.7,0,0,1-8.282,13.582A9.674,9.674,0,0,1,1087.6-38.1a9.643,9.643,0,0,1,12.969-8.954,1.454,1.454,0,0,0,1.621-.34c.337-.271.318-.41-.088-.6a11.315,11.315,0,0,0-6.838-.9,11.086,11.086,0,0,0-9.049,11.937,11.043,11.043,0,0,0,10.348,10.08A11.071,11.071,0,0,0,1108.382-37.946Zm-3.906-4.763a4.972,4.972,0,0,1,2.681-2.687,5.025,5.025,0,0,1-2.69-2.673,5.083,5.083,0,0,1-2.664,2.684A5.012,5.012,0,0,1,1104.476-42.709Zm4.178,14.994a1.132,1.132,0,0,0-.1-.139c-.546-.548-1.1-1.092-1.639-1.644-.151-.153-.227-.037-.322.059-.26.263-.514.533-.787.782-.165.15-.166.25,0,.4.3.274.574.568.86.853.856.856.857.857,1.719-.023C1108.477-27.519,1108.564-27.617,1108.654-27.715Z" transform="translate(-1066.912 66.796)" fill="#040303"/>
      <path id="Trazado_166340" data-name="Trazado 166340" d="M1091.476,37.733c-.179-.632-.372-.778-1.036-.786l-1.965-.024q0-.659,0-1.317c.2-.009.4-.025.6-.025h23.374c1.339,0,1.779-.441,1.779-1.784,0-1.043.015-2.087-.008-3.129a.574.574,0,0,1,.43-.658c.974-.368.967-.387.967.676,0,1.885-.025,3.77.015,5.653.011.541-.166.62-.649.619q-10.2-.023-20.4-.01c-.77,0-.951.128-1.137.787Z" transform="translate(-1079.483 10.495)" fill="#ed994d"/>
      <path id="Trazado_166341" data-name="Trazado 166341" d="M1176.016,33.287c-.418.534-.4.809.085,1.3.449.455.889.92,1.36,1.35.255.233.218.376-.016.584-.384.342-.744.712-1.115,1.07a1.14,1.14,0,0,0-.37-.47c-1.354-1.357-2.7-2.723-4.07-4.064-1.059-1.037-1.317-1.193.21-2.438l1.182,1.151c.479.467.7.494,1.271.153A5.714,5.714,0,0,0,1176.016,33.287Z" transform="translate(-1127.607 10.003)" fill="#b6aeb6"/>
      <path id="Trazado_166342" data-name="Trazado 166342" d="M1168.363-30.827c0,.47-.313.763-.88.731-.448-.024-.613.089-.58.566a.769.769,0,0,1-.764.921.766.766,0,0,1-.731-.9c.022-.433-.065-.625-.558-.588-.586.044-.922-.279-.911-.756a.762.762,0,0,1,.9-.736c.452.024.605-.1.573-.566a.735.735,0,0,1,.731-.887c.479-.008.8.328.762.91-.028.444.1.57.543.544C1168.031-31.623,1168.366-31.3,1168.363-30.827Z" transform="translate(-1123.476 47.119)" fill="#040303"/>
      <path id="Trazado_166343" data-name="Trazado 166343" d="M1109.334-53.5a.851.851,0,0,0-.724.98c.019,1.329,0,2.658.01,3.986,0,.273-.024.384-.354.308a11.7,11.7,0,0,0-3.259-.245.618.618,0,0,1-.585-.184.814.814,0,0,0-.658-.192c-1.682,0-3.364,0-5.047,0-.611,0-.922.271-.921.76s.31.744.926.754c.486.008.972,0,1.457,0,.032.211-.14.193-.219.234a12.3,12.3,0,0,0-2.489,1.7.811.811,0,0,1-.58.236q-7.721-.015-15.442-.014l.012-2.157,13.929,0a3.339,3.339,0,0,0,.6-.032.687.687,0,0,0,.6-.705.68.68,0,0,0-.557-.736,2.62,2.62,0,0,0-.6-.044q-6.99-.009-13.979-.013l-.007-2.14c.1,0,.2-.011.3-.011q2.976,0,5.952,0c.588,0,.96-.351.906-.83-.048-.425-.376-.68-.906-.682q-3.126-.01-6.253-.011,0-5.3,0-10.609c.167-.01.334-.029.5-.029q13.046,0,26.091-.014c.5,0,.6.138.591.61-.028,2.035,0,4.07-.018,6.1a.856.856,0,0,0,.722.982Q1109.334-54.494,1109.334-53.5Zm-16.574-4.83q-3.307,0-6.614,0c-.568,0-.894.273-.911.724-.018.47.322.769.9.794.084,0,.169,0,.252,0q6.362,0,12.723,0a2.638,2.638,0,0,0,.65-.059.649.649,0,0,0,.495-.575.729.729,0,0,0-.265-.719,1.052,1.052,0,0,0-.721-.165Zm4.451,7.319h5.9c.286,0,.573.014.857-.006a.73.73,0,0,0,.716-.757.724.724,0,0,0-.68-.743,2.492,2.492,0,0,0-.4-.009h-12.816a2.273,2.273,0,0,0-.453.014.713.713,0,0,0-.637.777.709.709,0,0,0,.651.715,2.314,2.314,0,0,0,.4.008Z" transform="translate(-1075.385 64.691)" fill="#fbf1de"/>
      <path id="Trazado_166344" data-name="Trazado 166344" d="M1075.08-51l.007,2.14c-.367.141-.644.353-.628.8a.763.763,0,0,0,.634.736l-.012,2.157a.781.781,0,0,0-.621.739c-.016.441.267.645.621.8q0,1.668,0,3.337c-.351.153-.639.353-.622.8a.767.767,0,0,0,.622.738V-36.6a.764.764,0,0,0-.622.738c-.016.443.271.643.623.8q0,1.064,0,2.128c-.353.152-.636.355-.621.8a.78.78,0,0,0,.621.739l.012,2.158a.762.762,0,0,0-.634.736c-.016.445.262.656.628.8l-.006,2.139a.8.8,0,0,0-.621.743.8.8,0,0,0,.621.794q0,1.93,0,3.861c-1.43.011-2.859.02-4.289.036-.2,0-.279-.067-.261-.264.009-.1,0-.2,0-.3q0-20.957-.011-41.914c0-.457.108-.587.57-.572,1.328.042,2.657.032,3.986.042q0,5.3,0,10.609a.8.8,0,0,0-.62.793A.8.8,0,0,0,1075.08-51Z" transform="translate(-1069.017 64.692)" fill="#f6e1c3"/>
      <path id="Trazado_166345" data-name="Trazado 166345" d="M1081.453,34.558q0-1.93,0-3.861,9.8-.005,19.594,0a9.464,9.464,0,0,1,1.94.5,13.6,13.6,0,0,0,5.363.05l.257.044c0,.976-.005,1.952.024,2.928.01.341-.13.377-.413.376-1.986-.01-3.973-.005-5.959-.005q-10.1,0-20.2,0C1081.854,34.589,1081.654,34.569,1081.453,34.558Z" transform="translate(-1075.389 9.965)" fill="#fcf2df"/>
      <path id="Trazado_166346" data-name="Trazado 166346" d="M1133.7-17.186a7.247,7.247,0,0,1,1.44.214c.187.044.251.1.214.33a.993.993,0,0,0,.673,1.154c.184.079.376.142.567.2a3.771,3.771,0,0,1,2.561,2.562c.061.191.127.382.2.568a.972.972,0,0,0,1.2.659c.395-.126.427.074.485.322a8.057,8.057,0,0,1-1.763,7.528A7.826,7.826,0,0,1,1133.6-.892a2.527,2.527,0,0,0-.323-.226,8.463,8.463,0,0,1-3-2.518,7.12,7.12,0,0,1-1.425-2.887c.184-.008.368-.024.552-.024q3.957,0,7.915,0a2.267,2.267,0,0,0,.6-.055.68.68,0,0,0,.531-.755.684.684,0,0,0-.618-.684,3.536,3.536,0,0,0-.553-.022l-8.822,0V-9.363l8.819-.007a3.723,3.723,0,0,0,.453-.008.758.758,0,0,0,.724-.81.731.731,0,0,0-.779-.692c-1.042-.013-2.083,0-3.125-.006q-2.948-.009-5.895-.023a2.7,2.7,0,0,1,.515-1.373,2.453,2.453,0,0,0,.7.094q3.283-.007,6.566,0a1.456,1.456,0,0,0,.548-.058.708.708,0,0,0,.5-.784.682.682,0,0,0-.644-.662,4.236,4.236,0,0,0-.5-.012l-6.464-.02a.574.574,0,0,1,.142-.362A9.231,9.231,0,0,1,1133.7-17.186Zm-.554,11.935c-.722,0-1.445-.008-2.167,0-.549.008-.89.3-.9.742a.785.785,0,0,0,.873.772q2.192.016,4.384,0a.786.786,0,0,0,.874-.771c-.008-.44-.351-.736-.9-.743C1134.593-5.259,1133.871-5.251,1133.148-5.251Z" transform="translate(-1102.79 37.875)" fill="#b8d7f7"/>
      <path id="Trazado_166347" data-name="Trazado 166347" d="M1135.3-13.166a11.071,11.071,0,0,1-11.819,11.071,11.043,11.043,0,0,1-10.347-10.08,11.086,11.086,0,0,1,9.049-11.937,11.315,11.315,0,0,1,6.838.9c.406.187.424.325.088.6a1.454,1.454,0,0,1-1.621.34,9.643,9.643,0,0,0-12.969,8.954A9.674,9.674,0,0,0,1124.779-3.5a9.7,9.7,0,0,0,8.282-13.582,1.41,1.41,0,0,1,.653-1.55c.263-.1.253.166.317.281A11.022,11.022,0,0,1,1135.3-13.166Z" transform="translate(-1093.835 42.016)" fill="#a49ca4"/>
      <path id="Trazado_166348" data-name="Trazado 166348" d="M1081.465,15.179l-.012-2.158q6.08,0,12.159-.014a.392.392,0,0,1,.442.294,8.536,8.536,0,0,0,.741,1.538c.148.248.136.354-.186.344-.42-.013-.842-.013-1.261,0a.775.775,0,0,0-.85.74c-.01.446.333.762.872.77.79.011,1.581.007,2.371,0a.6.6,0,0,1,.533.2,11.962,11.962,0,0,0,2.054,1.888c-.052.03-.089.07-.126.07q-8.375,0-16.75-.006l.006-2.139,8.778-.013a4.324,4.324,0,0,0,.453-.007.776.776,0,0,0,.74-.75.766.766,0,0,0-.734-.751,4.827,4.827,0,0,0-.5-.013Z" transform="translate(-1075.389 20.273)" fill="#fbf1de"/>
      <path id="Trazado_166349" data-name="Trazado 166349" d="M1124.3-12.331a2.7,2.7,0,0,0-.515,1.373c-.418.051-.744.221-.8.681s.229.7.606.865q0,.646,0,1.293a.76.76,0,0,0-.609.8.69.69,0,0,0,.566.673c.144.036.294.048.442.07a7.119,7.119,0,0,0,1.425,2.887,8.462,8.462,0,0,0,3,2.518,2.518,2.518,0,0,1,.323.226,8.153,8.153,0,0,1-8.462-6.494,8.19,8.19,0,0,1,8.412-9.824,1.311,1.311,0,0,1,.148.025,9.231,9.231,0,0,0-3.7,3.1.571.571,0,0,0-.141.362c-.4.022-.818.017-1,.479A.813.813,0,0,0,1124.3-12.331Z" transform="translate(-1097.917 37.923)" fill="#94c3f2"/>
      <path id="Trazado_166350" data-name="Trazado 166350" d="M1081.453-12.974q0-1.668,0-3.337l14.125-.01a1.117,1.117,0,0,1,.185.041,12.669,12.669,0,0,0-1.756,3.11c-.109.287-.315.2-.5.2q-2.8.009-5.6,0Q1084.681-12.967,1081.453-12.974Z" transform="translate(-1075.388 37.37)" fill="#fcf2df"/>
      <path id="Trazado_166351" data-name="Trazado 166351" d="M1081.454-2.47V-4.636q5.8,0,11.6-.013c.3,0,.42.034.334.38a5.7,5.7,0,0,0-.2,1.342c0,.433-.183.475-.542.473-2.438-.013-4.876-.006-7.314-.007C1084.043-2.461,1082.749-2.466,1081.454-2.47Z" transform="translate(-1075.39 30.566)" fill="#fcf2df"/>
      <path id="Trazado_166352" data-name="Trazado 166352" d="M1081.451,6.363l0-2.128c3.766,0,7.531,0,11.3-.014.326,0,.414.089.438.413.041.566.156,1.127.247,1.729Z" transform="translate(-1075.388 25.395)" fill="#fcf2df"/>
      <path id="Trazado_166353" data-name="Trazado 166353" d="M1148.317-49.457q0-1,0-1.991c.642-.158.8-.35.8-1.015,0-1.11.013-2.221-.007-3.33-.006-.339.07-.465.438-.46.961.014.961-.005.961.946q0,5.854.006,11.708c0,.392-.012.49-.479.349-.79-.24-.982-.681-.938-1.458.07-1.241.021-2.488.018-3.733C1149.113-49.107,1148.958-49.3,1148.317-49.457Z" transform="translate(-1114.368 60.649)" fill="#e8964c"/>
      <path id="Trazado_166354" data-name="Trazado 166354" d="M1169,29.261c-1.527,1.244-1.269,1.4-.21,2.438,1.37,1.341,2.716,2.707,4.07,4.064a1.142,1.142,0,0,1,.37.47c-.9,1.058-.9,1.058-1.845.11-1.822-1.821-3.635-3.65-5.472-5.456-.293-.288-.264-.436.012-.694q.886-.826,1.714-1.714c.252-.271.412-.247.633.016S1168.753,29.006,1169,29.261Z" transform="translate(-1124.503 11.366)" fill="#a49ca4"/>
      <path id="Trazado_166355" data-name="Trazado 166355" d="M1153.248-16.531a5.012,5.012,0,0,0-2.673-2.676,5.082,5.082,0,0,0,2.664-2.684,5.025,5.025,0,0,0,2.69,2.673A4.972,4.972,0,0,0,1153.248-16.531Z" transform="translate(-1115.685 40.617)" fill="#edc243"/>
      <path id="Trazado_166356" data-name="Trazado 166356" d="M1082.052,43.714q0,.659,0,1.317c-1.412.008-2.825.012-4.238.026-.227,0-.318-.055-.333-.306-.065-1.063-.075-1.066.989-1.062C1079.664,43.694,1080.858,43.705,1082.052,43.714Z" transform="translate(-1073.059 2.387)" fill="#ee8a36"/>
      <path id="Trazado_166357" data-name="Trazado 166357" d="M1162.852,24.318c-.09.1-.177.2-.269.289-.862.879-.863.879-1.719.023-.285-.285-.563-.579-.859-.853-.163-.151-.163-.251,0-.4.273-.249.527-.519.787-.782.095-.1.171-.212.321-.059.543.552,1.093,1.1,1.639,1.644A1.146,1.146,0,0,1,1162.852,24.318Z" transform="translate(-1121.111 14.762)" fill="#dad8db"/>
      <path id="Trazado_166358" data-name="Trazado 166358" d="M1146.2,31.981l-.257-.044C1146.041,31.89,1146.145,31.8,1146.2,31.981Z" transform="translate(-1112.986 9.276)" fill="#f6e1c3"/>
      <path id="Trazado_166359" data-name="Trazado 166359" d="M1080.594-27.3a.763.763,0,0,1-.634-.736c-.015-.444.261-.656.628-.8q6.989.006,13.979.013a2.618,2.618,0,0,1,.6.044.681.681,0,0,1,.557.736.687.687,0,0,1-.6.705,3.338,3.338,0,0,1-.6.032Z" transform="translate(-1074.518 44.662)" fill="#080707"/>
      <path id="Trazado_166360" data-name="Trazado 166360" d="M1098.057-51.54h6.513a1.052,1.052,0,0,1,.721.165.73.73,0,0,1,.265.719.649.649,0,0,1-.495.575,2.638,2.638,0,0,1-.65.059q-6.361,0-12.723,0c-.084,0-.168,0-.252,0-.581-.025-.921-.324-.9-.794.017-.451.343-.723.911-.724Q1094.75-51.546,1098.057-51.54Z" transform="translate(-1080.682 57.903)" fill="#080707"/>
      <path id="Trazado_166361" data-name="Trazado 166361" d="M1108.746-36.111h-6.459a2.312,2.312,0,0,1-.4-.008.709.709,0,0,1-.651-.715.713.713,0,0,1,.637-.777,2.273,2.273,0,0,1,.453-.014h12.816a2.493,2.493,0,0,1,.4.009.724.724,0,0,1,.68.743.73.73,0,0,1-.716.757c-.284.02-.572.006-.857.006Z" transform="translate(-1086.92 49.793)" fill="#010100"/>
      <path id="Trazado_166362" data-name="Trazado 166362" d="M1080.584-36.108a.8.8,0,0,1-.62-.743.8.8,0,0,1,.62-.793q3.127.005,6.253.011c.531,0,.858.257.906.682.054.479-.318.829-.906.83q-2.976.006-5.951,0C1080.785-36.119,1080.685-36.112,1080.584-36.108Z" transform="translate(-1074.521 49.801)" fill="#010100"/>
      <path id="Trazado_166363" data-name="Trazado 166363" d="M1080.594,18.215h8.728a4.826,4.826,0,0,1,.5.013.766.766,0,0,1,.734.751.776.776,0,0,1-.741.75,4.323,4.323,0,0,1-.453.007l-8.778.013c-.367-.142-.644-.353-.628-.8A.762.762,0,0,1,1080.594,18.215Z" transform="translate(-1074.518 17.238)" fill="#080707"/>
      <path id="Trazado_166364" data-name="Trazado 166364" d="M1128,6.22c-.147-.023-.3-.034-.442-.07a.69.69,0,0,1-.566-.673.76.76,0,0,1,.609-.8l8.822,0a3.536,3.536,0,0,1,.553.022.684.684,0,0,1,.618.684.68.68,0,0,1-.531.755,2.267,2.267,0,0,1-.6.055q-3.957.005-7.915,0C1128.369,6.2,1128.184,6.211,1128,6.22Z" transform="translate(-1101.936 25.132)" fill="#080707"/>
      <path id="Trazado_166365" data-name="Trazado 166365" d="M1127.6-.589c-.377-.166-.667-.4-.606-.865s.387-.63.8-.681q2.947.012,5.894.023c1.041,0,2.083-.007,3.125.006a.731.731,0,0,1,.779.692.758.758,0,0,1-.724.81,3.725,3.725,0,0,1-.453.008Z" transform="translate(-1101.932 29.101)" fill="#040303"/>
      <path id="Trazado_166366" data-name="Trazado 166366" d="M1129.661-7.447a.813.813,0,0,1-.3-.965c.18-.462.6-.457,1-.479l6.463.02a4.235,4.235,0,0,1,.5.012.682.682,0,0,1,.644.662.708.708,0,0,1-.5.784,1.456,1.456,0,0,1-.548.058q-3.283,0-6.566,0A2.453,2.453,0,0,1,1129.661-7.447Z" transform="translate(-1103.282 33.039)" fill="#040303"/>
      <path id="Trazado_166367" data-name="Trazado 166367" d="M1135.422,11.429c.722,0,1.444-.008,2.167,0,.547.008.891.3.9.743a.786.786,0,0,1-.874.771q-2.192.016-4.384,0a.785.785,0,0,1-.873-.772c.009-.441.35-.734.9-.742C1133.977,11.421,1134.7,11.429,1135.422,11.429Z" transform="translate(-1105.063 21.195)" fill="#080707"/>
    </g>
  </g>
</svg>
