<svg xmlns="http://www.w3.org/2000/svg" width="53.184" height="53.134" viewBox="0 0 53.184 53.134">
  <g id="Grupo_109154" data-name="Grupo 109154" transform="translate(0 0)">
    <path id="Trazado_166325" data-name="Trazado 166325" d="M935.087-22.8c.038-.822.038-.822.851-.822,1.21,0,2.421-.024,3.63.012.444.013.524-.118.524-.538q-.018-21.833-.023-43.666c0-.523.123-.635.638-.634q17.659.025,35.319,0c.466,0,.585.108.584.58q-.021,21.833-.021,43.666c0,.456.091.605.576.59,1.278-.039,2.559.008,3.837-.024.458-.012.669.093.58.576a1.091,1.091,0,0,0,.012.257c-.039.838-.039.838-.9.838h-6.264c-1.156,0-1.133,0-1.164,1.139-.012.44.118.532.542.53,3.693-.014,7.386,0,11.079,0-.007.532.182,1.214-.077,1.553-.245.32-.968.089-1.48.091-3.317.009-6.635.013-9.951-.007a.91.91,0,0,0-.844.437c-.611.857-1.266,1.683-1.881,2.537a.783.783,0,0,1-.724.365c-4.095-.013-8.19,0-12.284-.012a4.728,4.728,0,0,1-4.525-2.8.8.8,0,0,0-.853-.529c-6.652.018-13.3.008-19.955.022-.411,0-.6-.064-.539-.519a10.192,10.192,0,0,0,.019-1.139c.207,0,.415-.012.622-.012h19.594c-.206-.421-.407-.764-.545-1.13a.76.76,0,0,0-.849-.542c-4.875.02-9.751.012-14.626.012C935.125-21.964,935.125-21.964,935.087-22.8Zm9.145-17.437c.829.043.829.043.829.9v15.09c0,.121.01.243,0,.363-.019.2.061.266.263.266,1.654-.006,3.309,0,5.029,0-.247-.5-.468-.939-.686-1.383a3.155,3.155,0,0,1,1.229-4.3,3.146,3.146,0,0,1,4.258,1.236c.205.329.408.661.6.976.119-.02.092-.085.092-.129,0-2.558,0-5.116.01-7.675,0-.327-.131-.35-.4-.349-1.642.01-3.284-.009-4.926.015-.4.006-.508-.1-.506-.5.017-3.8.007-7.605.013-11.408,0-.444-.188-1.013.078-1.3.245-.265.817-.075,1.243-.07.278,0,.345-.087.341-.351-.013-1.037-.016-2.074,0-3.111a6.654,6.654,0,0,1,5.971-6.478,6.666,6.666,0,0,1,7.107,5.01,17.644,17.644,0,0,1,.2,3.663c.015.409-.181.949.085,1.187.224.2.754.085,1.147.065.326-.017.435.063.434.416q-.021,6.222,0,12.445c0,.326-.065.44-.417.433-1.21-.024-2.42-.009-3.63-.009-.939,0-.942,0-.938.932,0,.5-.177,1.168.074,1.452.289.326.972.092,1.483.1a2.122,2.122,0,0,1,1.976.922c.418.782,1,.8,1.691.745a5.5,5.5,0,0,1,.57,0,2.4,2.4,0,0,1,2.191,1.318.533.533,0,0,0,.6.343,3.073,3.073,0,0,1,2.113.52,2.832,2.832,0,0,1,.931,2.367c-.035.6-.006,1.21-.006,1.815,0,1.1,0,1.082,1.079,1.115.457.014.593-.091.593-.577q-.022-21,0-42.007c0-.454-.089-.594-.576-.593q-16.025.024-32.051,0c-.456,0-.592.092-.592.577q.022,20.718.012,41.436c0,1.153,0,1.13,1.136,1.162.43.012.536-.1.535-.531-.018-5.065-.011-10.13-.011-15.2C943.4-40.195,943.4-40.195,944.232-40.238ZM957.51-31.49V-24.8c0,1.184,0,1.166-1.16,1.189a.68.68,0,0,1-.686-.4c-.628-1.071-1.274-2.133-1.924-3.191a1.5,1.5,0,0,0-2.079-.638,1.49,1.49,0,0,0-.513,2.077c1.151,2.316,2.3,4.634,3.469,6.942a3.153,3.153,0,0,0,3.005,1.837c3.837,0,7.674,0,11.511.009a.745.745,0,0,0,.68-.351q.758-1.05,1.555-2.072a1.211,1.211,0,0,0,.258-.806c-.011-2.143-.006-4.286-.006-6.429a2.709,2.709,0,0,0-.011-.414c-.088-.568-.55-.816-1.388-.721-.547.062-.158.488-.25.731a1.546,1.546,0,0,0-.011.514c0,1.26,0,1.244-1.253,1.251-.36,0-.421-.122-.413-.44.02-.829.007-1.659.006-2.488,0-1.013-.223-1.231-1.255-1.232-1.235,0-1.235,0-1.235,1.208,0,1.328,0,1.319-1.317,1.288-.265-.006-.355-.067-.349-.344.018-.846.007-1.694.006-2.541,0-1.061-.209-1.271-1.267-1.272-1.223,0-1.223,0-1.223,1.22,0,1.324,0,1.313-1.329,1.278-.284-.008-.367-.1-.333-.357a1.931,1.931,0,0,0,0-.259v-9.281c0-.138,0-.276,0-.415a1.256,1.256,0,0,0-1.245-1.312,1.243,1.243,0,0,0-1.24,1.314C957.505-36.433,957.511-33.962,957.51-31.49Zm.838-15.369h-6.222c-.219,0-.434-.06-.432.313q.019,4.667,0,9.333c0,.254.085.319.327.317,1.158-.011,2.316-.016,3.474,0,.316.005.367-.119.359-.392-.017-.57-.013-1.14,0-1.711a2.906,2.906,0,0,1,2.868-2.883,2.9,2.9,0,0,1,2.936,2.867c.012.57.02,1.142,0,1.711-.013.311.064.419.4.409.829-.025,1.66-.029,2.488,0,.373.013.452-.105.45-.461-.015-3.007-.019-6.015,0-9.022,0-.435-.146-.5-.524-.492C962.427-46.851,960.388-46.86,958.348-46.86Zm-.026-1.66c1.538,0,3.077-.006,4.615.005.269,0,.4-.031.391-.353-.023-1.071.015-2.144-.021-3.214a4.985,4.985,0,0,0-4.586-4.725,4.973,4.973,0,0,0-5.266,4.074,33.175,33.175,0,0,0-.1,3.829c-.017.335.1.395.406.392C955.28-48.528,956.8-48.52,958.322-48.52Z" transform="translate(-931.764 68.45)" fill="#000100"/>
    <path id="Trazado_166326" data-name="Trazado 166326" d="M935.125,38.114c.039.838.039.838.9.838,4.875,0,9.751.007,14.626-.012a.76.76,0,0,1,.849.542c.138.366.339.709.545,1.13H932.453c-.207,0-.415.008-.622.012q0-.842,0-1.683c.257,0,.515.011.773.011.852,0,.852,0,.892-.837Z" transform="translate(-931.802 7.534)" fill="#93a2ac"/>
    <path id="Trazado_166327" data-name="Trazado 166327" d="M1040.27,40.623c-3.693,0-7.386-.015-11.079,0-.424,0-.553-.09-.542-.53.031-1.139.008-1.139,1.164-1.139h6.264c.859,0,.859,0,.9-.838h1.629c.04.837.04.838.892.837.257,0,.515-.007.773-.011Z" transform="translate(-987.147 7.534)" fill="#93a2ac"/>
    <path id="Trazado_166328" data-name="Trazado 166328" d="M933.483,37c-.039.837-.039.838-.892.837-.257,0-.515-.007-.773-.011,0-.155-.01-.309-.01-.464,0-1.189,0-1.172,1.193-1.194.381-.007.54.08.471.473A1.721,1.721,0,0,0,933.483,37Z" transform="translate(-931.789 8.646)"/>
    <path id="Trazado_166329" data-name="Trazado 166329" d="M1053.556,37.843c-.257,0-.515.011-.773.011-.853,0-.853,0-.892-.837.038-.822.038-.822.9-.822.78,0,.781,0,.78.771C1053.565,37.258,1053.559,37.55,1053.556,37.843Z" transform="translate(-1000.433 8.631)"/>
    <path id="Trazado_166330" data-name="Trazado 166330" d="M988.974-22.262a3.073,3.073,0,0,0-2.113-.521.533.533,0,0,1-.6-.343,2.4,2.4,0,0,0-2.191-1.318,5.5,5.5,0,0,0-.57,0c-.7.051-1.273.038-1.691-.745a2.122,2.122,0,0,0-1.976-.922c-.511-.009-1.194.226-1.483-.1-.251-.284-.072-.953-.074-1.452,0-.932,0-.932.938-.932,1.21,0,2.42-.015,3.63.009.352.007.418-.107.417-.433q-.016-6.222,0-12.445c0-.353-.108-.434-.434-.416-.392.02-.923.136-1.147-.065-.266-.238-.07-.778-.085-1.187a17.644,17.644,0,0,0-.2-3.663,6.666,6.666,0,0,0-7.107-5.01,6.654,6.654,0,0,0-5.971,6.478c-.014,1.037-.011,2.074,0,3.111,0,.265-.063.355-.341.351-.426,0-1-.194-1.243.07-.265.285-.077.854-.078,1.3-.006,3.8,0,7.605-.013,11.408,0,.408.1.509.506.5,1.642-.024,3.284-.005,4.926-.015.264,0,.4.021.4.349-.015,2.558-.008,5.116-.01,7.675,0,.043.027.109-.092.129-.195-.315-.4-.646-.6-.976a3.146,3.146,0,0,0-4.258-1.236,3.155,3.155,0,0,0-1.229,4.3c.218.444.439.886.686,1.383-1.72,0-3.375,0-5.029,0-.2,0-.283-.063-.263-.266.012-.12,0-.242,0-.363v-15.09c0-.857,0-.857-.829-.9a10.28,10.28,0,0,1,.092-2.168c.06.033.121.063.178.1a2.4,2.4,0,0,0,2.6.1A2.43,2.43,0,0,0,965-37.83c0-1.071,0-2.143,0-3.214a2.428,2.428,0,0,0-.933-1.939,2.531,2.531,0,0,0-3.123-.026,10.359,10.359,0,0,1-.092-2.167c.829-.044.829-.044.829-.9,0-3.388.01-6.776-.012-10.164,0-.474.12-.583.586-.582q12.706.022,25.412,0c.474,0,.583.12.582.586q-.022,15.454-.011,30.908c0,.857,0,.857.829.9A10.125,10.125,0,0,1,988.974-22.262Z" transform="translate(-948.384 61.804)" fill="#b2e5fb"/>
    <path id="Trazado_166331" data-name="Trazado 166331" d="M983.094,6.184c0-2.471-.005-4.942,0-7.414a1.243,1.243,0,0,1,1.24-1.314,1.256,1.256,0,0,1,1.245,1.312c0,.138,0,.277,0,.415V8.463a1.931,1.931,0,0,1,0,.259c-.035.26.048.35.333.357,1.329.036,1.329.046,1.329-1.278,0-1.22,0-1.22,1.223-1.22,1.058,0,1.267.21,1.267,1.272,0,.847.012,1.694-.006,2.541-.006.277.084.338.349.344,1.318.031,1.317.04,1.317-1.288,0-1.209,0-1.209,1.234-1.208,1.032,0,1.255.218,1.255,1.232,0,.829.013,1.659-.006,2.488-.008.318.053.442.413.44,1.253-.007,1.253.009,1.253-1.251a1.546,1.546,0,0,1,.011-.514c.092-.242-.3-.669.25-.731.838-.094,1.3.154,1.388.721a2.717,2.717,0,0,1,.011.414c0,2.143,0,4.286.006,6.429a1.21,1.21,0,0,1-.258.806q-.8,1.02-1.554,2.072a.745.745,0,0,1-.68.351c-3.837-.012-7.674-.006-11.511-.009a3.153,3.153,0,0,1-3.005-1.837c-1.169-2.308-2.318-4.626-3.469-6.942a1.485,1.485,0,1,1,2.592-1.439c.65,1.058,1.3,2.12,1.924,3.191a.68.68,0,0,0,.686.4c1.16-.023,1.16-.005,1.16-1.189Q983.094,9.528,983.094,6.184Z" transform="translate(-957.348 30.776)" fill="#f9df8e"/>
    <path id="Trazado_166332" data-name="Trazado 166332" d="M957.623-40.189a10.276,10.276,0,0,0-.093,2.168c-.831.043-.831.043-.831.9,0,5.065-.006,10.13.011,15.2,0,.434-.1.543-.535.531-1.136-.031-1.136-.009-1.136-1.162q0-20.718-.012-41.436c0-.484.136-.577.592-.577q16.026.019,32.051,0c.487,0,.576.139.576.593q-.019,21,0,42.007c0,.486-.136.591-.593.577-1.078-.033-1.079-.01-1.079-1.115,0-.6-.028-1.212.006-1.815a2.832,2.832,0,0,0-.931-2.366,10.129,10.129,0,0,0,.094-2.166c.831-.044.831-.044.831-.9q0-16.309.01-32.619c0-.428-.1-.535-.53-.534q-14.417.021-28.835,0c-.428,0-.536.1-.534.53.019,3.958.011,7.917.011,11.875,0,.857,0,.857.831.9a10.371,10.371,0,0,0,.092,2.167,2.859,2.859,0,0,0-.931,2.359c.039.843.039,1.689,0,2.533A2.858,2.858,0,0,0,957.623-40.189Z" transform="translate(-945.063 66.234)" fill="#cfd7da"/>
    <path id="Trazado_166333" data-name="Trazado 166333" d="M984.943-18.059c2.04,0,4.079.009,6.119-.008.378,0,.527.057.524.492-.022,3.007-.018,6.015,0,9.022,0,.356-.077.475-.45.461-.828-.03-1.659-.027-2.488,0-.332.01-.409-.1-.4-.409.024-.569.016-1.141,0-1.711a2.9,2.9,0,0,0-2.936-2.867,2.906,2.906,0,0,0-2.868,2.883c-.01.571-.014,1.141,0,1.711.009.273-.042.4-.359.392-1.158-.019-2.316-.013-3.474,0-.242,0-.327-.063-.327-.317q.012-4.667,0-9.333c0-.372.212-.313.432-.313Zm.042,1.653a7.233,7.233,0,0,0-3.939,1.176c-.942.616-.939.62-.2,1.467a.317.317,0,0,1,.033.04c.234.386.455.373.817.091a5.332,5.332,0,0,1,6.027-.332c.307.185.592.618.89.541s.526-.513.81-.759.272-.392-.023-.628A7.192,7.192,0,0,0,984.985-16.406Z" transform="translate(-958.359 39.65)" fill="#ef8f6d"/>
    <path id="Trazado_166334" data-name="Trazado 166334" d="M987.122-33c-1.521,0-3.042-.009-4.563.007-.307,0-.422-.056-.406-.392a33.175,33.175,0,0,1,.1-3.829,4.973,4.973,0,0,1,5.266-4.074,4.985,4.985,0,0,1,4.586,4.725c.036,1.07,0,2.143.021,3.214.007.322-.122.355-.391.353C990.2-33,988.661-33,987.122-33Z" transform="translate(-960.564 52.929)" fill="#b2e4fa"/>
    <path id="Trazado_166335" data-name="Trazado 166335" d="M959.747-47.389c-.831-.044-.831-.044-.831-.9,0-3.959.008-7.917-.011-11.875,0-.435.107-.531.534-.53q14.418.02,28.835,0c.435,0,.53.106.53.534q-.02,16.309-.01,32.619c0,.857,0,.857-.831.9-.829-.044-.829-.044-.829-.9q0-15.453.011-30.908c0-.466-.108-.587-.582-.586q-12.706.024-25.412,0c-.466,0-.59.108-.586.582.022,3.388.012,6.776.012,10.164C960.576-47.433,960.576-47.433,959.747-47.389Z" transform="translate(-947.279 64.017)"/>
    <path id="Trazado_166336" data-name="Trazado 166336" d="M959.837-18.022a2.858,2.858,0,0,1-.932-2.358c.039-.843.039-1.69,0-2.533a2.859,2.859,0,0,1,.931-2.359,2.531,2.531,0,0,1,3.123.026,2.428,2.428,0,0,1,.933,1.939c.007,1.071,0,2.143,0,3.214a2.43,2.43,0,0,1-1.279,2.271,2.4,2.4,0,0,1-2.6-.1C959.958-17.959,959.9-17.989,959.837-18.022Zm.736-3.677c0,.534-.007,1.068,0,1.6a.842.842,0,0,0,.815.936.832.832,0,0,0,.841-.911q.015-1.576,0-3.153a.83.83,0,0,0-.841-.91.84.84,0,0,0-.815.936C960.567-22.7,960.573-22.2,960.573-21.7Z" transform="translate(-947.276 44.066)" fill="#010202"/>
    <path id="Trazado_166337" data-name="Trazado 166337" d="M987.687-14.19a7.192,7.192,0,0,1,4.415,1.6c.295.236.3.388.023.628s-.5.679-.81.759-.583-.356-.89-.541a5.332,5.332,0,0,0-6.027.332c-.362.282-.583.3-.817-.091a.323.323,0,0,0-.033-.04c-.74-.847-.742-.851.2-1.467A7.233,7.233,0,0,1,987.687-14.19Z" transform="translate(-961.061 37.433)" fill="#fefcfc"/>
    <path id="Trazado_166338" data-name="Trazado 166338" d="M962.8-19.483c0-.5-.006-1,0-1.5a.84.84,0,0,1,.815-.936.83.83,0,0,1,.84.91q.015,1.577,0,3.153a.832.832,0,0,1-.84.911.842.842,0,0,1-.815-.936C962.8-18.415,962.8-18.949,962.8-19.483Z" transform="translate(-949.505 41.851)" fill="#f6dc8c"/>
  </g>
</svg>
