<svg xmlns="http://www.w3.org/2000/svg" width="97.07" height="95.324" viewBox="0 0 97.07 95.324">
  <g id="Grupo_109092" data-name="Grupo 109092" transform="translate(-900.07 605.632)">
    <path id="Trazado_166028" data-name="Trazado 166028" d="M986.14-552.237c1.157-.387,1.532-.265,2.232.743a48,48,0,0,1,8.75,27.209c.028,1.736.016,3.474.008,5.21a4.477,4.477,0,0,1-4.7,4.7q-16.867.01-33.734-.011a1.911,1.911,0,0,0-1.546.65,11.14,11.14,0,0,1-16.138-.063,1.687,1.687,0,0,0-1.38-.584c-6.317.017-12.634,0-18.951.019-.97,0-1.672-.27-1.853-1.323.165-1.164.589-1.526,1.837-1.527q8.481-.006,16.962,0h1.117a9.8,9.8,0,0,1-.788-4.056c.052-.849-.222-1.048-1.051-1.046-9.982.03-19.963.019-29.945.019-1.042,0-2.087.039-3.127-.014-.677-.034-.987.119-.916.871.068.72.011,1.451.016,2.178.01,1.474.585,2.044,2.082,2.047,2.748,0,5.5,0,8.244,0,1.17,0,1.532.318,1.793,1.5a1.617,1.617,0,0,1-1.856,1.351c-2.81-.031-5.622,0-8.432-.013A4.485,4.485,0,0,1,900.089-519c-.081-5.562.06-11.094,1.468-16.535a48.359,48.359,0,0,1,16.729-26.02c.171-.139.341-.28.508-.424.01-.008-.014-.055-.047-.172H915.4c-3.19,0-6.38.018-9.57-.005a5.412,5.412,0,0,1-5.65-4.565,5.4,5.4,0,0,1,.953-4.033q4.308-6.728,8.6-13.466,5.877-9.2,11.754-18.408c2.558-4,7.148-4,9.693-.018q9.492,14.861,18.97,29.732a1.48,1.48,0,0,0,1.329.8,44.43,44.43,0,0,1,8.137,1.168c.627.149.666-.025.648-.564a17.9,17.9,0,0,1,15.87-18.443A17.966,17.966,0,0,1,995.77-575.3a17.92,17.92,0,0,1-11.212,19.829c-.261.1-.512.229-.767.344a21.482,21.482,0,0,1-6.934.831,17.318,17.318,0,0,1-4.783-1.05c-.614-.242-.856-.111-1.154.448-3.224,6.061-6.481,12.105-9.718,18.159-.12.224-.379.436-.2.824,2.033-.349,4.084-.664,6.118-1.064a2.73,2.73,0,0,1,3.011,1.054,2.741,2.741,0,0,1-.057,3.271c-1.2,1.924-2.372,3.867-3.555,5.8-.323.529-.644,1.058-1.041,1.709h1.068q5.49,0,10.98,0c3.5-.006,7-.026,10.5-.039,1.863.013,3.726.007,5.587.051.586.014.687-.227.633-.731-.154-1.443-.22-2.9-.428-4.332a45.212,45.212,0,0,0-7.794-19.691C985.329-550.89,985.365-551.28,986.14-552.237Zm1.879,29.977c-.378-.013-.756-.036-1.134-.036-6.662,0-13.326.117-19.983-.065-2.4-.066-4.109.395-5.117,2.687a11.761,11.761,0,0,1-1.244,1.78c-.131.191-.4.339-.254.676q11.257,0,22.531,0c1.673,0,3.345-.025,5.018-.038,1.608.013,3.216.055,4.823.027a1.6,1.6,0,0,0,1.619-1.635c.036-.945-.006-1.892.017-2.838.011-.447-.148-.614-.6-.607C991.8-522.28,989.911-522.275,988.02-522.26ZM948.8-513.237a6.168,6.168,0,0,0,2.156-.11,8.855,8.855,0,0,0,5.258-3.6A154.385,154.385,0,0,0,967.5-533.921c.019-.032-.027-.1-.065-.225-1.4.3-2.851.381-4.24.8a5.4,5.4,0,0,0-.658.049c-4.513.879-9.028,1.76-13.451,3.03a14.144,14.144,0,0,0-5.256,2.255,8.493,8.493,0,0,0-2.587,9.324A8.159,8.159,0,0,0,948.8-513.237ZM979.507-587.1c-6.054-.447-10.843,1.864-14.06,6.95a14.111,14.111,0,0,0-.052,15.9c3.2,5.135,8.016,7.478,14.111,7.031a4.823,4.823,0,0,0,.565-.011,15.013,15.013,0,0,0,11.794-21.023A14.427,14.427,0,0,0,979.507-587.1Zm-55.8-13.632q-3.884,6.044-7.767,12.089-6.166,9.638-12.322,19.281a2.762,2.762,0,0,0-.468,2.752,2.747,2.747,0,0,0,2.837,1.622Q924.977-565,943.962-565c.219,0,.439-.027.659-.042.693.015,1.385.028,2.077.046a2.724,2.724,0,0,0,2.712-1.36,2.717,2.717,0,0,0-.33-3.005Q943.874-577.47,938.7-585.6q-5.008-7.844-10.02-15.687a2.572,2.572,0,0,0-3.026-1.366A3.075,3.075,0,0,0,923.711-600.736Zm31.34,31.855c-.657-.084-1.315-.158-1.97-.253-.509-.074-.784-.008-.594.625a3.841,3.841,0,0,1,.012,1.875,5.45,5.45,0,0,1-5.729,4.478q-9.991.019-19.983,0H925.66c.2.392.333.669.478.94q3.17,5.915,6.343,11.828,4.824,9,9.631,18c.323.608.535.766,1.163.347a10.262,10.262,0,0,1,2.047-.958,72.669,72.669,0,0,1,10.94-2.935,1.673,1.673,0,0,0,1.261-.96c2.765-5.2,5.559-10.39,8.337-15.586.845-1.581,1.664-3.177,2.494-4.767.448-.429.388-.708-.151-1.072a17.665,17.665,0,0,1-7.239-9.838.89.89,0,0,0-.733-.72A41.19,41.19,0,0,0,955.051-568.881Zm-34.3,43.736c5.651,0,11.3-.007,16.951.011a.965.965,0,0,0,1.1-.733,6.463,6.463,0,0,1,1.029-1.9,1.369,1.369,0,0,0,.063-1.771q-8.34-15.487-16.62-31.007c-.413-.775-.69-.708-1.3-.263a46.644,46.644,0,0,0-9.839,9.634,45.742,45.742,0,0,0-9.179,25.216c-.045.708.205.829.84.827C909.453-525.154,915.1-525.146,920.754-525.146Z" fill="#030302"/>
    <path id="Trazado_166029" data-name="Trazado 166029" d="M919.694-379.612c-.261-1.184-.624-1.5-1.793-1.5-2.748-.007-5.5,0-8.244,0-1.5,0-2.072-.573-2.082-2.047,0-.726.053-1.458-.016-2.178-.071-.752.24-.9.916-.871,1.04.052,2.084.014,3.127.014,9.982,0,19.963.011,29.945-.019.83,0,1.1.2,1.051,1.046a9.8,9.8,0,0,0,.788,4.056H942.27q-8.481,0-16.962,0c-1.249,0-1.672.363-1.837,1.527A24.869,24.869,0,0,0,919.694-379.612Z" transform="translate(-4.639 -136.1)" fill="#6e8a95"/>
    <path id="Trazado_166030" data-name="Trazado 166030" d="M1111.577-469.731c-.775.957-.812,1.347-.109,2.352a45.214,45.214,0,0,1,7.794,19.691c.208,1.435.274,2.889.428,4.332.054.5-.047.745-.633.731-1.862-.044-3.725-.038-5.588-.051a31.279,31.279,0,0,0-.355-4.678,45.945,45.945,0,0,0-4.727-15.289,50.052,50.052,0,0,0-6.095-9.145,21.482,21.482,0,0,0,6.934-.831Z" transform="translate(-125.436 -82.506)" fill="#e74a80"/>
    <path id="Trazado_166031" data-name="Trazado 166031" d="M1010.158-496.655c-.831,1.589-1.649,3.185-2.494,4.767-2.777,5.2-5.571,10.383-8.337,15.586a1.673,1.673,0,0,1-1.261.96,72.675,72.675,0,0,0-10.94,2.935,10.265,10.265,0,0,0-2.047.958c-.628.419-.84.262-1.163-.347q-4.787-9.016-9.631-18-3.171-5.914-6.343-11.828c-.145-.271-.279-.548-.478-.94h1.127q9.992,0,19.983,0a5.45,5.45,0,0,0,5.729-4.478,3.84,3.84,0,0,0-.012-1.875c-.189-.633.085-.7.594-.625.655.095,1.313.169,1.97.253.07.1.128.27.21.281,1.01.137,1.3.861,1.6,1.713A15.963,15.963,0,0,0,1010.158-496.655Z" transform="translate(-41.803 -59.583)" fill="#b0e153"/>
    <path id="Trazado_166032" data-name="Trazado 166032" d="M925.47-452.463c-5.651,0-11.3-.009-16.951.013-.635,0-.885-.119-.84-.827a45.742,45.742,0,0,1,9.179-25.216,46.639,46.639,0,0,1,9.839-9.634c.611-.445.888-.513,1.3.263q8.27,15.525,16.62,31.007a1.369,1.369,0,0,1-.063,1.771,6.462,6.462,0,0,0-1.029,1.9.965.965,0,0,1-1.1.733C936.771-452.47,931.121-452.463,925.47-452.463Z" transform="translate(-4.716 -72.683)" fill="#6ebc42"/>
    <path id="Trazado_166033" data-name="Trazado 166033" d="M949.331-557.042c-.219.014-.439.042-.659.042q-18.985,0-37.971.007a2.747,2.747,0,0,1-2.837-1.622,2.762,2.762,0,0,1,.468-2.752q6.174-9.633,12.322-19.281,3.872-6.052,7.767-12.089c.09.288.355.328.587.415a4.115,4.115,0,0,1,2.168,1.849c.844,1.43,1.771,2.811,2.663,4.213.166.26.413.5.2.849a4.139,4.139,0,0,0-4.878-.881,4.2,4.2,0,0,0-2.4,4.252c.047,2.428,0,4.858.014,7.288a4.149,4.149,0,0,0,4.13,4.361,4.15,4.15,0,0,0,4.233-4.352c.013-2.366-.013-4.733.012-7.1a6.756,6.756,0,0,0-.41-2.59c.545-.042.568.48.751.764,4.475,6.95,8.908,13.926,13.4,20.867C950.1-560.923,950.7-559.08,949.331-557.042Zm-14.193-6.672a4.209,4.209,0,0,0-4.194-4.212,4.211,4.211,0,0,0-4.167,4.144,4.159,4.159,0,0,0,4.146,4.239A4.164,4.164,0,0,0,935.139-563.714Z" transform="translate(-4.71 -7.998)" fill="#eeaa6b"/>
    <path id="Trazado_166034" data-name="Trazado 166034" d="M1082.252-527.041c-6.1.447-10.907-1.9-14.111-7.031a14.111,14.111,0,0,1,.052-15.9c3.217-5.086,8.007-7.4,14.06-6.95.214.129.423.266.642.387a16.332,16.332,0,0,1,5.674,5.005,16.545,16.545,0,0,1,3,10.215,16.324,16.324,0,0,1-4.425,10.638A19,19,0,0,1,1082.252-527.041Zm-1.436-5.944a1.322,1.322,0,0,0,1.375-1.206c.047-.606.327-.81.8-1.078a4.491,4.491,0,0,0,2.474-4.446,4.1,4.1,0,0,0-2.932-3.7c-.763-.3-1.519-.611-2.261-.953-.462-.213-.934-.468-.791-1.122a1.274,1.274,0,0,1,1.279-1.05,2.928,2.928,0,0,1,1.917.665,1.375,1.375,0,0,0,2-.356,1.384,1.384,0,0,0-.423-1.988,7.011,7.011,0,0,0-1.306-.756c-.419-.183-.7-.346-.782-.882a1.275,1.275,0,0,0-1.426-1.114,1.273,1.273,0,0,0-1.31,1.244.878.878,0,0,1-.6.821,3.9,3.9,0,0,0-2.2,3.6,3.559,3.559,0,0,0,2.177,3.379,21.627,21.627,0,0,0,2.688,1.156,1.422,1.422,0,0,1,1.144,1.611,1.792,1.792,0,0,1-1.634,1.573,3.859,3.859,0,0,1-2.532-.549,1.358,1.358,0,0,0-1.976.439,1.433,1.433,0,0,0,.523,1.971,4.81,4.81,0,0,0,1.7.8c.424.092.677.224.734.762A1.316,1.316,0,0,0,1080.816-532.985Z" transform="translate(-102.746 -30.178)" fill="#f8e170"/>
    <path id="Trazado_166035" data-name="Trazado 166035" d="M1076.3-472.335a50.053,50.053,0,0,1,6.095,9.145,45.948,45.948,0,0,1,4.727,15.29,31.279,31.279,0,0,1,.355,4.678c-3.5.014-7,.033-10.5.04q-5.49.01-10.98,0h-1.068c.4-.651.718-1.181,1.041-1.709,1.183-1.935,2.354-3.878,3.555-5.8a2.741,2.741,0,0,0,.057-3.271,2.73,2.73,0,0,0-3.011-1.054c-2.034.4-4.085.715-6.118,1.064-.183-.388.076-.6.2-.824,3.237-6.054,6.494-12.1,9.718-18.159.3-.559.54-.69,1.154-.448A17.32,17.32,0,0,0,1076.3-472.335Z" transform="translate(-99.439 -81.96)" fill="#ea6292"/>
    <path id="Trazado_166036" data-name="Trazado 166036" d="M1015.285-395.147a8.159,8.159,0,0,1-7.553-5.448,8.493,8.493,0,0,1,2.587-9.324,14.142,14.142,0,0,1,5.256-2.255c4.423-1.271,8.938-2.151,13.451-3.03a5.409,5.409,0,0,1,.658-.049,1.333,1.333,0,0,1-.092.36q-4.071,6.895-8.7,13.426A32.336,32.336,0,0,1,1015.285-395.147Zm3.251-9.284a1.37,1.37,0,0,0-2.046-1.266,15.1,15.1,0,0,0-2.263,1.544,1.392,1.392,0,0,0,.425,2.379C1015.706-401.4,1018.515-403.322,1018.536-404.431Z" transform="translate(-66.484 -118.089)" fill="#def1f4"/>
    <path id="Trazado_166037" data-name="Trazado 166037" d="M983.24-560.344c1.366-2.038.773-3.881-.443-5.761-4.488-6.941-8.922-13.917-13.4-20.867-.183-.284-.206-.806-.751-.763l-.357-.572c.1-.3.093-.515-.322-.407h-.023c.213-.349-.034-.589-.2-.849-.892-1.4-1.82-2.783-2.663-4.213a4.115,4.115,0,0,0-2.168-1.849c-.231-.087-.5-.127-.587-.415a3.075,3.075,0,0,1,1.946-1.919,2.572,2.572,0,0,1,3.026,1.366q5.016,7.84,10.02,15.687,5.186,8.124,10.377,16.244a2.717,2.717,0,0,1,.33,3.005,2.724,2.724,0,0,1-2.711,1.36C984.624-560.316,983.932-560.329,983.24-560.344Z" transform="translate(-38.619 -4.696)" fill="#e8974c"/>
    <path id="Trazado_166038" data-name="Trazado 166038" d="M1086.134-381.236c-1.673.013-3.345.037-5.018.038q-11.27.006-22.531,0c-.147-.337.123-.486.254-.676a11.768,11.768,0,0,0,1.244-1.78c1.008-2.292,2.717-2.753,5.117-2.687,6.657.182,13.321.063,19.983.065.378,0,.756.023,1.134.036A24.452,24.452,0,0,1,1086.134-381.236Z" transform="translate(-98.298 -136.02)" fill="#6e8b96"/>
    <path id="Trazado_166039" data-name="Trazado 166039" d="M1109.271-526.952a19,19,0,0,0,4.89-3.641,16.323,16.323,0,0,0,4.425-10.638,16.546,16.546,0,0,0-3-10.215,16.331,16.331,0,0,0-5.674-5.005c-.219-.121-.428-.257-.642-.387a14.427,14.427,0,0,1,12.358,8.851,15.013,15.013,0,0,1-11.794,21.023A4.836,4.836,0,0,1,1109.271-526.952Z" transform="translate(-129.764 -30.266)" fill="#f4d652"/>
    <path id="Trazado_166040" data-name="Trazado 166040" d="M1028.406-396.459a32.342,32.342,0,0,0,5.6-6.321q4.623-6.535,8.7-13.426a1.329,1.329,0,0,0,.092-.36c1.389-.422,2.835-.507,4.24-.8.037.122.084.194.065.225a154.418,154.418,0,0,1-11.288,16.978,8.855,8.855,0,0,1-5.258,3.6A6.168,6.168,0,0,1,1028.406-396.459Z" transform="translate(-79.605 -116.778)" fill="#c1ebed"/>
    <path id="Trazado_166041" data-name="Trazado 166041" d="M1058.17-496.2a15.963,15.963,0,0,1-11.492-10.649c-.3-.852-.592-1.576-1.6-1.713-.081-.011-.14-.184-.21-.281a41.194,41.194,0,0,1,5.181,1.015.89.89,0,0,1,.733.72,17.665,17.665,0,0,0,7.239,9.838C1058.558-496.911,1058.618-496.631,1058.17-496.2Z" transform="translate(-89.815 -60.035)" fill="#a3d14c"/>
    <path id="Trazado_166042" data-name="Trazado 166042" d="M1131.206-381.144a24.443,24.443,0,0,0,.184-5c1.892-.014,3.784-.02,5.675-.05.452-.007.611.16.6.607-.023.945.019,1.893-.017,2.838a1.6,1.6,0,0,1-1.619,1.635C1134.422-381.089,1132.814-381.131,1131.206-381.144Z" transform="translate(-143.371 -136.113)" fill="#59747e"/>
    <path id="Trazado_166043" data-name="Trazado 166043" d="M965.579-575.208l.357.572a6.752,6.752,0,0,1,.41,2.59c-.025,2.366,0,4.732-.012,7.1A4.15,4.15,0,0,1,962.1-560.6a4.149,4.149,0,0,1-4.13-4.361c-.011-2.429.033-4.86-.014-7.288a4.2,4.2,0,0,1,2.4-4.252,4.139,4.139,0,0,1,4.878.881l.024,0Zm-2.088,6.538c0-1.262.008-2.523,0-3.785-.009-1-.518-1.607-1.328-1.612s-1.339.6-1.343,1.6q-.015,3.737,0,7.474c0,1.011.523,1.572,1.373,1.55.811-.022,1.284-.562,1.3-1.533C963.5-566.21,963.49-567.44,963.491-568.67Z" transform="translate(-35.905 -17.796)" fill="#030302"/>
    <path id="Trazado_166044" data-name="Trazado 166044" d="M966.361-523.182a4.164,4.164,0,0,1-4.215,4.172A4.159,4.159,0,0,1,958-523.25a4.211,4.211,0,0,1,4.167-4.144A4.209,4.209,0,0,1,966.361-523.182Zm-2.85-.01a1.37,1.37,0,0,0-1.305-1.351,1.366,1.366,0,0,0-1.354,1.3,1.282,1.282,0,0,0,1.35,1.365A1.278,1.278,0,0,0,963.51-523.193Z" transform="translate(-35.933 -48.53)" fill="#030302"/>
    <path id="Trazado_166045" data-name="Trazado 166045" d="M1098.084-523.168a1.316,1.316,0,0,1-1.367-1.181c-.058-.538-.31-.67-.734-.762a4.81,4.81,0,0,1-1.7-.8,1.433,1.433,0,0,1-.523-1.971,1.358,1.358,0,0,1,1.976-.439,3.86,3.86,0,0,0,2.532.549,1.793,1.793,0,0,0,1.634-1.573,1.422,1.422,0,0,0-1.144-1.612,21.6,21.6,0,0,1-2.688-1.155,3.559,3.559,0,0,1-2.177-3.379,3.9,3.9,0,0,1,2.2-3.6.878.878,0,0,0,.6-.821,1.273,1.273,0,0,1,1.31-1.244,1.275,1.275,0,0,1,1.426,1.114c.087.536.363.7.782.882a7.024,7.024,0,0,1,1.306.756,1.384,1.384,0,0,1,.423,1.988,1.375,1.375,0,0,1-2,.356,2.928,2.928,0,0,0-1.917-.665,1.274,1.274,0,0,0-1.278,1.049c-.142.654.329.91.791,1.122.743.342,1.5.658,2.261.953a4.1,4.1,0,0,1,2.932,3.7,4.491,4.491,0,0,1-2.474,4.446c-.475.268-.755.472-.8,1.078A1.322,1.322,0,0,1,1098.084-523.168Z" transform="translate(-120.014 -39.994)" fill="#030302"/>
    <path id="Trazado_166046" data-name="Trazado 166046" d="M1029.109-389.118c-.02,1.109-2.83,3.032-3.885,2.658a1.392,1.392,0,0,1-.424-2.379,15.1,15.1,0,0,1,2.263-1.544A1.37,1.37,0,0,1,1029.109-389.118Z" transform="translate(-77.057 -133.403)" fill="#030302"/>
    <path id="Trazado_166047" data-name="Trazado 166047" d="M977.508-573.086l-.322-.409C977.6-573.6,977.6-573.383,977.508-573.086Z" transform="translate(-47.834 -19.918)" fill="#eeaa6b"/>
    <path id="Trazado_166048" data-name="Trazado 166048" d="M968.155-563.972c0,1.23.011,2.46,0,3.69-.012.971-.485,1.511-1.3,1.533-.85.022-1.368-.539-1.373-1.55q-.018-3.737,0-7.474c0-1,.531-1.6,1.343-1.6s1.319.61,1.327,1.612C968.163-566.495,968.155-565.233,968.155-563.972Z" transform="translate(-40.569 -22.494)" fill="#6e8a95"/>
    <path id="Trazado_166049" data-name="Trazado 166049" d="M968.167-518.536a1.278,1.278,0,0,1-1.309,1.314,1.282,1.282,0,0,1-1.35-1.365,1.366,1.366,0,0,1,1.354-1.3A1.37,1.37,0,0,1,968.167-518.536Z" transform="translate(-40.589 -53.186)" fill="#6e8a95"/>
  </g>
</svg>
