<svg xmlns="http://www.w3.org/2000/svg" width="97.07" height="97.087" viewBox="0 0 97.07 97.087">
  <g id="Grupo_109151" data-name="Grupo 109151" transform="translate(-802.742 129.486)">
    <path id="Trazado_166252" data-name="Trazado 166252" d="M802.743-79.353q0-12.637,0-25.274c0-3.494,1.941-5.428,5.446-5.428,8.729,0,17.457-.015,26.185.022.871,0,1.047-.191.914-1.034a15.222,15.222,0,0,1,1.773-9.846c.3-.552.293-.84-.238-1.221-1.667-1.2-3.3-2.44-4.933-3.69a1.962,1.962,0,0,0-1.292-.417c-3.606.017-7.212-.012-10.817.028-.713.008-.889-.173-.879-.881.034-2.372,0-2.373,2.4-2.373,3.37,0,6.74.011,10.11-.009a2.714,2.714,0,0,1,1.767.587c1.842,1.415,3.727,2.774,5.56,4.2.51.4.776.338,1.225-.1a16.005,16.005,0,0,1,22.555-.07c.508.493.788.582,1.379.113,1.765-1.4,3.6-2.712,5.4-4.083a2.86,2.86,0,0,1,1.85-.647c3.875.025,7.751.032,11.626-.006.7-.007.9.159.885.876-.034,2.378,0,2.378-2.4,2.378-3.066,0-6.133.012-9.2-.011a2.219,2.219,0,0,0-1.475.478q-2.4,1.856-4.843,3.643c-.451.329-.6.562-.293,1.123a15.338,15.338,0,0,1,1.81,10.037c-.125.779.061.929.827.926,8.762-.029,17.524-.019,26.286-.018,3.5,0,5.443,1.941,5.443,5.433q0,25.325,0,50.649c0,3.425-1.964,5.39-5.386,5.391q-15.418,0-30.836-.014c-.736,0-1.054.107-1.01.954.081,1.546.058,3.1.007,4.649-.023.677.111.943.857.9,1.243-.069,2.493,0,3.74-.025a1.956,1.956,0,0,1,1.722.856c1.5,2.028,3.028,4.042,4.547,6.059a1.658,1.658,0,0,1,.3,1.873A1.739,1.739,0,0,1,872-32.4q-20.725-.009-41.451,0a1.728,1.728,0,0,1-1.749-.937,1.659,1.659,0,0,1,.313-1.87c1.521-2.016,3.043-4.03,4.546-6.058a1.949,1.949,0,0,1,1.723-.852c1.213.023,2.428-.036,3.639.022.714.034,1-.1.957-.907-.078-1.512-.072-3.034,0-4.547.037-.812-.14-1.059-1.014-1.056-10.211.036-20.422.024-30.634.023-3.693,0-5.582-1.895-5.582-5.6Q802.742-66.766,802.743-79.353Zm40.479,34.01c-.011.806.019,1.616-.046,2.419-.055.673.184.833.835.828,4.1-.029,8.209,0,12.313-.024.995-.006,2.4.447,2.876-.194.5-.672.126-1.992.133-3.029.011-.773-.029-1.551.047-2.318s-.184-.947-.937-.939c-4.07.04-8.142.005-12.212.028-.994.005-2.4-.448-2.875.2C842.857-47.7,843.23-46.38,843.222-45.343Zm48.1-61.443c-7.873-.011-15.747.011-23.62-.068-1.27-.013-2.037.282-2.3,1.549-.152.218-.311.432-.455.656a16.129,16.129,0,0,1-20.262,6.114,16.781,16.781,0,0,1-7.522-6.766c-.266-1.266-1.03-1.562-2.3-1.553-8.791.065-17.584.034-26.375.034-2.117,0-2.5.391-2.5,2.548q0,14.753,0,29.507c0,2.8.021,5.59.032,8.385-.011,1.246.041,2.5-.054,3.736-.072.94.245,1.141,1.151,1.141q44.173-.037,88.346,0c.927,0,1.144-.239,1.142-1.15q-.046-20.923-.022-41.846c0-.2.007-.4,0-.606a1.61,1.61,0,0,0-1.717-1.706C893.678-106.833,892.5-106.8,891.32-106.786Zm-39.971,48.5H833.555q-13.345,0-26.69-.015c-.679,0-.953.121-.9.864.069,1.04.017,2.088.017,3.133,0,2.08.4,2.489,2.462,2.489h62.782q11.576,0,23.152,0c1.669,0,2.2-.515,2.2-2.144,0-1.045-.066-2.095.02-3.132.079-.94-.154-1.224-1.168-1.221Q873.388-58.255,851.349-58.287Zm-9.338-63.992c.661.5,1.224.924,1.788,1.348,2.055,1.546,2.037,1.532.434,3.577-.349.445-.554.418-.945.1-.785-.633-1.645-1.177-2.4-1.841-.658-.577-.953-.508-1.332.3a12.985,12.985,0,0,0,4,15.909,12.934,12.934,0,0,0,16.37-.77,12.518,12.518,0,0,0,3.847-6.4c-4,0-7.9,0-11.809,0-1.838,0-2.3-.472-2.3-2.343,0-4.31-.015-8.62.016-12.93,0-.662-.179-.812-.793-.68A13.117,13.117,0,0,0,842.011-122.28Zm-8.365,86.561H869c-.641-.861-1.238-1.587-1.747-2.37a1.636,1.636,0,0,0-1.571-.8c-8.793.027-17.585.017-26.378.017-3.579,0-3.579,0-5.607,2.976A1.02,1.02,0,0,0,833.646-35.718Zm19.249-84c0,1.92.017,3.841-.012,5.76-.008.53.147.686.68.683q5-.034,10.005,0c.558,0,.685-.192.645-.7a13.97,13.97,0,0,0-1.386-5.128c-.257-.521-.472-.506-.884-.173-.786.634-1.68,1.147-2.4,1.844-.845.818-1.291.248-1.531-.411-.248-.68-1.971-1.105-.462-2.173.851-.6,1.655-1.273,2.508-1.873.405-.285.452-.476.07-.827a13.261,13.261,0,0,0-6.486-3.29c-.545-.11-.774,0-.761.629C852.92-123.5,852.9-121.609,852.9-119.722Z" fill="#010101"/>
    <path id="Trazado_166253" data-name="Trazado 166253" d="M994.485-113.5c2.426,0,4.852.028,7.277-.018.688-.013.815.21.812.843-.012,2.41.01,2.41-2.358,2.41-4.313,0-8.626-.024-12.938.022-.785.008-.929-.22-.916-.948.041-2.309.009-2.31,2.361-2.31Z" transform="translate(-109.218 -9.499)"/>
    <path id="Trazado_166254" data-name="Trazado 166254" d="M826.779-113.49c2.46,0,4.919.018,7.378-.013.57-.007.719.151.726.721.029,2.528.049,2.527-2.445,2.527-4.312,0-8.625-.015-12.937.016-.658,0-.833-.164-.829-.825.015-2.425-.012-2.426,2.446-2.426Z" transform="translate(-9.475 -9.507)"/>
    <path id="Trazado_166255" data-name="Trazado 166255" d="M976.8-94.3c-1.886,0-3.774-.017-5.66.011-.53.008-.748-.075-.757-.69-.034-2.556-.059-2.556,2.519-2.556,3.167,0,6.334.034,9.5-.023.835-.015.972.261.958,1.006-.042,2.252-.013,2.252-2.215,2.252Z" transform="translate(-99.709 -18.99)"/>
    <path id="Trazado_166256" data-name="Trazado 166256" d="M849.028-94.286c-1.853,0-3.707-.025-5.559.014-.629.013-.852-.117-.846-.808.017-2.441-.013-2.442,2.432-2.442,3.234,0,6.469.016,9.7-.014.628-.006.851.116.846.808-.017,2.441.013,2.441-2.433,2.441Z" transform="translate(-23.721 -19.005)"/>
    <path id="Trazado_166257" data-name="Trazado 166257" d="M1013.588-97.526c.842,0,1.686.039,2.525-.013.6-.038.7.189.709.737.026,2.512.044,2.512-2.457,2.512-1.111,0-2.224-.035-3.333.014-.6.026-.7-.19-.709-.737-.026-2.512-.044-2.512,2.456-2.512Z" transform="translate(-123.468 -19)"/>
    <path id="Trazado_166258" data-name="Trazado 166258" d="M821.87-94.28c-.842,0-1.685-.023-2.526.009-.49.019-.685-.078-.7-.645-.064-2.6-.086-2.6,2.474-2.6,1.111,0,2.224.02,3.334-.009.489-.013.684.078.7.645.064,2.6.086,2.6-2.474,2.6Z" transform="translate(-9.449 -19.01)"/>
    <path id="Trazado_166259" data-name="Trazado 166259" d="M1013.517-126.222c-.842,0-1.685-.026-2.526.01-.5.021-.679-.1-.692-.652-.06-2.594-.082-2.593,2.479-2.593,1.111,0,2.223.022,3.334-.01.5-.015.679.1.692.652.061,2.594.082,2.593-2.479,2.593Z" transform="translate(-123.447 -0.011)"/>
    <path id="Trazado_166260" data-name="Trazado 166260" d="M822.009-126.229c-.876,0-1.753-.038-2.626.013-.6.035-.7-.187-.71-.736-.027-2.513-.044-2.513,2.456-2.513,1.111,0,2.224.035,3.333-.014.595-.026.7.188.71.736.026,2.513.044,2.513-2.455,2.513Z" transform="translate(-9.473 -0.004)"/>
    <path id="Trazado_166261" data-name="Trazado 166261" d="M972.148-113.471c1.525,0,1.525,0,1.525,1.508,0,1.727,0,1.727-1.71,1.727-1.525,0-1.525,0-1.525-1.508C970.438-113.471,970.438-113.471,972.148-113.471Z" transform="translate(-99.747 -9.526)"/>
    <path id="Trazado_166262" data-name="Trazado 166262" d="M866.627-111.946c0-1.525,0-1.525,1.508-1.525,1.727,0,1.727,0,1.727,1.71,0,1.525,0,1.525-1.509,1.525C866.627-110.236,866.627-110.236,866.627-111.946Z" transform="translate(-37.999 -9.526)"/>
    <path id="Trazado_166263" data-name="Trazado 166263" d="M870.147-72.081c.266-1.267,1.032-1.562,2.3-1.549,7.873.079,15.747.056,23.62.068.581,1,.366,2.1.4,3.167-1.447.011-2.9.06-4.341.02a2.4,2.4,0,0,0-2.086.972c-2.24,2.733-4.526,5.429-6.769,8.16a1.455,1.455,0,0,1-1.272.6c-2.592-.029-5.185.01-7.777-.024a2,2,0,0,0-2.056,1.284c-.691,1.494-1.494,2.936-2.178,4.432a1.172,1.172,0,0,1-1.311.782c-1.243-.056-2.491-.016-3.737-.016-2.524,0-2.5,0-2.462,2.523.009.577.166.734.736.727q3.535-.046,7.07,0a1.907,1.907,0,0,0,1.912-1.195c.681-1.425,1.445-2.812,2.085-4.255a1.5,1.5,0,0,1,1.654-1.056c2.32.078,4.646-.006,6.968.041a2.594,2.594,0,0,0,2.257-1.042c2.233-2.739,4.524-5.431,6.772-8.158a1.236,1.236,0,0,1,1.1-.531c1.143.042,2.288.032,3.432.043q0,4.82,0,9.64-2.922.016-5.843.032c-1.767.007-2.241.487-2.244,2.289q-.016,9.17-.032,18.339a13.519,13.519,0,0,1-3.169,1.816c-.011-.369-.032-.738-.032-1.107q0-7.972,0-15.944c0-1.64-.523-2.153-2.181-2.156q-2.573,0-5.147,0c-1.934,0-2.375.441-2.379,2.361q-.015,9.333-.032,18.667h-3.171q-.016-6.252-.033-12.5c-.005-1.5-.558-2.047-2.079-2.052q-2.724-.009-5.447,0c-1.658,0-2.175.513-2.179,2.154q-.018,6.2-.032,12.4h-6.406c-.085-1.615-.085-1.615-1.765-1.615H835.109c-1.68,0-1.68,0-1.765,1.615h-3.169c-.084-1.615-.084-1.615-1.763-1.615H815.694c-1.679,0-1.679,0-1.763,1.615h-3.169c-.011-2.8-.03-5.59-.032-8.385q-.006-14.753,0-29.507c0-2.157.384-2.548,2.5-2.548,8.791,0,17.584.031,26.375-.034,1.273-.009,2.036.287,2.3,1.553a13.554,13.554,0,0,0,5.261,8.4,15.618,15.618,0,0,0,7.038,2.99q-4.387.016-8.775.031c-2.381.005-2.356,0-2.362,2.417,0,.654.166.844.831.835,2.992-.036,5.986,0,8.978-.025,1.029-.009,2.442.456,2.98-.2.515-.624.137-1.984.151-3.02a12.264,12.264,0,0,0,1.512-.039,14.717,14.717,0,0,0,11.121-7.28A9.62,9.62,0,0,0,870.147-72.081ZM825.29-65.791c0-.842,0-1.684,0-2.526-.011-1.5-.614-2.08-2.1-2.03a9.714,9.714,0,0,0-9.024,11.669,9.773,9.773,0,0,0,10.279,7.706,9.766,9.766,0,0,0,8.919-9.247c.042-1.422-.547-2.043-1.974-2.05-1.718-.009-3.438-.055-5.153.02-.842.036-1.016-.265-.962-1.015C825.336-64.1,825.29-64.949,825.29-65.791Zm15.345,21.315h13.23c2.167,0,2.127,0,2.183-2.2.021-.816-.157-1.062-1.025-1.058-9.157.036-18.313.022-27.47.022-2.276,0-2.228,0-2.289,2.3-.023.865.31.953,1.03.949C831.074-44.49,835.854-44.477,840.635-44.477Zm-13.62,3.235h-10.8c-2.251,0-2.207,0-2.268,2.216-.023.844.2,1.045,1.043,1.041,7.506-.036,15.012-.021,22.517-.021,2.383,0,2.357,0,2.364-2.419,0-.66-.177-.837-.836-.832C835.026-41.226,831.02-41.241,827.015-41.241ZM846.3-50.948h7.469c2.27,0,2.238,0,2.275-2.3.012-.734-.147-.957-.925-.951-5.383.038-10.766.02-16.149.02-2.39,0-2.354,0-2.379,2.406-.008.765.278.851.928.844C840.447-50.966,843.374-50.948,846.3-50.948Zm3.25,12.942h4.135c2.377,0,2.351,0,2.357-2.42,0-.661-.179-.838-.836-.831-3.227.034-6.455.015-9.683.015-2.517,0-2.5,0-2.456,2.521.009.574.161.737.733.727C845.719-38.027,847.635-38.006,849.552-38.006Zm-31.544-9.706H816.4c-2.51,0-2.49,0-2.446,2.526.01.575.175.733.737.721,1.645-.034,3.291-.012,4.937-.012,2.583,0,2.568,0,2.445-2.628-.023-.485-.159-.629-.635-.617C820.292-47.692,819.149-47.712,818.007-47.712ZM838.3-57.419c1.551,0,1.551,0,1.551-1.584,0-1.651,0-1.651-1.685-1.651-1.551,0-1.551,0-1.551,1.584C836.614-57.419,836.614-57.419,838.3-57.419Z" transform="translate(-4.75 -33.224)" fill="#67a3f7"/>
    <path id="Trazado_166264" data-name="Trazado 166264" d="M856.066,46.191q22.039,0,44.079-.027c1.014,0,1.247.28,1.168,1.221-.087,1.037-.017,2.088-.02,3.132-.006,1.629-.531,2.143-2.2,2.144q-11.576,0-23.152,0H813.158c-2.057,0-2.461-.409-2.462-2.489,0-1.045.052-2.092-.017-3.133-.049-.743.225-.865.9-.864q13.345.035,26.69.015Z" transform="translate(-4.717 -104.478)" fill="#c5c4c8"/>
    <path id="Trazado_166265" data-name="Trazado 166265" d="M810.718-33.1h3.169c.085,1.62.085,1.62,1.763,1.62h12.718c1.679,0,1.679,0,1.763-1.62H833.3c.085,1.62.085,1.62,1.765,1.62h19.187c1.68,0,1.68,0,1.765-1.62h6.406c.336,1.269.755,1.613,2.022,1.618q2.863.012,5.725,0c1.268,0,1.682-.345,2.024-1.618h3.171a1.659,1.659,0,0,0,1.723,1.613c2.11.018,4.221.026,6.331,0a1.6,1.6,0,0,0,1.682-1.724c.024-.568.026-1.137.037-1.706a13.519,13.519,0,0,0,3.169-1.816c.011,1.109.017,2.218.034,3.327.019,1.325.592,1.917,1.9,1.925q2.926.021,5.852,0c1.37-.008,1.947-.591,1.948-1.982q.009-10.947,0-21.895c0-1.282-.343-1.7-1.618-2.037q0-4.82,0-9.64c1.622-.084,1.622-.084,1.622-1.551,0-1.668,0-1.668-1.622-1.752-.034-1.068.181-2.168-.4-3.167,1.179-.011,2.358-.047,3.536-.024a1.61,1.61,0,0,1,1.717,1.706c.01.2,0,.4,0,.606q0,20.923.022,41.846c0,.911-.215,1.151-1.142,1.15q-44.173-.039-88.346,0c-.906,0-1.223-.2-1.151-1.141C810.76-30.605,810.707-31.856,810.718-33.1Z" transform="translate(-4.706 -33.277)" fill="#4088f6"/>
    <path id="Trazado_166266" data-name="Trazado 166266" d="M894.253-117.238a13.117,13.117,0,0,1,6.872-3.729c.615-.132.8.018.793.68-.032,4.31-.017,8.62-.016,12.93,0,1.871.463,2.342,2.3,2.343,3.9,0,7.809,0,11.809,0a12.518,12.518,0,0,1-3.847,6.4,12.934,12.934,0,0,1-16.37.77,12.984,12.984,0,0,1-4-15.909c.379-.808.674-.877,1.332-.3.757.664,1.617,1.208,2.4,1.841.391.315.6.342.945-.1,1.6-2.045,1.621-2.031-.434-3.577C895.477-116.314,894.914-116.74,894.253-117.238Z" transform="translate(-52.241 -5.041)" fill="#f8dc6c"/>
    <path id="Trazado_166267" data-name="Trazado 166267" d="M879.011,97.271a1.024,1.024,0,0,1,.053-.18c2.028-2.976,2.028-2.976,5.607-2.976,8.793,0,17.585.009,26.378-.017a1.636,1.636,0,0,1,1.571.8c.509.784,1.106,1.51,1.747,2.37Z" transform="translate(-45.365 -132.99)" fill="#c5c4c8"/>
    <path id="Trazado_166268" data-name="Trazado 166268" d="M926.5-114.673c0-1.887.024-3.774-.014-5.659-.013-.628.216-.739.761-.629a13.262,13.262,0,0,1,6.486,3.29c.382.351.335.542-.071.827-.853.6-1.657,1.271-2.508,1.873-1.509,1.067.214,1.493.462,2.173.241.658.686,1.229,1.531.411.72-.7,1.615-1.21,2.4-1.844.412-.333.628-.348.884.173a13.972,13.972,0,0,1,1.386,5.128c.04.509-.087.7-.645.7q-5-.037-10.005,0c-.533,0-.688-.153-.68-.683C926.514-110.832,926.5-112.753,926.5-114.673Z" transform="translate(-73.601 -5.049)" fill="#ec7f5e"/>
    <path id="Trazado_166269" data-name="Trazado 166269" d="M899.975-58.411a15.618,15.618,0,0,1-7.038-2.99,13.554,13.554,0,0,1-5.261-8.4,16.781,16.781,0,0,0,7.522,6.766,16.129,16.129,0,0,0,20.262-6.114c.144-.223.3-.437.455-.656a9.622,9.622,0,0,1-1.507,4.118,14.717,14.717,0,0,1-11.12,7.28,12.266,12.266,0,0,1-1.512.039Z" transform="translate(-50.52 -35.499)" fill="#3f87f3"/>
    <path id="Trazado_166270" data-name="Trazado 166270" d="M902.459,73.219c.008-1.037-.366-2.357.134-3.031.477-.645,1.881-.192,2.875-.2,4.071-.023,8.142.011,12.212-.028.753-.008,1.014.175.937.939s-.036,1.545-.047,2.318Z" transform="translate(-59.237 -118.561)" fill="#4088f6"/>
    <path id="Trazado_166271" data-name="Trazado 166271" d="M902.566,78.178h16.111c-.008,1.037.366,2.357-.133,3.029-.476.64-1.881.188-2.876.194-4.1.022-8.209-.005-12.313.024-.651,0-.89-.156-.835-.828C902.585,79.794,902.554,78.984,902.566,78.178Z" transform="translate(-59.344 -123.521)" fill="#67a3f7"/>
    <path id="Trazado_166272" data-name="Trazado 166272" d="M1010.418-33.7c1.276.341,1.617.755,1.618,2.037q.006,10.947,0,21.895c0,1.391-.578,1.974-1.948,1.982q-2.926.017-5.853,0c-1.31-.009-1.883-.6-1.9-1.925-.016-1.109-.023-2.218-.034-3.327q.016-9.169.032-18.339c0-1.8.477-2.282,2.244-2.289Q1007.5-33.681,1010.418-33.7Zm-1.648,4.889c.084-1.621.084-1.621-1.485-1.621h-.2c-1.568,0-1.568,0-1.485,1.621q-.016,7.673-.033,15.346c0,2.609,0,2.594,2.628,2.461.491-.025.618-.173.616-.643Q1008.775-20.23,1008.77-28.812Z" transform="translate(-118.698 -56.974)" fill="#000001"/>
    <path id="Trazado_166273" data-name="Trazado 166273" d="M830.072-60.977c0,.842.046,1.688-.013,2.526-.053.75.121,1.052.962,1.015,1.715-.075,3.435-.03,5.153-.02,1.428.008,2.016.628,1.975,2.05a9.766,9.766,0,0,1-8.919,9.247,9.773,9.773,0,0,1-10.279-7.706,9.714,9.714,0,0,1,9.024-11.669c1.482-.049,2.086.532,2.1,2.03C830.077-62.661,830.072-61.819,830.072-60.977Zm-3.237-1.047A6.376,6.376,0,0,0,822.02-55.1a6.515,6.515,0,0,0,6.6,5.722c2.9-.062,5.76-2.382,5.936-4.844-1.918,0-3.835.008-5.751,0-1.381-.007-1.955-.583-1.962-1.966C826.828-58.106,826.835-60.022,826.835-62.023Z" transform="translate(-9.532 -38.038)" fill="#020202"/>
    <path id="Trazado_166274" data-name="Trazado 166274" d="M980.131-6.429c-.012.569-.013,1.138-.037,1.706A1.6,1.6,0,0,1,978.412-3c-2.11.029-4.22.021-6.331,0a1.659,1.659,0,0,1-1.723-1.613q.016-9.333.032-18.667c0-1.92.445-2.36,2.379-2.361q2.573,0,5.147,0c1.658,0,2.18.516,2.181,2.156q0,7.972,0,15.944C980.1-7.167,980.12-6.8,980.131-6.429Zm-6.472-14.349q-.016,6.06-.032,12.119c0,2.58,0,2.564,2.628,2.45.487-.021.62-.154.617-.632-.027-4.646-.031-9.291-.042-13.937.083-1.623.083-1.623-1.484-1.623h-.2C973.576-22.4,973.576-22.4,973.659-20.779Z" transform="translate(-99.699 -61.77)" fill="#000001"/>
    <path id="Trazado_166275" data-name="Trazado 166275" d="M972.429-65.645c1.622.084,1.622.084,1.622,1.752,0,1.467,0,1.467-1.622,1.551-1.144-.011-2.288,0-3.432-.043a1.236,1.236,0,0,0-1.1.531c-2.248,2.727-4.539,5.419-6.772,8.158a2.594,2.594,0,0,1-2.257,1.042c-2.323-.047-4.648.036-6.969-.041a1.5,1.5,0,0,0-1.654,1.056c-.64,1.442-1.4,2.83-2.085,4.255a1.907,1.907,0,0,1-1.912,1.195q-3.535-.037-7.07,0c-.57.008-.727-.15-.736-.727-.041-2.524-.062-2.523,2.462-2.523,1.246,0,2.494-.04,3.737.016a1.172,1.172,0,0,0,1.311-.782c.684-1.5,1.487-2.938,2.178-4.432a2,2,0,0,1,2.056-1.284c2.592.034,5.185,0,7.777.024a1.455,1.455,0,0,0,1.271-.6c2.243-2.731,4.528-5.427,6.769-8.16a2.4,2.4,0,0,1,2.086-.972C969.534-65.585,970.982-65.634,972.429-65.645Z" transform="translate(-80.709 -37.973)" fill="#010102"/>
    <path id="Trazado_166276" data-name="Trazado 166276" d="M948.188,4.888c-.342,1.274-.756,1.613-2.024,1.618q-2.862.012-5.724,0c-1.268-.005-1.686-.349-2.022-1.618q.016-6.2.032-12.4c0-1.641.521-2.151,2.179-2.154q2.724,0,5.447,0c1.521,0,2.074.548,2.079,2.052Q948.176-1.364,948.188,4.888Zm-3.3-9.69c.078-1.631.078-1.631-1.487-1.631h-.2c-1.565,0-1.565,0-1.487,1.631-.01,1.881-.026,3.761-.029,5.642,0,2.582,0,2.567,2.625,2.446.484-.022.624-.155.618-.633C944.9.169,944.9-2.316,944.89-4.8Z" transform="translate(-80.7 -71.267)" fill="#000001"/>
    <path id="Trazado_166277" data-name="Trazado 166277" d="M861.971-6.462c-4.78,0-9.561-.013-14.341.013-.72,0-1.052-.083-1.03-.949.061-2.3.013-2.3,2.289-2.3,9.157,0,18.314.014,27.47-.022.868,0,1.046.241,1.025,1.058-.056,2.2-.016,2.2-2.183,2.2Z" transform="translate(-26.086 -71.238)"/>
    <path id="Trazado_166278" data-name="Trazado 166278" d="M831.73,6.283c4.005,0,8.011.015,12.016-.015.659-.005.838.171.836.832-.007,2.419.019,2.419-2.364,2.419-7.506,0-15.011-.015-22.517.021-.839,0-1.066-.2-1.043-1.041.061-2.215.017-2.216,2.268-2.216Z" transform="translate(-9.466 -80.748)"/>
    <path id="Trazado_166279" data-name="Trazado 166279" d="M889.261,23.89c-.085,1.62-.085,1.62-1.765,1.62H868.31c-1.68,0-1.68,0-1.765-1.62.084-1.615.084-1.615,1.765-1.615H887.5C889.177,22.275,889.177,22.275,889.261,23.89Z" transform="translate(-37.95 -90.269)"/>
    <path id="Trazado_166280" data-name="Trazado 166280" d="M884.269-22.429c-2.927,0-5.855-.018-8.781.014-.65.007-.936-.078-.928-.844.026-2.405-.011-2.406,2.379-2.406,5.383,0,10.766.018,16.149-.02.778-.006.937.217.925.951-.037,2.3-.005,2.3-2.276,2.3Z" transform="translate(-42.718 -61.742)"/>
    <path id="Trazado_166281" data-name="Trazado 166281" d="M834.877,23.89c-.085,1.62-.085,1.62-1.763,1.62H820.4c-1.678,0-1.678,0-1.763-1.62.085-1.615.085-1.615,1.763-1.615h12.719C834.793,22.275,834.793,22.275,834.877,23.89Z" transform="translate(-9.451 -90.269)"/>
    <path id="Trazado_166282" data-name="Trazado 166282" d="M901.68-41.685l1.8.043c-.014,1.036.364,2.4-.151,3.02-.538.652-1.951.187-2.98.2-2.992.025-5.986-.011-8.978.025-.665.008-.833-.182-.831-.835.007-2.415-.019-2.411,2.362-2.417Q897.293-41.664,901.68-41.685Z" transform="translate(-52.225 -52.225)"/>
    <path id="Trazado_166283" data-name="Trazado 166283" d="M897.014,9.518c-1.916,0-3.833-.021-5.749.013-.572.01-.724-.154-.733-.727-.04-2.522-.061-2.521,2.456-2.521,3.228,0,6.456.019,9.683-.015.657-.007.838.169.836.831-.007,2.42.019,2.42-2.357,2.42Z" transform="translate(-52.213 -80.747)"/>
    <path id="Trazado_166284" data-name="Trazado 166284" d="M822.72-9.68c1.142,0,2.284.02,3.425-.009.476-.012.612.132.635.617.123,2.628.139,2.628-2.445,2.628-1.646,0-3.292-.022-4.937.012-.562.011-.726-.146-.737-.721-.043-2.527-.064-2.526,2.446-2.526Z" transform="translate(-9.463 -71.256)"/>
    <path id="Trazado_166285" data-name="Trazado 166285" d="M876.3-38.37c-1.685,0-1.685,0-1.685-1.651,0-1.584,0-1.584,1.551-1.584,1.685,0,1.685,0,1.685,1.651C877.849-38.37,877.849-38.37,876.3-38.37Z" transform="translate(-42.749 -52.273)"/>
    <path id="Trazado_166286" data-name="Trazado 166286" d="M1013.567-21.635q.016,8.582.042,17.164c0,.47-.125.618-.616.643-2.629.133-2.632.149-2.628-2.461q.013-7.673.033-15.346Z" transform="translate(-123.495 -64.151)" fill="#ec7f5e"/>
    <path id="Trazado_166287" data-name="Trazado 166287" d="M1013.574-24.014h-3.17c-.084-1.621-.084-1.621,1.485-1.621h.2C1013.658-25.635,1013.658-25.635,1013.574-24.014Z" transform="translate(-123.502 -61.772)" fill="#eb5d37"/>
    <path id="Trazado_166288" data-name="Trazado 166288" d="M831.537-56.867c0,2-.007,3.917,0,5.834.007,1.383.581,1.958,1.962,1.966,1.917.01,3.833,0,5.751,0-.175,2.463-3.034,4.782-5.936,4.844a6.515,6.515,0,0,1-6.6-5.722A6.375,6.375,0,0,1,831.537-56.867Z" transform="translate(-14.234 -43.195)" fill="#f8dc6c"/>
    <path id="Trazado_166289" data-name="Trazado 166289" d="M981.626-13.645c.011,4.646.016,9.291.042,13.937,0,.478-.13.611-.617.632-2.629.115-2.632.13-2.628-2.45q.011-6.06.032-12.119Z" transform="translate(-104.497 -68.903)" fill="#f8dc6c"/>
    <path id="Trazado_166290" data-name="Trazado 166290" d="M981.632-16.027h-3.17c-.083-1.623-.083-1.623,1.484-1.623h.2C981.716-17.65,981.716-17.65,981.632-16.027Z" transform="translate(-104.503 -66.521)" fill="#e3be40"/>
    <path id="Trazado_166291" data-name="Trazado 166291" d="M949.688,2.346c.01,2.485.01,4.971.04,7.456.006.477-.134.61-.618.633-2.627.121-2.63.136-2.625-2.446,0-1.881.019-3.761.029-5.642Z" transform="translate(-85.499 -78.415)" fill="#60d3dc"/>
    <path id="Trazado_166292" data-name="Trazado 166292" d="M949.693-.048h-3.174c-.078-1.631-.078-1.631,1.487-1.631h.2C949.771-1.679,949.771-1.679,949.693-.048Z" transform="translate(-85.504 -76.021)" fill="#419396"/>
  </g>
</svg>
