<svg id="Grupo_109152" data-name="Grupo 109152" xmlns="http://www.w3.org/2000/svg" width="57.47" height="57.162" viewBox="0 0 57.47 57.162">
  <path id="Trazado_166293" data-name="Trazado 166293" d="M858.815-39.988c1.425-1.711,2.75-3.3,4.078-4.9.559-.67,1.1-1.355,1.687-2a4.714,4.714,0,0,1,6.107-.841c.47.294.931.6,1.384.922a2.815,2.815,0,0,1,.642,4.206q-6.625,8.563-13.268,17.112a2.392,2.392,0,0,0-.634,1.879,3.634,3.634,0,0,1,0,.476c0,.951,0,.951.945,1.022.583.044.883.353.966,1q.461,3.628.92,7.257c.105.838-.277,1.266-1.143,1.267q-6.34.005-12.679,0-5.8,0-11.608,0c-.941,0-1.3-.421-1.186-1.336q.457-3.538.9-7.079c.111-.868.39-1.152,1.281-1.1.578.036.614-.191.661-.685a4.736,4.736,0,0,0-1.016-3.534,11.111,11.111,0,0,1-1.017-1.673c-.195-.367-.343-.434-.753-.236a13.133,13.133,0,0,1-15.406-2.766,12.7,12.7,0,0,1-3.121-13.094,12.844,12.844,0,0,1,9.659-9.085,12.825,12.825,0,0,1,7.381.351.6.6,0,0,0,.442.073c0-1.051.077-2.123-.015-3.182a3.88,3.88,0,0,1,5.731-3.806c0-.475,0-.918,0-1.362a3.784,3.784,0,0,1,5.469-3.484c.052.024.106.041.247.095,0-.5,0-.962,0-1.422a3.811,3.811,0,0,1,3.8-3.839A3.81,3.81,0,0,1,853.1-65.93c.007.456,0,.912,0,1.426.336-.125.633-.265.944-.348a3.783,3.783,0,0,1,4.766,3.675c.022,4.088.006,8.176.007,12.263ZM837.853-50.45l1.9,1.737c0-2.543.023-5.19-.012-7.838a1.832,1.832,0,0,0-1.891-1.744,1.872,1.872,0,0,0-1.9,1.873c-.021,1.447,0,2.895-.01,4.342a.5.5,0,0,0,.248.486C836.758-51.228,837.3-50.833,837.853-50.45Zm-.694,2.012-.131-.132a10.922,10.922,0,0,0-10.854-2.618A11.309,11.309,0,0,0,818-38.444a10.561,10.561,0,0,0,2.93,5.975l.132.132-.009-.007A10.928,10.928,0,0,0,831.842-29.1a11.325,11.325,0,0,0,8.728-12.862,10.639,10.639,0,0,0-3.418-6.488Zm16.89,26.306c.832.006,1.664,0,2.5.025.282.007.378-.075.37-.364-.019-.693.017-1.388-.013-2.081a1.874,1.874,0,0,1,.437-1.306q4.238-5.439,8.446-10.9,2.674-3.454,5.349-6.908c.442-.571.462-1.093-.016-1.464a9.18,9.18,0,0,0-1.9-1.216,2.407,2.407,0,0,0-1.957-.059,2.43,2.43,0,0,0-1.434.979q-3.5,4.2-7,8.4a1.476,1.476,0,0,1-1.266.627c-.891-.031-1.784-.024-2.676,0a3.834,3.834,0,0,0-3.538,2.7c-.113.363.029.9-.3,1.063a3.1,3.1,0,0,1-1.232.04.338.338,0,0,0-.059,0c-.4.073-.492-.107-.461-.487a5.781,5.781,0,0,1,4.644-5.127,14.175,14.175,0,0,1,2.55-.094c.336,0,.433-.094.426-.429-.026-1.129-.021-2.259-.027-3.388.006-.435.019-.871.019-1.306q0-8.8,0-17.593A1.879,1.879,0,0,0,855-63.059a1.859,1.859,0,0,0-1.9,1.929c-.013,1.409,0,2.818,0,4.227q0,7.115,0,14.231c0,.345.026.616-.471.563a14.228,14.228,0,0,0-1.427-.018q-.007-5.468-.012-10.935,0-6.359,0-12.718a1.88,1.88,0,0,0-1.905-2.042,1.87,1.87,0,0,0-1.9,2.048q-.005,6.937,0,13.873c0,3.1-.005,6.193.007,9.289,0,.362-.054.54-.473.5-.473-.042-.952-.015-1.428-.017,0-.574-.012-1.148-.012-1.722q0-8.585,0-17.169a1.879,1.879,0,0,0-1.905-2.04,1.869,1.869,0,0,0-1.9,2.046q-.005,7.706-.006,15.412a2.682,2.682,0,0,0,.173.923,12.885,12.885,0,0,1,.607,6.614,13.078,13.078,0,0,1-4.948,8.329c-.256.2-.305.344-.124.621.348.529.608,1.122,1,1.614a6.108,6.108,0,0,1,1.392,4.854c-.008.058.007.12,0,.178-.045.293.087.362.366.361Q847.087-22.129,854.049-22.132Zm-5.733,7.641h3.271c2.518,0,5.036,0,7.554-.005.207,0,.542.161.472-.334q-.346-2.472-.628-4.951c-.042-.371-.184-.432-.519-.431q-10.142.014-20.282,0c-.366,0-.461.115-.5.454-.173,1.535-.331,3.074-.584,4.6-.105.634.078.69.628.686C841.258-14.5,844.787-14.492,848.316-14.492Z" transform="translate(-815.913 69.747)" fill="#020202"/>
  <path id="Trazado_166294" data-name="Trazado 166294" d="M878.945-40.129c.006,1.129,0,2.259.027,3.388.007.335-.09.43-.426.429a14.176,14.176,0,0,0-2.55.094,5.781,5.781,0,0,0-4.644,5.127c-.031.38.057.56.461.487a.337.337,0,0,1,.059,0,3.1,3.1,0,0,0,1.232-.04c.33-.16.188-.7.3-1.063a3.834,3.834,0,0,1,3.538-2.7c.892-.021,1.785-.029,2.676,0a1.476,1.476,0,0,0,1.266-.627q3.491-4.21,7-8.4a2.43,2.43,0,0,1,1.434-.979c.116.229.359.3.548.44a1.967,1.967,0,0,1,.387,2.735q-3.6,4.618-7.194,9.247-3.247,4.182-6.489,8.37a1.854,1.854,0,0,0-.48,1.341c.053.709.012,1.425.011,2.139q-6.961.01-13.922.025c-.279,0-.411-.068-.366-.361.009-.058-.006-.12,0-.178a6.107,6.107,0,0,0-1.392-4.854c-.392-.492-.652-1.086-1-1.614-.181-.276-.132-.419.124-.621a13.078,13.078,0,0,0,4.948-8.329,12.886,12.886,0,0,0-.607-6.614,2.683,2.683,0,0,1-.173-.923q.01-7.706.006-15.412a1.869,1.869,0,0,1,1.9-2.046q0,4.942,0,9.883c0,3.493.006,6.985-.008,10.478,0,.425.09.626.557.586s.912-.013,1.369-.015c.476,0,.955-.025,1.428.017.419.037.474-.14.473-.5-.013-3.1-.007-6.192-.007-9.289q0-6.937,0-13.873a1.87,1.87,0,0,1,1.9-2.048q0,9.7,0,19.409c0,1.9.011,3.81-.008,5.715,0,.425.09.626.558.586s.912-.013,1.368-.015a14.227,14.227,0,0,1,1.427.018c.5.053.471-.218.471-.563q-.01-7.116,0-14.231c0-1.409-.01-2.819,0-4.227a1.859,1.859,0,0,1,1.9-1.929q0,9.809,0,19.618c0,1.321,0,1.321,1.291,1.321Z" transform="translate(-837.969 67.759)" fill="#f8daaf"/>
  <path id="Trazado_166295" data-name="Trazado 166295" d="M822.939-13.786a10.561,10.561,0,0,1-2.93-5.975,11.309,11.309,0,0,1,8.178-12.745,10.922,10.922,0,0,1,10.854,2.618l.131.132-.006-.008a1.518,1.518,0,0,0,.129.749,12.375,12.375,0,0,1,.376,5.7,18.63,18.63,0,0,1-1.122,3.59c-.511-.5-1.01-1.006-1.54-1.48-.275-.247-.272-.4,0-.653.748-.71,1.47-1.448,2.195-2.182.614-.622.625-1.081.026-1.685q-1.865-1.881-3.746-3.745a1,1,0,0,0-1.647.007c-.735.724-1.471,1.447-2.184,2.193-.259.271-.414.314-.7.013-.7-.753-1.446-1.472-2.181-2.2a1.017,1.017,0,0,0-1.69.012q-1.858,1.846-3.7,3.7a1,1,0,0,0,0,1.682c.711.72,1.411,1.452,2.154,2.137.346.319.3.491-.017.785-.724.678-1.412,1.393-2.111,2.1-.641.647-.646,1.085-.01,1.723q1.826,1.835,3.661,3.661c.655.652,1.1.646,1.774-.019q1.1-1.09,2.187-2.19c.175-.179.3-.281.521-.042.51.552,1.043,1.084,1.566,1.623-.129.045-.263.083-.388.137a12.357,12.357,0,0,1-7.3.984,15.155,15.155,0,0,0-2.354-.5l.009.006Z" transform="translate(-817.926 51.065)" fill="#f7db6b"/>
  <path id="Trazado_166296" data-name="Trazado 166296" d="M870.176,36.681c-3.529,0-7.058-.011-10.587.012-.55,0-.733-.052-.628-.686.253-1.523.411-3.062.584-4.6.038-.339.133-.455.5-.454q10.141.019,20.282,0c.334,0,.477.06.519.431q.279,2.48.628,4.951c.069.495-.265.333-.472.334-2.518.008-5.036.005-7.554.005Z" transform="translate(-837.773 18.575)" fill="#67a3f7"/>
  <path id="Trazado_166297" data-name="Trazado 166297" d="M841.842-16.4a18.63,18.63,0,0,0,1.122-3.59,12.374,12.374,0,0,0-.376-5.7,1.518,1.518,0,0,1-.129-.749,10.638,10.638,0,0,1,3.418,6.488,11.325,11.325,0,0,1-8.728,12.862,10.928,10.928,0,0,1-10.793-3.246,15.153,15.153,0,0,1,2.353.5,12.357,12.357,0,0,0,7.3-.984c.125-.054.259-.091.388-.137.271.256.54.516.815.767a.947.947,0,0,0,1.466.007q1.984-1.953,3.938-3.938a.948.948,0,0,0-.009-1.466C842.357-15.861,842.1-16.129,841.842-16.4Z" transform="translate(-821.22 47.741)" fill="#f5ca45"/>
  <path id="Trazado_166298" data-name="Trazado 166298" d="M893.432,1.8c0-.713.042-1.429-.011-2.139a1.854,1.854,0,0,1,.481-1.341q3.251-4.18,6.488-8.37,3.592-4.627,7.194-9.247a1.967,1.967,0,0,0-.387-2.735c-.189-.135-.432-.211-.548-.44a2.407,2.407,0,0,1,1.957.059,9.181,9.181,0,0,1,1.9,1.216c.478.371.458.893.016,1.464q-2.674,3.454-5.349,6.908-4.22,5.451-8.446,10.9a1.874,1.874,0,0,0-.437,1.306c.03.693-.006,1.388.013,2.081.008.29-.088.372-.37.364C895.1,1.8,894.264,1.8,893.432,1.8Z" transform="translate(-855.296 45.817)" fill="#f4c381"/>
  <path id="Trazado_166299" data-name="Trazado 166299" d="M885.677-40.139c-.456,0-.915-.023-1.368.015s-.562-.161-.558-.586c.02-1.9.009-3.81.008-5.715q0-9.7,0-19.409a1.88,1.88,0,0,1,1.905,2.042q.006,6.359,0,12.718Q885.668-45.606,885.677-40.139Z" transform="translate(-850.385 67.759)" fill="#f5c481"/>
  <path id="Trazado_166300" data-name="Trazado 166300" d="M874.057-35.217c-.456,0-.915-.023-1.369.015s-.559-.161-.557-.586c.014-3.493.008-6.985.008-10.478q0-4.942,0-9.883a1.879,1.879,0,0,1,1.905,2.04q.005,8.585,0,17.169C874.044-36.366,874.052-35.792,874.057-35.217Z" transform="translate(-844.48 62.837)" fill="#f5c481"/>
  <path id="Trazado_166301" data-name="Trazado 166301" d="M897.273-35.207l-.595,0c-1.291,0-1.291,0-1.291-1.321q0-9.809,0-19.618a1.879,1.879,0,0,1,1.905,2.042q.005,8.8,0,17.593C897.291-36.079,897.279-35.643,897.273-35.207Z" transform="translate(-856.297 62.837)" fill="#f5c481"/>
  <path id="Trazado_166302" data-name="Trazado 166302" d="M860.52-46.462a1.832,1.832,0,0,1,1.891,1.744c.034,2.647.012,5.294.012,7.838l-1.9-1.737Q860.52-42.54,860.52-46.462Z" transform="translate(-838.58 57.915)" fill="#f4c381"/>
  <path id="Trazado_166303" data-name="Trazado 166303" d="M858.551-46.462q0,3.922,0,7.845c-.551-.383-1.095-.778-1.657-1.144a.5.5,0,0,1-.248-.486c.007-1.447-.011-2.895.01-4.342A1.872,1.872,0,0,1,858.551-46.462Z" transform="translate(-836.61 57.915)" fill="#f7d9ae"/>
  <path id="Trazado_166304" data-name="Trazado 166304" d="M858.972-26.56l-.131-.132Z" transform="translate(-837.727 47.869)" fill="#f5ca45"/>
  <path id="Trazado_166305" data-name="Trazado 166305" d="M826.1,6.046l.132.131Z" transform="translate(-821.092 31.233)" fill="#f5ca45"/>
  <path id="Trazado_166306" data-name="Trazado 166306" d="M841.695-16.538c.256.271.515.539.766.815a.948.948,0,0,1,.009,1.466q-1.953,1.985-3.938,3.938a.947.947,0,0,1-1.466-.007c-.275-.251-.544-.511-.815-.767-.523-.54-1.056-1.071-1.566-1.623-.219-.239-.346-.136-.521.042q-1.085,1.1-2.187,2.19c-.671.665-1.119.671-1.774.019q-1.835-1.826-3.661-3.661c-.636-.638-.631-1.077.01-1.723.7-.7,1.387-1.419,2.111-2.1.312-.293.363-.466.017-.785-.744-.685-1.443-1.418-2.154-2.137a1,1,0,0,1,0-1.682q1.846-1.857,3.7-3.7a1.017,1.017,0,0,1,1.69-.012c.736.724,1.476,1.443,2.181,2.2.282.3.438.258.7-.013.713-.746,1.448-1.469,2.184-2.193a1,1,0,0,1,1.647-.007q1.882,1.864,3.746,3.745c.6.6.589,1.063-.026,1.685-.725.734-1.447,1.472-2.195,2.182-.269.256-.272.406,0,.653C840.684-17.543,841.183-17.033,841.695-16.538Zm-1.239-5.178a2.065,2.065,0,0,0-.155-.2c-.755-.759-1.519-1.511-2.267-2.277-.252-.258-.375-.046-.523.1-.718.712-1.433,1.429-2.151,2.141-.695.689-1.134.693-1.817.016-.733-.726-1.467-1.45-2.187-2.189-.212-.218-.355-.229-.573,0q-1.034,1.07-2.1,2.1c-.246.236-.237.384,0,.616.755.73,1.494,1.479,2.231,2.229.608.618.605,1.06-.008,1.683-.724.735-1.447,1.471-2.188,2.188-.243.235-.32.386-.031.658q1.062,1,2.063,2.061c.267.283.418.228.658-.021.7-.728,1.427-1.435,2.145-2.147.68-.674,1.1-.679,1.766-.016.733.725,1.471,1.448,2.188,2.188.227.234.373.265.615.012q1.006-1.054,2.061-2.062c.263-.251.272-.4,0-.659-.759-.727-1.494-1.479-2.231-2.23a.984.984,0,0,1,0-1.639c.724-.735,1.456-1.461,2.183-2.193C840.248-21.469,840.345-21.592,840.455-21.716Z" transform="translate(-821.072 47.878)" fill="#030201"/>
  <path id="Trazado_166307" data-name="Trazado 166307" d="M842.966-19.243c-.11.124-.208.246-.317.357-.726.732-1.459,1.458-2.183,2.193a.984.984,0,0,0,0,1.639c.737.75,1.471,1.5,2.231,2.23.268.256.259.408,0,.659q-1.056,1-2.061,2.062c-.242.253-.388.222-.615-.012-.718-.741-1.455-1.463-2.188-2.188-.67-.663-1.086-.658-1.766.016-.719.712-1.444,1.418-2.145,2.147-.24.249-.391.3-.658.021q-1-1.06-2.063-2.061c-.29-.272-.213-.423.03-.658.741-.717,1.464-1.453,2.188-2.188.614-.623.617-1.065.008-1.683-.737-.75-1.476-1.5-2.231-2.229-.24-.232-.249-.38,0-.616q1.073-1.03,2.1-2.1c.218-.226.36-.215.573,0,.72.739,1.454,1.463,2.187,2.189.683.677,1.123.672,1.817-.016.719-.712,1.433-1.429,2.151-2.141.148-.147.271-.359.523-.1.748.766,1.511,1.518,2.267,2.277A2.055,2.055,0,0,1,842.966-19.243Z" transform="translate(-823.583 45.406)" fill="#e84555"/>
</svg>
