<svg id="Grupo_109153" data-name="Grupo 109153" xmlns="http://www.w3.org/2000/svg" width="47.908" height="59.541" viewBox="0 0 47.908 59.541">
  <path id="Trazado_166308" data-name="Trazado 166308" d="M1222.233-1.488h-2.315c-.086-.631-.471-.864-1.08-.859-.9.006-1.8-.021-2.7-.034l0-43.407a1.961,1.961,0,0,1,.229-.027q13.916,0,27.832-.014c.477,0,.418.238.418.533q0,7.527.008,15.054a.74.74,0,0,1-.422.725c-1.242.748-2.47,1.519-3.7,2.281-.351.217-.7.431-1.1.671.05-.987-.207-1.251-1.148-1.251q-9.3,0-18.594,0c-.973,0-1.359.248-1.357.868s.409.878,1.361.878q9.064,0,18.129,0a1.086,1.086,0,0,1,.67.091c-1.062.659-2.093,1.287-3.109,1.938a1.8,1.8,0,0,1-1.031.3c-1.859-.015-3.719,0-5.578-.009-.494,0-.884.142-1.006.675-.136.6.254,1.05.966,1.065,1.045.022,2.092.031,3.137,0,.531-.018.893-.012.711.695a2.73,2.73,0,0,0-.006.984c.063.522-.109.673-.651.67-4.164-.025-8.328-.015-12.492-.012-.712,0-1.082.289-1.1.832-.019.569.367.891,1.095.911.135,0,.271,0,.406,0,3.641,0,7.282,0,10.924.005.591,0,1.382-.26,1.715.116.292.33.052,1.107.106,1.681.043.465-.144.532-.555.531-4.126-.014-8.251-.009-12.376-.009-.92,0-1.306.251-1.314.852-.008.619.4.893,1.346.893,4.106,0,8.212.006,12.318-.008.425,0,.638.065.582.553a5.624,5.624,0,0,0,0,1.219c.049.466-.121.573-.572.571-4.106-.017-8.212-.01-12.318-.01-.967,0-1.358.252-1.354.869s.41.875,1.363.875c4.184,0,8.367.007,12.551-.011.412,0,.582.114.65.512a7.761,7.761,0,0,0,.539,1.649,11.8,11.8,0,0,0,3.794,4.684,1.759,1.759,0,0,1,.607.618h-.649q-6.857,0-13.713,0C1222.6-2.342,1222.422-2.212,1222.233-1.488Zm6.69-34.471H1221.6c-.813,0-1.627-.014-2.439.009a.822.822,0,0,0-.865.829.842.842,0,0,0,.807.89,3.93,3.93,0,0,0,.521.021q9.235,0,18.471,0a3.011,3.011,0,0,0,.748-.07.753.753,0,0,0,.568-.664.84.84,0,0,0-.309-.826,1.2,1.2,0,0,0-.83-.186Zm-.06,4.069q-4.734,0-9.468,0c-.71,0-1.079.292-1.095.839-.016.568.371.888,1.1.909.077,0,.155,0,.232,0q9.235,0,18.471,0a3.429,3.429,0,0,0,.692-.055.754.754,0,0,0,.61-.625.837.837,0,0,0-.3-.882,1.2,1.2,0,0,0-.83-.185Zm.041-10q-2.7,0-5.4,0a2.972,2.972,0,0,0-.578.031.775.775,0,0,0-.666.767.779.779,0,0,0,.592.881,2.827,2.827,0,0,0,.747.066q4.471.006,8.942,0h1.626c.135,0,.272.005.406-.007a.872.872,0,0,0,.9-.922.846.846,0,0,0-.942-.814C1232.659-41.9,1230.781-41.888,1228.9-41.889Zm-6.4,18.139c-1.045,0-2.089,0-3.134,0-.692,0-1.066.316-1.067.865s.375.876,1.065.879q3.105.014,6.21,0c.688,0,1.068-.335,1.069-.877s-.378-.862-1.067-.867C1224.553-23.756,1223.527-23.751,1222.5-23.751Z" transform="translate(-1211.369 55.557)" fill="#e0f1f8"/>
  <path id="Trazado_166309" data-name="Trazado 166309" d="M1210.978-12.914c.9.013,1.8.04,2.7.034.608,0,.993.228,1.08.859-.162.683-.387.886-1.072.888-2.033.008-4.067.013-6.1,0a1.249,1.249,0,0,1-1.375-1.423q0-22.056,0-44.112c0-.981.438-1.418,1.415-1.426.716-.006,1.434-.019,2.15.006.336.012.431-.1.421-.425-.021-.716-.014-1.434,0-2.15a1.279,1.279,0,0,1,1.426-1.442c.677-.01,1.358-.036,2.032.009.485.033.576-.158.555-.588-.032-.676-.016-1.356-.006-2.034a1.217,1.217,0,0,1,1.357-1.369q16.123-.005,32.246,0c.925,0,1.381.489,1.384,1.473.006,2.441,0,4.882,0,7.323q0,10.4-.011,20.806a.906.906,0,0,0,.509.915c1.167.683,2.295,1.434,3.457,2.125a1.786,1.786,0,0,1,.963,1.714c-.027,1.1-.006,2.209-.007,3.313,0,.832-.129,1.011-.893,1.262a1.057,1.057,0,0,1-.861-1.237c.034-.967-.012-1.936.019-2.9a.854.854,0,0,0-.473-.873c-3.346-2.05-6.7-4.089-10-6.216a1.768,1.768,0,0,0-2.283-.015c-2.579,1.7-5.23,3.3-7.853,4.933-.792.481-1.579.971-2.381,1.435-.253.146-.258.344-.258.583,0,3.077-.031,6.154.015,9.23A8.355,8.355,0,0,0,1232-15.85c2.785,2.456,5.642,4.83,8.463,7.246.191.164.321.219.532.024.524-.484,1.07-.945,1.607-1.416a2.53,2.53,0,0,0,.238-.163q3.2-2.726,6.4-5.456a8.869,8.869,0,0,0,2.748-4.214,11.5,11.5,0,0,0,.358-3.85,1.054,1.054,0,0,1,.862-1.235c.767.256.865.43.9,1.263a11.8,11.8,0,0,1-1.392,6.541,11.148,11.148,0,0,1-2.447,2.92q-4.174,3.558-8.349,7.115a1.572,1.572,0,0,1-2.373-.026c-1.444-1.229-2.892-2.453-4.325-3.693a1.318,1.318,0,0,0-.936-.34q-7.982.015-15.964.006c-.857,0-1.073-.158-1.244-.891.189-.724.366-.854,1.211-.854q6.856,0,13.713,0h.649a1.759,1.759,0,0,0-.607-.618,11.8,11.8,0,0,1-3.794-4.684,7.768,7.768,0,0,1-.539-1.649c-.067-.4-.238-.514-.65-.512-4.184.018-8.367.012-12.551.011-.953,0-1.36-.262-1.364-.875s.388-.869,1.354-.869c4.106,0,8.212-.007,12.318.01.451,0,.621-.106.572-.571a5.617,5.617,0,0,1,0-1.219c.056-.488-.157-.555-.582-.553-4.106.014-8.212.009-12.318.008-.943,0-1.354-.274-1.346-.893.008-.6.394-.852,1.314-.852,4.126,0,8.251-.006,12.376.009.412,0,.6-.066.556-.531-.053-.574.187-1.352-.106-1.681-.333-.376-1.124-.114-1.715-.116-3.641-.01-7.282-.005-10.923-.005-.136,0-.271,0-.407,0-.728-.02-1.113-.341-1.095-.911.017-.543.387-.832,1.1-.832,4.164,0,8.328-.013,12.492.012.542,0,.715-.147.651-.67a2.73,2.73,0,0,1,.006-.984c.182-.706-.18-.712-.711-.695-1.045.035-2.092.025-3.137,0-.711-.015-1.1-.465-.966-1.065.121-.533.512-.676,1.006-.675,1.859,0,3.718-.007,5.578.009a1.8,1.8,0,0,0,1.031-.3c1.016-.651,2.047-1.279,3.109-1.938a1.086,1.086,0,0,0-.67-.091q-9.065-.006-18.129,0c-.952,0-1.359-.264-1.361-.878s.384-.868,1.357-.868q9.3,0,18.594,0c.942,0,1.2.265,1.148,1.251.393-.24.746-.455,1.1-.671,1.234-.762,2.462-1.532,3.7-2.281a.74.74,0,0,0,.422-.725q-.022-7.527-.008-15.054c0-.295.058-.533-.418-.533q-13.916.026-27.832.014a1.963,1.963,0,0,0-.229.027c-.792-.009-1.588.014-2.377-.04-.53-.036-.657.128-.656.655q.024,21.091.013,42.182c0,.116.009.233,0,.349-.021.228.077.306.3.3C1209.161-12.894,1210.069-12.9,1210.978-12.914Zm3.961-45.2c.212.007.425.018.637.018h23.863c.155,0,.31,0,.465,0a1.211,1.211,0,0,1,1.293,1.313c0,.155,0,.31,0,.465q0,7.521.005,15.042c0,.176-.11.4.1.529.684.413,1.373.816,2.127,1.263v-.737q0-4.82,0-9.641c0-.769.166-.982.9-1.2.641.133.859.536.856,1.174-.017,3.662-.01,7.324,0,10.986,0,.2-.1.455.119.595.687.443,1.386.866,2.127,1.326.009-.175.014-.233.014-.291q0-13.282.015-26.564c0-.556-.259-.513-.628-.513q-13.656.007-27.311,0c-.174,0-.348.012-.522.019-.9-.006-1.808,0-2.711-.025-.3-.008-.355.109-.346.371.016.5.014,1,0,1.5-.007.257.049.384.345.376.9-.024,1.807-.024,2.71-.033.231.01.462.027.693.027l23.913,0c1.165,0,1.574.407,1.575,1.567,0,2.013-.014,4.026.009,6.038a1.012,1.012,0,0,1-.855,1.173c-.731-.218-.9-.431-.9-1.2,0-1.742-.026-3.485.013-5.226.013-.537-.162-.621-.65-.62q-13.67.022-27.338.012c-.174,0-.348.012-.521.018-.4-.011-.808-.045-1.21-.027-.589.025-1.391-.269-1.705.128-.294.373-.088,1.141-.1,1.736,0,.019,0,.039,0,.058-.031.273.087.376.363.369C1213.169-58.1,1214.054-58.1,1214.939-58.115Z" transform="translate(-1206.208 66.089)" fill="#040404"/>
  <path id="Trazado_166310" data-name="Trazado 166310" d="M1280.872,4.623a1.054,1.054,0,0,0-.862,1.235,11.5,11.5,0,0,1-.358,3.85,8.868,8.868,0,0,1-2.748,4.214q-3.193,2.735-6.4,5.456a2.545,2.545,0,0,1-.238.163c-.011-.288-.22-.434-.414-.6-.415-.344-.829-.687-1.238-1.037-1.127-.963-2.257-1.921-3.374-2.895a29.571,29.571,0,0,1-3.547-3.2,9.274,9.274,0,0,1-2.236-5.878c-.062-3.287-.028-6.575-.036-9.863,2.623-1.636,5.273-3.23,7.853-4.933a1.769,1.769,0,0,1,2.283.015c3.3,2.128,6.649,4.167,10,6.216a.854.854,0,0,1,.473.873c-.031.967.015,1.936-.019,2.9a1.057,1.057,0,0,0,.861,1.237Q1280.872,3.5,1280.872,4.623Zm-12.454,7.582a8,8,0,0,0,7.982-7.975,7.993,7.993,0,1,0-7.982,7.975Z" transform="translate(-1233.873 36.551)" fill="#f0c443"/>
  <path id="Trazado_166311" data-name="Trazado 166311" d="M1212.854-2.385c-.908.012-1.817.02-2.724.04-.225,0-.322-.074-.3-.3.011-.115,0-.232,0-.349q0-21.091-.013-42.182c0-.527.126-.691.656-.655.79.054,1.585.031,2.377.04Q1212.852-24.089,1212.854-2.385Z" transform="translate(-1208.084 55.56)" fill="#ceecfa"/>
  <path id="Trazado_166312" data-name="Trazado 166312" d="M1231.267-25.275h9.352a1.2,1.2,0,0,1,.83.186.84.84,0,0,1,.309.826.753.753,0,0,1-.568.664,3.011,3.011,0,0,1-.748.07q-9.235.005-18.471,0a3.932,3.932,0,0,1-.521-.021.842.842,0,0,1-.807-.89.822.822,0,0,1,.865-.829c.812-.023,1.626-.009,2.439-.009Z" transform="translate(-1213.713 44.873)" fill="#070808"/>
  <path id="Trazado_166313" data-name="Trazado 166313" d="M1231.207-16.8h9.41a1.2,1.2,0,0,1,.83.185.837.837,0,0,1,.3.882.754.754,0,0,1-.61.625,3.428,3.428,0,0,1-.692.055q-9.235,0-18.471,0c-.077,0-.155,0-.232,0-.727-.021-1.113-.341-1.1-.909.016-.546.385-.838,1.095-.839Q1226.474-16.8,1231.207-16.8Z" transform="translate(-1213.713 40.462)" fill="#070808"/>
  <path id="Trazado_166314" data-name="Trazado 166314" d="M1235.532-37.623c1.877,0,3.755-.006,5.632,0a.845.845,0,0,1,.941.814.872.872,0,0,1-.9.922c-.135.012-.271.007-.406.007h-1.626q-4.471,0-8.942,0a2.83,2.83,0,0,1-.748-.066.779.779,0,0,1-.592-.881.775.775,0,0,1,.666-.767,2.97,2.97,0,0,1,.578-.031Q1232.832-37.625,1235.532-37.623Z" transform="translate(-1217.998 51.291)" fill="#070808"/>
  <path id="Trazado_166315" data-name="Trazado 166315" d="M1224.846.156c1.026,0,2.051,0,3.077,0,.688,0,1.067.32,1.066.867s-.381.873-1.069.877q-3.1.014-6.21,0c-.69,0-1.065-.332-1.065-.879s.375-.86,1.067-.865C1222.756.151,1223.8.156,1224.846.156Z" transform="translate(-1213.714 31.65)" fill="#070808"/>
  <path id="Trazado_166316" data-name="Trazado 166316" d="M1232.842-62.44c.174-.006.348-.018.522-.019q13.656,0,27.311,0c.368,0,.629-.043.627.513q-.032,13.282-.015,26.564c0,.058-.005.116-.014.291-.741-.46-1.44-.883-2.127-1.326-.218-.14-.119-.393-.119-.595-.005-3.662-.013-7.324,0-10.986,0-.639-.215-1.041-.855-1.174v-2.266a1.012,1.012,0,0,0,.855-1.173c-.022-2.013-.006-4.026-.009-6.038,0-1.16-.41-1.567-1.575-1.567l-23.913,0c-.231,0-.462-.018-.693-.027Z" transform="translate(-1220.054 64.204)" fill="#dbebcf"/>
  <path id="Trazado_166317" data-name="Trazado 166317" d="M1253.784-47.135v2.266c-.73.217-.9.431-.9,1.2q0,4.82,0,9.641v.737c-.755-.447-1.444-.85-2.127-1.263-.213-.129-.1-.353-.1-.529q-.01-7.521-.005-15.042c0-.155,0-.31,0-.465a1.211,1.211,0,0,0-1.293-1.313c-.155,0-.31,0-.465,0H1225.03c-.212,0-.425-.012-.637-.018q0-1.113,0-2.227c.173-.006.347-.018.521-.018q13.669,0,27.338-.012c.488,0,.662.083.65.62-.039,1.741-.017,3.484-.013,5.226C1252.889-47.566,1253.054-47.354,1253.784-47.135Z" transform="translate(-1215.662 59.898)" fill="#fcf2df"/>
  <path id="Trazado_166318" data-name="Trazado 166318" d="M1256.56,1.856c.007,3.288-.026,6.576.036,9.863a9.274,9.274,0,0,0,2.236,5.878,29.582,29.582,0,0,0,3.547,3.2c1.117.974,2.247,1.932,3.374,2.895.409.35.823.693,1.238,1.037.194.161.4.308.414.6-.537.471-1.083.931-1.608,1.416-.211.195-.34.14-.531-.024-2.821-2.415-5.678-4.79-8.463-7.246a8.355,8.355,0,0,1-2.866-6.37c-.046-3.076-.012-6.154-.015-9.23,0-.239,0-.436.258-.583C1254.98,2.827,1255.767,2.337,1256.56,1.856Z" transform="translate(-1231.009 30.765)" fill="#dfb63d"/>
  <path id="Trazado_166319" data-name="Trazado 166319" d="M1221.063-54.236q0,1.113,0,2.227c-.885.011-1.77.015-2.655.037-.276.007-.394-.1-.363-.369,0-.019,0-.039,0-.058.014-.594-.192-1.363.1-1.736.314-.4,1.117-.1,1.705-.128C1220.255-54.281,1220.659-54.247,1221.063-54.236Z" transform="translate(-1212.332 59.983)" fill="#cebfaa"/>
  <path id="Trazado_166320" data-name="Trazado 166320" d="M1229.533-62.441v2.19c-.9.009-1.807.008-2.71.033-.3.008-.352-.119-.345-.376.014-.5.015-1,0-1.5-.009-.262.048-.379.346-.371C1227.725-62.442,1228.629-62.448,1229.533-62.441Z" transform="translate(-1216.745 64.206)" fill="#c8e6b3"/>
  <path id="Trazado_166321" data-name="Trazado 166321" d="M1269.492,18.177a7.982,7.982,0,1,1,7.982-7.975A7.993,7.993,0,0,1,1269.492,18.177Zm.095-1.787a3.317,3.317,0,0,0,.981-.05,6.222,6.222,0,0,0-.861-12.349,2.77,2.77,0,0,0-.287-.03,6.272,6.272,0,0,0-6.073,7.389A6.142,6.142,0,0,0,1269.587,16.39Z" transform="translate(-1234.948 30.58)" fill="#030301"/>
  <path id="Trazado_166322" data-name="Trazado 166322" d="M1274.929,5.915a6.222,6.222,0,0,1,.861,12.349,3.315,3.315,0,0,1-.981.05c0-.207-.155-.283-.3-.386a7.248,7.248,0,0,1-2.909-4.538,1.032,1.032,0,0,1,.064-.883c.662.651,1.321,1.3,1.985,1.951a.9.9,0,0,0,1.5.007q1.485-1.47,2.955-2.956c.511-.515.563-1.024.157-1.412s-.874-.328-1.412.206c-.727.723-1.458,1.443-2.171,2.18-.205.213-.335.235-.542.006-.337-.373-.716-.707-1.06-1.074a.957.957,0,0,0-1.389-.182.225.225,0,0,1-.107-.247,6.862,6.862,0,0,1,1.8-3.617C1273.882,6.868,1274.412,6.4,1274.929,5.915Z" transform="translate(-1240.17 28.655)" fill="#6ebb41"/>
  <path id="Trazado_166323" data-name="Trazado 166323" d="M1268.331,12.475a1.032,1.032,0,0,0-.064.883,7.248,7.248,0,0,0,2.909,4.538c.145.1.3.179.3.386a6.143,6.143,0,0,1-6.24-5.04,6.272,6.272,0,0,1,6.073-7.389,2.764,2.764,0,0,1,.286.03c-.517.483-1.047.953-1.548,1.453a6.862,6.862,0,0,0-1.8,3.617.225.225,0,0,0,.107.247A.968.968,0,0,0,1268.331,12.475Z" transform="translate(-1236.836 28.687)" fill="#61a339"/>
  <path id="Trazado_166324" data-name="Trazado 166324" d="M1271.559,16.764a.969.969,0,0,1,.019-1.275.957.957,0,0,1,1.39.182c.344.367.723.7,1.06,1.074.207.229.337.207.543-.006.713-.737,1.443-1.457,2.171-2.18.538-.534,1-.6,1.411-.206s.354.9-.157,1.412q-1.472,1.484-2.955,2.956a.9.9,0,0,1-1.5-.007C1272.88,18.068,1272.22,17.415,1271.559,16.764Z" transform="translate(-1240.063 24.398)" fill="#010201"/>
</svg>
