<svg xmlns="http://www.w3.org/2000/svg" width="252" height="225.476" viewBox="0 0 252 225.476">
  <g id="Grupo_109150" data-name="Grupo 109150" transform="translate(-753.3 -197.005)">
    <g id="Grupo_109115" data-name="Grupo 109115" transform="translate(930.025 211.832)">
      <g id="Grupo_109095" data-name="Grupo 109095" transform="translate(15.532 80.247)">
        <path id="Trazado_166050" data-name="Trazado 166050" d="M1037.085,365.562c-5.672-3.275-10.27-11.205-10.27-17.714a8.211,8.211,0,0,1,1.726-5.52c-3.113.225-5.218,2.831-5.218,7.229,0,6.508,4.6,14.439,10.27,17.714,3.564,2.057,6.692,1.774,8.531-.328A8.918,8.918,0,0,1,1037.085,365.562Z" transform="translate(-1015.882 -329.927)" fill="#72b5e8"/>
        <path id="Trazado_166051" data-name="Trazado 166051" d="M1044.446,359.852a20.18,20.18,0,0,0-.176-2.489l4.151-.525a37.521,37.521,0,0,0-1.881-6.285l-4.73-1.43a33.322,33.322,0,0,0-2.944-5.079l1.133-4.773a37.9,37.9,0,0,0-4.53-4.775l-2.546,3.294a20.618,20.618,0,0,0-2.081-1.4,16.147,16.147,0,0,0-2.081-1l-2.546-6.234a12.626,12.626,0,0,0-4.531-.457l1.134,6.083a6.483,6.483,0,0,0-2.944,1.679l-4.73-4.032a12.341,12.341,0,0,0-1.881,4.112l4.151,5.319a15.672,15.672,0,0,0-.176,2.287,20.191,20.191,0,0,0,.176,2.489l-4.151.525a37.474,37.474,0,0,0,1.881,6.285l4.73,1.431a33.19,33.19,0,0,0,2.944,5.078l-1.134,4.773a37.829,37.829,0,0,0,4.531,4.775l2.546-3.293a20.545,20.545,0,0,0,2.081,1.4,15.941,15.941,0,0,0,2.081,1l2.546,6.234a12.6,12.6,0,0,0,4.53.456l-1.133-6.082a6.5,6.5,0,0,0,2.944-1.678l4.73,4.031a12.351,12.351,0,0,0,1.881-4.112l-4.151-5.319A15.655,15.655,0,0,0,1044.446,359.852Zm-13.474,3.857c-5.672-3.275-10.269-11.206-10.269-17.714s4.6-9.13,10.269-5.856,10.27,11.206,10.27,17.714S1036.645,366.983,1030.972,363.709Z" transform="translate(-1013.262 -326.364)" fill="#a8cff0"/>
        <path id="Trazado_166052" data-name="Trazado 166052" d="M1037.3,332.474l-2.546-6.234-3.978,2.285,2.546,6.234Z" transform="translate(-1017.823 -325.737)" fill="#72b5e8"/>
        <path id="Trazado_166053" data-name="Trazado 166053" d="M1034.219,336.954a16.139,16.139,0,0,1,2.081,1,20.625,20.625,0,0,1,2.081,1.4l2.546-3.293h0s-.43-.27-.648-.4a16.039,16.039,0,0,0-2.081-1Z" transform="translate(-1018.72 -327.932)" fill="#d1ebff"/>
        <path id="Trazado_166054" data-name="Trazado 166054" d="M1033.159,326.063a12.606,12.606,0,0,0-4.531-.456l-3.978,2.284a12.628,12.628,0,0,1,4.531.457Z" transform="translate(-1016.228 -325.56)" fill="#d1ebff"/>
        <path id="Trazado_166055" data-name="Trazado 166055" d="M1051.8,338.24a37.984,37.984,0,0,0-4.531-4.775l-3.978,2.285a37.946,37.946,0,0,1,4.53,4.775Z" transform="translate(-1021.083 -327.619)" fill="#d1ebff"/>
        <path id="Trazado_166056" data-name="Trazado 166056" d="M1049.016,342.206l-1.133,4.773,3.978-2.285,1.133-4.773Z" transform="translate(-1022.279 -329.3)" fill="#72b5e8"/>
        <path id="Trazado_166057" data-name="Trazado 166057" d="M1047.883,348.66a33.252,33.252,0,0,1,2.944,5.079l3.978-2.285a33.263,33.263,0,0,0-2.944-5.079Z" transform="translate(-1022.279 -330.981)" fill="#72b5e8"/>
        <path id="Trazado_166058" data-name="Trazado 166058" d="M1051.864,355.527l4.73,1.43,3.978-2.285-4.73-1.43Z" transform="translate(-1023.316 -332.769)" fill="#d1ebff"/>
        <path id="Trazado_166059" data-name="Trazado 166059" d="M1058.26,357.461a37.521,37.521,0,0,1,1.881,6.285l3.979-2.285a37.547,37.547,0,0,0-1.881-6.285Z" transform="translate(-1024.981 -333.273)" fill="#72b5e8"/>
        <path id="Trazado_166060" data-name="Trazado 166060" d="M1023.48,335.3l-.329-1.769-3.367-2.869-3.978,2.285,4.73,4.032A6.484,6.484,0,0,1,1023.48,335.3Z" transform="translate(-1013.925 -326.889)" fill="#72b5e8"/>
        <path id="Trazado_166061" data-name="Trazado 166061" d="M1060.141,380.318a12.348,12.348,0,0,1-1.881,4.113l3.978-2.285a12.357,12.357,0,0,0,1.881-4.112Z" transform="translate(-1024.981 -339.226)" fill="#72b5e8"/>
        <path id="Trazado_166062" data-name="Trazado 166062" d="M1059.169,369.781a15.744,15.744,0,0,0,.175-2.287c0-.24-.015-.483-.029-.726l-4.125.522a20.2,20.2,0,0,1,.176,2.489,15.672,15.672,0,0,1-.176,2.287Z" transform="translate(-1024.182 -336.292)" fill="#72b5e8"/>
        <path id="Trazado_166063" data-name="Trazado 166063" d="M1055.19,373.127l4.151,5.319,3.978-2.285-4.151-5.319Z" transform="translate(-1024.182 -337.353)" fill="#d1ebff"/>
        <path id="Trazado_166064" data-name="Trazado 166064" d="M1050.827,381.233a6.5,6.5,0,0,1-2.944,1.678l1.133,6.082,3.979-2.285-.8-4.313Z" transform="translate(-1022.279 -340.059)" fill="#72b5e8"/>
        <path id="Trazado_166065" data-name="Trazado 166065" d="M1017.264,350.5l-4,2.348,4.151-.525C1017.336,351.709,1017.29,351.1,1017.264,350.5Z" transform="translate(-1013.262 -332.055)" fill="#d1ebff"/>
        <path id="Trazado_166066" data-name="Trazado 166066" d="M1033.322,379.431l-2.546,3.293,4.008-2.281C1034.29,380.127,1033.8,379.793,1033.322,379.431Z" transform="translate(-1017.823 -339.59)" fill="#72b5e8"/>
        <g id="Grupo_109094" data-name="Grupo 109094" transform="translate(0.2 2.266)" style="mix-blend-mode: color-dodge;isolation: isolate">
          <path id="Trazado_166067" data-name="Trazado 166067" d="M1025.33,337.286l-.011-.061c-.19.072-.371.16-.552.248C1024.953,337.407,1025.136,337.337,1025.33,337.286Z" transform="translate(-1016.458 -330.864)" fill="#fff"/>
          <path id="Trazado_166068" data-name="Trazado 166068" d="M1016.978,353.061l-3.446.436c.014.067.032.134.046.2l3.421-.433C1016.991,353.2,1016.986,353.129,1016.978,353.061Z" transform="translate(-1013.532 -334.989)" fill="#fff"/>
          <path id="Trazado_166069" data-name="Trazado 166069" d="M1047.613,341.583l-1.134,4.773a33.249,33.249,0,0,1,2.944,5.079l4.731,1.43a37.724,37.724,0,0,1,1.836,6.084l.468-.078a37.55,37.55,0,0,0-1.881-6.284l-4.73-1.43a33.263,33.263,0,0,0-2.944-5.079l1.134-4.773a37.953,37.953,0,0,0-4.531-4.775l-.155.524A38.161,38.161,0,0,1,1047.613,341.583Z" transform="translate(-1021.298 -330.683)" fill="#fff"/>
          <path id="Trazado_166070" data-name="Trazado 166070" d="M1033.5,367.54c-5.672-3.276-10.27-11.206-10.27-17.714,0-2.875.9-4.982,2.394-6.163-1.724,1.11-2.784,3.324-2.784,6.442,0,6.509,4.6,14.439,10.27,17.714,2.864,1.654,5.451,1.8,7.313.706-.137.042-.282.07-.425.1C1038.231,369.267,1035.97,368.965,1033.5,367.54Z" transform="translate(-1015.957 -332.541)" fill="#fff"/>
          <path id="Trazado_166071" data-name="Trazado 166071" d="M1048.916,382.8a6.436,6.436,0,0,0,1.871-1.048l-.175-.149A6.488,6.488,0,0,1,1048.916,382.8Z" transform="translate(-1022.747 -342.422)" fill="#fff"/>
          <path id="Trazado_166072" data-name="Trazado 166072" d="M1020.4,337.888c-.172.007,0-.135.175-.275l-4.555-3.883c-.13.179-.246.374-.032.4Z" transform="translate(-1014.142 -329.954)" fill="#fff"/>
          <path id="Trazado_166073" data-name="Trazado 166073" d="M1047.716,383.792l1.085,5.82c-.125-.006.122-.01.362-.032l-1.122-6.021C1047.814,383.647,1047.584,383.729,1047.716,383.792Z" transform="translate(-1022.425 -342.932)" fill="#fff" style="mix-blend-mode: color-dodge;isolation: isolate"/>
          <path id="Trazado_166074" data-name="Trazado 166074" d="M1055.5,370.01a19.649,19.649,0,0,0-.155-2.285l-.413.03a20.225,20.225,0,0,1,.176,2.49,15.689,15.689,0,0,1-.176,2.287l4.151,5.318a12.686,12.686,0,0,1-1.515,3.548l.027.33a12.362,12.362,0,0,0,1.881-4.113l-4.151-5.318A15.683,15.683,0,0,0,1055.5,370.01Z" transform="translate(-1024.314 -338.808)" fill="#fff"/>
          <path id="Trazado_166075" data-name="Trazado 166075" d="M1029.077,329.312l2.546,6.234a15.942,15.942,0,0,1,2.081,1,20.643,20.643,0,0,1,2.081,1.4l.08-.395a19.4,19.4,0,0,0-1.788-1.192,16.035,16.035,0,0,0-2.081-1l-2.546-6.234a12.627,12.627,0,0,0-4.531-.457l.049.262A14.827,14.827,0,0,1,1029.077,329.312Z" transform="translate(-1016.498 -328.624)" fill="#fff"/>
          <path id="Trazado_166076" data-name="Trazado 166076" d="M1032.814,379.8l-2.129,2.754c.09.081.177.166.268.246l2.156-2.789C1033.011,379.942,1032.911,379.875,1032.814,379.8Z" transform="translate(-1017.999 -341.953)" fill="#fff"/>
        </g>
      </g>
      <g id="Grupo_109097" data-name="Grupo 109097" transform="translate(3.366 13.436)">
        <path id="Trazado_166077" data-name="Trazado 166077" d="M1032.646,295.394c-8.531-4.926-15.449-16.856-15.449-26.646,0-3.631.962-6.441,2.6-8.3-4.682.339-7.85,4.259-7.85,10.874,0,9.79,6.916,21.72,15.449,26.646,5.36,3.1,10.066,2.67,12.833-.493A13.408,13.408,0,0,1,1032.646,295.394Z" transform="translate(-1000.753 -241.79)" fill="#72b5e8"/>
        <path id="Trazado_166078" data-name="Trazado 166078" d="M1043.719,286.8a30.447,30.447,0,0,0-.264-3.744l6.244-.791a56.382,56.382,0,0,0-2.83-9.453l-7.115-2.152a50.011,50.011,0,0,0-4.428-7.639l1.7-7.18a57.1,57.1,0,0,0-6.814-7.181l-3.831,4.954a30.985,30.985,0,0,0-3.13-2.111,24.16,24.16,0,0,0-3.131-1.5l-3.83-9.377a18.988,18.988,0,0,0-6.815-.688l1.7,9.149a9.772,9.772,0,0,0-4.428,2.526l-7.115-6.064a18.55,18.55,0,0,0-2.83,6.186l6.244,8a23.634,23.634,0,0,0-.264,3.44,30.469,30.469,0,0,0,.264,3.744l-6.244.79a56.311,56.311,0,0,0,2.83,9.454l7.115,2.152a50.038,50.038,0,0,0,4.428,7.638l-1.7,7.18a56.915,56.915,0,0,0,6.815,7.182l3.83-4.954a30.884,30.884,0,0,0,3.131,2.11,24.066,24.066,0,0,0,3.13,1.5l3.831,9.377a18.947,18.947,0,0,0,6.814.687l-1.7-9.149a9.771,9.771,0,0,0,4.428-2.524l7.115,6.064a18.569,18.569,0,0,0,2.83-6.186l-6.244-8A23.626,23.626,0,0,0,1043.719,286.8Zm-20.267,5.8C1014.92,287.68,1008,275.75,1008,265.96s6.916-13.734,15.449-8.807S1038.9,274.008,1038.9,283.8,1031.984,297.531,1023.452,292.605Z" transform="translate(-996.811 -236.432)" fill="#a8cff0"/>
        <path id="Trazado_166079" data-name="Trazado 166079" d="M1032.97,245.622l-3.83-9.377-5.984,3.437,3.83,9.377Z" transform="translate(-1003.672 -235.488)" fill="#72b5e8"/>
        <path id="Trazado_166080" data-name="Trazado 166080" d="M1028.335,252.361a24.168,24.168,0,0,1,3.131,1.5,30.97,30.97,0,0,1,3.13,2.111l3.83-4.954h0s-.647-.407-.975-.6a23.988,23.988,0,0,0-3.131-1.5Z" transform="translate(-1005.021 -238.79)" fill="#d1ebff"/>
        <path id="Trazado_166081" data-name="Trazado 166081" d="M1026.74,235.978a18.971,18.971,0,0,0-6.815-.687l-5.984,3.437a18.988,18.988,0,0,1,6.815.688Z" transform="translate(-1001.272 -235.221)" fill="#d1ebff"/>
        <path id="Trazado_166082" data-name="Trazado 166082" d="M1054.779,254.294a57.137,57.137,0,0,0-6.815-7.181l-5.984,3.437a57.053,57.053,0,0,1,6.814,7.181Z" transform="translate(-1008.575 -238.318)" fill="#d1ebff"/>
        <path id="Trazado_166083" data-name="Trazado 166083" d="M1050.593,260.261l-1.7,7.18,5.984-3.437,1.7-7.18Z" transform="translate(-1010.374 -240.847)" fill="#72b5e8"/>
        <path id="Trazado_166084" data-name="Trazado 166084" d="M1048.889,269.97a50,50,0,0,1,4.428,7.639l5.985-3.437a49.98,49.98,0,0,0-4.429-7.639Z" transform="translate(-1010.374 -243.376)" fill="#72b5e8"/>
        <path id="Trazado_166085" data-name="Trazado 166085" d="M1054.877,280.3l7.115,2.152,5.984-3.437-7.115-2.151Z" transform="translate(-1011.934 -246.066)" fill="#d1ebff"/>
        <path id="Trazado_166086" data-name="Trazado 166086" d="M1064.5,283.208a56.394,56.394,0,0,1,2.829,9.453l5.984-3.437a56.52,56.52,0,0,0-2.83-9.453Z" transform="translate(-1014.44 -246.824)" fill="#72b5e8"/>
        <path id="Trazado_166087" data-name="Trazado 166087" d="M1012.181,249.877l-.5-2.66-5.064-4.316-5.984,3.437,7.115,6.064A9.772,9.772,0,0,1,1012.181,249.877Z" transform="translate(-997.808 -237.221)" fill="#72b5e8"/>
        <path id="Trazado_166088" data-name="Trazado 166088" d="M1067.328,317.591a18.572,18.572,0,0,1-2.829,6.186l5.984-3.437a18.592,18.592,0,0,0,2.83-6.186Z" transform="translate(-1014.44 -255.779)" fill="#72b5e8"/>
        <path id="Trazado_166089" data-name="Trazado 166089" d="M1065.865,301.74a23.626,23.626,0,0,0,.264-3.44c0-.36-.024-.727-.043-1.092l-6.206.785a30.446,30.446,0,0,1,.264,3.744,23.627,23.627,0,0,1-.264,3.44Z" transform="translate(-1013.237 -251.365)" fill="#72b5e8"/>
        <path id="Trazado_166090" data-name="Trazado 166090" d="M1059.881,306.774l6.244,8,5.984-3.437-6.244-8Z" transform="translate(-1013.237 -252.961)" fill="#d1ebff"/>
        <path id="Trazado_166091" data-name="Trazado 166091" d="M1053.317,318.967a9.77,9.77,0,0,1-4.428,2.524l1.7,9.149,5.984-3.437-1.209-6.487Z" transform="translate(-1010.374 -257.032)" fill="#72b5e8"/>
        <path id="Trazado_166092" data-name="Trazado 166092" d="M1002.83,272.736l-6.019,3.533,6.244-.79C1002.94,274.555,1002.869,273.641,1002.83,272.736Z" transform="translate(-996.811 -244.992)" fill="#d1ebff"/>
        <path id="Trazado_166093" data-name="Trazado 166093" d="M1026.986,316.256l-3.83,4.954,6.028-3.431C1028.442,317.3,1027.708,316.8,1026.986,316.256Z" transform="translate(-1003.672 -256.326)" fill="#72b5e8"/>
        <g id="Grupo_109096" data-name="Grupo 109096" transform="translate(0.301 3.409)" style="mix-blend-mode: color-dodge;isolation: isolate">
          <path id="Trazado_166094" data-name="Trazado 166094" d="M1014.964,252.86l-.017-.092c-.285.109-.558.24-.83.374C1014.4,253.042,1014.672,252.937,1014.964,252.86Z" transform="translate(-1001.619 -243.2)" fill="#fff"/>
          <path id="Trazado_166095" data-name="Trazado 166095" d="M1002.4,276.589l-5.184.655c.02.1.047.2.069.3l5.146-.652C1002.42,276.793,1002.414,276.691,1002.4,276.589Z" transform="translate(-997.218 -249.404)" fill="#fff"/>
          <path id="Trazado_166096" data-name="Trazado 166096" d="M1048.483,259.323l-1.705,7.18a50.014,50.014,0,0,1,4.429,7.639l7.115,2.152a56.694,56.694,0,0,1,2.761,9.151l.7-.117a56.381,56.381,0,0,0-2.83-9.453l-7.115-2.152a49.967,49.967,0,0,0-4.428-7.638l1.7-7.18a57,57,0,0,0-6.814-7.182l-.234.788A57.369,57.369,0,0,1,1048.483,259.323Z" transform="translate(-1008.899 -242.928)" fill="#fff"/>
          <path id="Trazado_166097" data-name="Trazado 166097" d="M1027.257,298.37c-8.532-4.926-15.448-16.856-15.448-26.646,0-4.324,1.356-7.494,3.6-9.27-2.594,1.669-4.189,5-4.189,9.69,0,9.79,6.916,21.719,15.449,26.646,4.307,2.487,8.2,2.707,11,1.061-.207.064-.425.1-.64.152C1034.37,300.968,1030.969,300.512,1027.257,298.37Z" transform="translate(-1000.865 -245.723)" fill="#fff"/>
          <path id="Trazado_166098" data-name="Trazado 166098" d="M1050.442,321.326a9.7,9.7,0,0,0,2.816-1.577l-.264-.224A9.737,9.737,0,0,1,1050.442,321.326Z" transform="translate(-1011.08 -260.587)" fill="#fff"/>
          <path id="Trazado_166099" data-name="Trazado 166099" d="M1007.554,253.765c-.26.011,0-.2.263-.413l-6.852-5.84c-.195.269-.37.563-.047.6Z" transform="translate(-998.135 -241.831)" fill="#fff"/>
          <path id="Trazado_166100" data-name="Trazado 166100" d="M1048.639,322.816l1.631,8.756c-.189-.01.183-.014.544-.048l-1.688-9.057C1048.786,322.6,1048.44,322.721,1048.639,322.816Z" transform="translate(-1010.595 -261.353)" fill="#fff" style="mix-blend-mode: color-dodge;isolation: isolate"/>
          <path id="Trazado_166101" data-name="Trazado 166101" d="M1060.344,302.085a29.525,29.525,0,0,0-.233-3.438l-.621.047a30.482,30.482,0,0,1,.264,3.745,23.642,23.642,0,0,1-.264,3.439l6.244,8a19.1,19.1,0,0,1-2.279,5.337l.04.5a18.565,18.565,0,0,0,2.829-6.186l-6.244-8A23.625,23.625,0,0,0,1060.344,302.085Z" transform="translate(-1013.436 -255.149)" fill="#fff"/>
          <path id="Trazado_166102" data-name="Trazado 166102" d="M1020.6,240.865l3.83,9.377a24.231,24.231,0,0,1,3.13,1.5,30.934,30.934,0,0,1,3.13,2.111l.121-.595a29.336,29.336,0,0,0-2.688-1.793,24.033,24.033,0,0,0-3.131-1.5l-3.83-9.377a18.987,18.987,0,0,0-6.815-.688l.073.393A22.327,22.327,0,0,1,1020.6,240.865Z" transform="translate(-1001.679 -239.831)" fill="#fff"/>
          <path id="Trazado_166103" data-name="Trazado 166103" d="M1026.222,316.814l-3.2,4.143c.135.121.266.251.4.37l3.243-4.195C1026.518,317.024,1026.369,316.924,1026.222,316.814Z" transform="translate(-1003.938 -259.88)" fill="#fff"/>
        </g>
      </g>
      <path id="Trazado_166104" data-name="Trazado 166104" d="M1043.024,234.909c.047-.99.726-1.421,1.517-.964a3.106,3.106,0,0,1,1.348,2.619c-.047.989-.726,1.421-1.518.964A3.106,3.106,0,0,1,1043.024,234.909Z" transform="translate(-1005.481 -221.405)" fill="#eb4680"/>
      <path id="Trazado_166105" data-name="Trazado 166105" d="M1037.038,395.079c.031-.658.483-.945,1.01-.641a2.068,2.068,0,0,1,.9,1.742c-.032.658-.484.945-1.01.641A2.065,2.065,0,0,1,1037.038,395.079Z" transform="translate(-1003.922 -263.22)" fill="#eb4680"/>
      <g id="Grupo_109098" data-name="Grupo 109098" transform="translate(61.671 80.226)">
        <path id="Trazado_166106" data-name="Trazado 166106" d="M1076.019,329.311a.37.37,0,0,1-.32-.556l1.773-3.04a.37.37,0,1,1,.638.373l-1.3,2.222,2.616-.806a.37.37,0,0,1,.218.707l-3.522,1.085A.39.39,0,0,1,1076.019,329.311Z" transform="translate(-1075.649 -325.531)" fill="#eb4680"/>
      </g>
      <g id="Grupo_109100" data-name="Grupo 109100" transform="translate(26.114 96.871)">
        <path id="Trazado_166107" data-name="Trazado 166107" d="M1033.048,348.575a8.483,8.483,0,0,1,3.3,3.981,8.854,8.854,0,0,0,1.094-.37,2.915,2.915,0,0,1,2.537.39,8.617,8.617,0,0,1,3.911,6.746c0,4.531-7.755,6.1-7.755,6.1s-7.375-9.858-7.375-14.387c0-1.237-.524-1.617.181-2.022.061-.035,1.464-.781,1.528-.809A2.894,2.894,0,0,1,1033.048,348.575Z" transform="translate(-1027.83 -348.038)" fill="#083142"/>
        <path id="Trazado_166108" data-name="Trazado 166108" d="M1031.481,349.528a8.61,8.61,0,0,1,3.463,4.409c.654-1.053,1.959-1.278,3.464-.408a8.617,8.617,0,0,1,3.911,6.746c0,4.53-7.376,5.872-7.376,5.872s-7.375-9.858-7.375-14.388C1027.57,349.279,1029.321,348.281,1031.481,349.528Z" transform="translate(-1027.57 -348.286)" fill="#246681"/>
        <g id="Grupo_109099" data-name="Grupo 109099" transform="translate(1.324 0.652)" style="mix-blend-mode: color-dodge;isolation: isolate">
          <path id="Trazado_166109" data-name="Trazado 166109" d="M1031.733,349.6a8.926,8.926,0,0,1,3.638,4.414c.133-.214-.05-.134.134-.277a8.536,8.536,0,0,0-3.367-4.17c-1.18-.681-2.077-.842-2.778-.41A3.041,3.041,0,0,1,1031.733,349.6Z" transform="translate(-1029.36 -348.919)" fill="#fff" opacity="0.7"/>
          <path id="Trazado_166110" data-name="Trazado 166110" d="M1041.422,354.9a2.623,2.623,0,0,0-2.684-.33,3.028,3.028,0,0,1,2.365.441,8.617,8.617,0,0,1,3.911,6.745c0,2.1-1.592,3.52-3.3,4.434,1.9-.893,3.615-2.2,3.615-4.545A8.617,8.617,0,0,0,1041.422,354.9Z" transform="translate(-1031.802 -350.33)" fill="#fff" opacity="0.7"/>
        </g>
      </g>
      <g id="Grupo_109101" data-name="Grupo 109101" transform="translate(39.132 14.19)">
        <path id="Trazado_166111" data-name="Trazado 166111" d="M1069.206,305.552l-.5-.548c3.979-3.613,6.083-9.5,6.083-17.035,0-18.741-13.288-41.659-29.62-51.089l.37-.64c16.536,9.548,29.99,32.753,29.99,51.729C1075.533,295.714,1073.345,301.794,1069.206,305.552Z" transform="translate(-1045.173 -236.24)" fill="#eb4680"/>
      </g>
      <g id="Grupo_109105" data-name="Grupo 109105" transform="translate(47.591 69.4)">
        <g id="Grupo_109102" data-name="Grupo 109102" transform="translate(26.939)">
          <path id="Trazado_166112" data-name="Trazado 166112" d="M1093.407,312.374h-.006a.37.37,0,0,1-.364-.376q.006-.365.005-.735a.37.37,0,0,1,.74,0q0,.376-.005.746A.371.371,0,0,1,1093.407,312.374Z" transform="translate(-1093.037 -310.893)" fill="#a8cff0"/>
        </g>
        <g id="Grupo_109103" data-name="Grupo 109103" transform="translate(2.925 2.942)">
          <path id="Trazado_166113" data-name="Trazado 166113" d="M1064.6,339.035a.37.37,0,0,1,0-.74c.482,0,.967-.024,1.443-.06a.37.37,0,0,1,.055.739c-.492.036-.994.057-1.492.061Zm-2.2-.086h-.032q-.732-.061-1.48-.166a.37.37,0,0,1-.315-.418.376.376,0,0,1,.417-.314q.729.1,1.44.162a.37.37,0,0,1-.03.738Zm5.847-.252a.37.37,0,0,1-.066-.734c.474-.087.947-.191,1.405-.312a.37.37,0,1,1,.188.715c-.476.126-.967.235-1.46.325A.418.418,0,0,1,1068.243,338.7Zm3.524-1a.37.37,0,0,1-.136-.714c.444-.176.886-.372,1.312-.581a.37.37,0,0,1,.327.663c-.444.218-.9.422-1.366.606A.368.368,0,0,1,1071.767,337.695Zm3.247-1.687a.37.37,0,0,1-.2-.678c.4-.266.793-.548,1.166-.842a.37.37,0,0,1,.456.582c-.389.305-.8.6-1.215.876A.371.371,0,0,1,1075.015,336.008Zm2.838-2.32a.369.369,0,0,1-.261-.631c.337-.338.665-.694.975-1.056a.37.37,0,0,1,.562.481c-.323.377-.664.746-1.015,1.1A.372.372,0,0,1,1077.852,333.688Zm2.333-2.824a.37.37,0,0,1-.305-.579c.271-.395.531-.8.774-1.217a.37.37,0,0,1,.637.376c-.251.427-.521.85-.8,1.259A.368.368,0,0,1,1080.185,330.864Zm1.815-3.185a.356.356,0,0,1-.157-.036.369.369,0,0,1-.178-.492q.305-.646.579-1.326a.37.37,0,1,1,.686.277q-.283.7-.6,1.365A.37.37,0,0,1,1082,327.679Zm1.329-3.417a.363.363,0,0,1-.111-.017.369.369,0,0,1-.241-.464q.214-.683.4-1.394a.369.369,0,1,1,.714.189q-.191.729-.412,1.427A.37.37,0,0,1,1083.329,324.263Zm.9-3.557a.4.4,0,0,1-.072-.007.37.37,0,0,1-.292-.434q.138-.7.249-1.431a.37.37,0,1,1,.731.112q-.113.743-.254,1.461A.369.369,0,0,1,1084.227,320.705Zm.523-3.631h-.036a.371.371,0,0,1-.333-.4q.07-.715.115-1.451a.36.36,0,0,1,.393-.346.369.369,0,0,1,.345.392q-.047.749-.117,1.476A.37.37,0,0,1,1084.75,317.074Z" transform="translate(-1060.566 -314.871)" fill="#a8cff0"/>
        </g>
        <g id="Grupo_109104" data-name="Grupo 109104" transform="translate(0 25.546)">
          <path id="Trazado_166114" data-name="Trazado 166114" d="M1057.7,346.344a.365.365,0,0,1-.08-.009c-.243-.053-.485-.11-.729-.171a.37.37,0,0,1,.177-.718c.238.059.475.115.711.166a.37.37,0,0,1-.079.731Z" transform="translate(-1056.611 -345.435)" fill="#a8cff0"/>
        </g>
      </g>
      <g id="Grupo_109109" data-name="Grupo 109109">
        <g id="Grupo_109106" data-name="Grupo 109106" transform="translate(0.828 35.851)">
          <path id="Trazado_166115" data-name="Trazado 166115" d="M993.875,267a.37.37,0,0,1-.363-.3c-.044-.245-.087-.49-.128-.734a.37.37,0,0,1,.73-.121c.04.241.082.481.126.723a.371.371,0,0,1-.3.43A.332.332,0,0,1,993.875,267Z" transform="translate(-993.379 -265.529)" fill="#a8cff0"/>
        </g>
        <g id="Grupo_109107" data-name="Grupo 109107">
          <path id="Trazado_166116" data-name="Trazado 166116" d="M1061.763,261.886a.371.371,0,0,1-.343-.231q-.278-.69-.572-1.378a.37.37,0,1,1,.68-.291q.3.694.579,1.391a.37.37,0,0,1-.2.481A.366.366,0,0,1,1061.763,261.886Zm-1.484-3.443a.37.37,0,0,1-.337-.216q-.309-.679-.632-1.353a.37.37,0,0,1,.668-.32q.325.681.637,1.366a.37.37,0,0,1-.183.49A.38.38,0,0,1,1060.279,258.443Zm-1.629-3.375a.37.37,0,0,1-.33-.2q-.337-.666-.687-1.326a.37.37,0,1,1,.653-.346q.353.667.694,1.337a.369.369,0,0,1-.163.5A.365.365,0,0,1,1058.65,255.068Zm-1.766-3.3a.368.368,0,0,1-.322-.189q-.366-.651-.741-1.3a.369.369,0,1,1,.638-.372q.379.649.747,1.305a.37.37,0,0,1-.322.551Zm-63.762-.341a.37.37,0,0,1-.366-.322q-.1-.749-.179-1.5a.37.37,0,1,1,.735-.079q.08.737.177,1.478a.368.368,0,0,1-.368.418Zm61.863-2.887a.371.371,0,0,1-.315-.176q-.392-.636-.792-1.264a.37.37,0,1,1,.623-.4q.4.633.8,1.274a.371.371,0,0,1-.121.509A.364.364,0,0,1,1054.985,248.536Zm-62.237-.839a.371.371,0,0,1-.368-.345q-.05-.757-.081-1.507a.37.37,0,0,1,.356-.384h.014a.37.37,0,0,1,.37.355c.018.493.046.988.079,1.485a.369.369,0,0,1-.343.394Zm60.207-2.307a.367.367,0,0,1-.306-.163q-.418-.618-.844-1.229a.37.37,0,0,1,.606-.423q.429.615.851,1.238a.371.371,0,0,1-.1.514A.375.375,0,0,1,1052.956,245.39Zm-60.327-1.434h0a.37.37,0,0,1-.368-.371q0-.764.03-1.509a.371.371,0,0,1,.37-.356h.014a.37.37,0,0,1,.356.383q-.027.733-.03,1.485A.369.369,0,0,1,992.63,243.956Zm58.171-1.623a.37.37,0,0,1-.3-.15q-.443-.6-.895-1.191a.37.37,0,0,1,.588-.449q.455.6.9,1.2a.369.369,0,0,1-.078.517A.364.364,0,0,1,1050.8,242.333Zm-58.006-2.115h-.033a.369.369,0,0,1-.336-.4q.065-.762.156-1.5a.37.37,0,0,1,.734.09q-.089.726-.153,1.475A.37.37,0,0,1,992.794,240.217Zm55.721-.845a.369.369,0,0,1-.288-.138q-.467-.58-.944-1.15a.37.37,0,1,1,.567-.475q.481.576.953,1.161a.37.37,0,0,1-.288.6Zm-2.41-2.858a.366.366,0,0,1-.277-.126q-.493-.559-.994-1.1a.37.37,0,1,1,.545-.5q.507.551,1,1.116a.37.37,0,0,1-.277.615Zm-52.819-.006a.35.35,0,0,1-.067-.006.371.371,0,0,1-.3-.43q.139-.755.3-1.482a.37.37,0,1,1,.721.165q-.163.711-.3,1.45A.37.37,0,0,1,993.286,236.509Zm50.279-2.739a.369.369,0,0,1-.265-.112c-.348-.357-.7-.711-1.049-1.06a.37.37,0,0,1,.52-.526q.534.529,1.06,1.07a.369.369,0,0,1-.266.627Zm-49.4-.9a.365.365,0,0,1-.108-.016.37.37,0,0,1-.246-.461q.224-.735.479-1.439a.369.369,0,1,1,.694.251q-.248.686-.465,1.4A.368.368,0,0,1,994.161,232.871Zm46.73-1.722a.372.372,0,0,1-.252-.1q-.546-.509-1.1-1a.37.37,0,1,1,.493-.552q.56.5,1.112,1.014a.37.37,0,0,1-.252.64Zm-45.41-1.776a.37.37,0,0,1-.336-.524q.321-.7.676-1.362a.37.37,0,0,1,.652.351q-.345.64-.656,1.319A.369.369,0,0,1,995.48,229.373Zm42.6-.7a.369.369,0,0,1-.237-.086q-.573-.479-1.154-.941a.37.37,0,1,1,.461-.578q.587.467,1.167.952a.37.37,0,0,1-.237.654Zm-2.943-2.316a.366.366,0,0,1-.22-.072q-.6-.444-1.208-.87a.37.37,0,0,1,.425-.606q.615.43,1.223.88a.37.37,0,0,1-.22.667Zm-37.838-.248a.369.369,0,0,1-.307-.576c.286-.424.587-.839.9-1.232a.37.37,0,0,1,.582.456c-.3.379-.588.779-.864,1.189A.371.371,0,0,1,997.3,226.109Zm34.758-1.879a.369.369,0,0,1-.2-.058q-.628-.4-1.262-.787a.37.37,0,1,1,.383-.633q.642.388,1.279.8a.369.369,0,0,1-.2.68Zm-32.4-1.016a.37.37,0,0,1-.263-.63c.357-.361.732-.711,1.115-1.041a.369.369,0,1,1,.482.56c-.367.317-.728.654-1.071,1A.367.367,0,0,1,999.661,223.214Zm29.18-.9a.363.363,0,0,1-.177-.045q-.661-.359-1.316-.691a.37.37,0,1,1,.334-.66q.663.336,1.336.7a.369.369,0,0,1-.177.694Zm-26.3-1.48a.37.37,0,0,1-.2-.678c.424-.28.864-.546,1.308-.788a.37.37,0,1,1,.354.649c-.425.232-.847.487-1.253.756A.37.37,0,0,1,1002.544,220.838Zm22.942-.177a.358.358,0,0,1-.149-.032q-.688-.3-1.368-.575a.37.37,0,0,1,.274-.687q.692.276,1.392.586a.37.37,0,0,1-.149.708Zm-3.491-1.348a.372.372,0,0,1-.115-.018q-.713-.236-1.417-.433a.37.37,0,1,1,.2-.712q.718.2,1.447.442a.37.37,0,0,1-.116.722Zm-16.137-.2a.37.37,0,0,1-.135-.714c.467-.184.953-.352,1.443-.5a.37.37,0,0,1,.212.708c-.47.141-.936.3-1.385.478A.363.363,0,0,1,1005.857,219.117Zm12.526-.774a.371.371,0,0,1-.075-.007q-.734-.151-1.456-.259a.37.37,0,0,1,.11-.731q.74.111,1.494.266a.37.37,0,0,1-.073.732Zm-8.93-.231a.37.37,0,0,1-.064-.734c.494-.087,1-.158,1.509-.209a.37.37,0,0,1,.075.736c-.489.05-.978.118-1.455.2A.379.379,0,0,1,1009.453,218.111Zm5.221-.271h-.023q-.746-.048-1.473-.047a.37.37,0,0,1,0-.74q.75,0,1.519.049a.37.37,0,0,1-.023.739Z" transform="translate(-992.26 -217.053)" fill="#a8cff0"/>
        </g>
        <g id="Grupo_109108" data-name="Grupo 109108" transform="translate(69.968 46.231)">
          <path id="Trazado_166117" data-name="Trazado 166117" d="M1087.494,281a.369.369,0,0,1-.347-.243l-.256-.691a.37.37,0,0,1,.694-.258l.256.7a.369.369,0,0,1-.22.474A.366.366,0,0,1,1087.494,281Z" transform="translate(-1086.868 -279.565)" fill="#a8cff0"/>
        </g>
      </g>
      <g id="Grupo_109113" data-name="Grupo 109113" transform="translate(35.495 101.411)">
        <g id="Grupo_109110" data-name="Grupo 109110" transform="translate(21.034)">
          <path id="Trazado_166118" data-name="Trazado 166118" d="M1069.349,355.6a.37.37,0,0,1-.343-.231q-.138-.341-.28-.68a.37.37,0,1,1,.682-.286q.144.344.284.689a.371.371,0,0,1-.2.481A.379.379,0,0,1,1069.349,355.6Z" transform="translate(-1068.697 -354.177)" fill="#eb4680"/>
        </g>
        <g id="Grupo_109111" data-name="Grupo 109111" transform="translate(2.632 2.738)">
          <path id="Trazado_166119" data-name="Trazado 166119" d="M1052.663,390.992h0c-.493,0-1-.027-1.5-.075a.37.37,0,0,1-.334-.4.385.385,0,0,1,.4-.334c.478.046.958.07,1.43.072a.37.37,0,0,1,0,.74Zm2.188-.155a.37.37,0,0,1-.054-.735,12.773,12.773,0,0,0,1.392-.288.37.37,0,1,1,.191.715,13.4,13.4,0,0,1-1.473.3A.357.357,0,0,1,1054.851,390.837Zm-5.82-.258a.411.411,0,0,1-.078-.008c-.472-.1-.958-.226-1.444-.366a.37.37,0,1,1,.206-.71c.47.135.939.254,1.395.354a.369.369,0,0,1-.078.731Zm9.314-.791a.369.369,0,0,1-.157-.7,11.392,11.392,0,0,0,1.241-.683.37.37,0,1,1,.4.624,11.8,11.8,0,0,1-1.322.727A.373.373,0,0,1,1058.345,389.789Zm-12.813-.28a.374.374,0,0,1-.135-.025q-.678-.266-1.367-.581a.37.37,0,0,1,.308-.673q.671.306,1.33.564a.37.37,0,0,1-.135.714Zm15.83-1.765a.369.369,0,0,1-.251-.64,12.314,12.314,0,0,0,.983-1.026.37.37,0,0,1,.562.48,12.968,12.968,0,0,1-1.043,1.088A.365.365,0,0,1,1061.362,387.744Zm2.3-2.835a.366.366,0,0,1-.193-.054.37.37,0,0,1-.123-.508c.243-.4.475-.82.686-1.254a.37.37,0,1,1,.664.325c-.222.453-.464.9-.719,1.313A.371.371,0,0,1,1063.661,384.909Zm1.54-3.312a.357.357,0,0,1-.12-.021.368.368,0,0,1-.23-.469c.152-.444.293-.907.416-1.376a.37.37,0,0,1,.715.189c-.129.486-.274.966-.432,1.427A.37.37,0,0,1,1065.2,381.6Zm.879-3.549a.344.344,0,0,1-.061-.005.369.369,0,0,1-.3-.425q.116-.7.194-1.43a.37.37,0,1,1,.735.078q-.08.754-.2,1.473A.37.37,0,0,1,1066.081,378.048Zm.345-3.643h-.012a.37.37,0,0,1-.358-.382q.017-.5.016-1.01l0-.438a.37.37,0,0,1,.365-.375.39.39,0,0,1,.375.365l0,.448q0,.525-.016,1.035A.37.37,0,0,1,1066.426,374.4Zm-.085-3.661a.369.369,0,0,1-.368-.342c-.036-.479-.081-.962-.136-1.446a.37.37,0,0,1,.736-.082q.082.739.138,1.472a.371.371,0,0,1-.341.4Zm-.443-3.636a.37.37,0,0,1-.364-.308q-.119-.713-.263-1.43a.37.37,0,0,1,.725-.146q.146.729.268,1.452a.371.371,0,0,1-.3.426A.353.353,0,0,1,1065.9,367.107Zm-.75-3.585a.371.371,0,0,1-.359-.28q-.175-.7-.374-1.407a.37.37,0,1,1,.711-.2q.2.713.381,1.427a.372.372,0,0,1-.268.45A.422.422,0,0,1,1065.148,363.523ZM1064.127,360a.37.37,0,0,1-.351-.254q-.227-.689-.473-1.377a.37.37,0,1,1,.7-.249q.25.7.479,1.395a.369.369,0,0,1-.235.467A.35.35,0,0,1,1064.127,360Z" transform="translate(-1043.814 -357.879)" fill="#eb4680"/>
        </g>
        <g id="Grupo_109112" data-name="Grupo 109112" transform="translate(0 31.693)">
          <path id="Trazado_166120" data-name="Trazado 166120" d="M1041.271,398.134a.365.365,0,0,1-.178-.045q-.325-.18-.652-.368a.37.37,0,0,1,.368-.641q.322.184.64.36a.37.37,0,0,1-.177.694Z" transform="translate(-1040.255 -397.03)" fill="#eb4680"/>
        </g>
      </g>
      <g id="Grupo_109114" data-name="Grupo 109114" transform="translate(55.936 100.486)">
        <path id="Trazado_166121" data-name="Trazado 166121" d="M1068.264,355.637h-.023a.369.369,0,0,1-.346-.392l.123-1.972a.37.37,0,0,1,.589-.274l1.664,1.233a.37.37,0,1,1-.441.594l-1.117-.828-.081,1.294A.369.369,0,0,1,1068.264,355.637Z" transform="translate(-1067.894 -352.926)" fill="#eb4680"/>
      </g>
    </g>
    <path id="Trazado_166122" data-name="Trazado 166122" d="M881.56,266.424c-.013-2.428-3.433-4.4-7.638-4.41s-7.6,1.955-7.591,4.383c.013,2.222,2.881,4.059,6.589,4.361l.007,1.231c-.7.107-1.223.473-1.22.914l.022,4.2c0,.526.744.954,1.655.956l1.248,0c.911,0,1.647-.424,1.644-.95l-.022-4.2c0-.44-.526-.808-1.23-.919l-.007-1.231C878.724,270.472,881.572,268.646,881.56,266.424Z" transform="translate(-29.438 -16.931)" fill="#fff"/>
    <g id="Grupo_109117" data-name="Grupo 109117" transform="translate(802.819 197.005)">
      <path id="Trazado_166123" data-name="Trazado 166123" d="M961.733,422.036,829.525,345.66c-5.119-2.955-9.268-10.883-9.268-17.708V207.684c0-6.825,4.15-9.962,9.268-7.007l132.208,76.376c5.118,2.955,9.268,10.883,9.268,17.707V415.029C971,421.854,966.851,424.99,961.733,422.036Z" transform="translate(-820.257 -197.672)" fill="#d1ebff"/>
      <path id="Trazado_166124" data-name="Trazado 166124" d="M966.631,274.492,834.423,198.117a6.262,6.262,0,0,0-5.423-.8c-.194.075-3.815,1.946-4,2.046l-.009.006c1.579-.767,3.582-.624,5.766.637l132.208,76.376c5.118,2.955,9.268,10.883,9.268,17.707V414.362c0,4.259-1.617,7.081-4.076,7.883a1.535,1.535,0,0,0,.812-.276c.117-.068,3.96-2.148,4.071-2.227,1.76-1.233,2.857-3.766,2.857-7.274V292.2C975.9,285.375,971.749,277.447,966.631,274.492Z" transform="translate(-821.49 -197.005)" fill="#3f92d1"/>
      <path id="Trazado_166125" data-name="Trazado 166125" d="M965.593,275.166,833.385,198.79a6.263,6.263,0,0,0-5.422-.8c-.194.075-2.778,1.448-2.96,1.549l-.009.006c1.579-.767,3.582-.624,5.766.637l132.208,76.376Z" transform="translate(-821.49 -197.18)" fill="#4f9fdb"/>
      <path id="Trazado_166126" data-name="Trazado 166126" d="M963.633,276.756,831.424,200.38a6.15,6.15,0,0,0-5.582-.713,6.847,6.847,0,0,1,4.471,1.046L962.52,277.089c5.118,2.955,9.268,10.883,9.268,17.708V415.065c0,4.026-1.451,6.754-3.686,7.72,2.859-.454,4.8-3.391,4.8-8.054V294.464C972.9,287.639,968.751,279.711,963.633,276.756Z" transform="translate(-821.712 -197.597)" fill="#fff" style="mix-blend-mode: screen;isolation: isolate"/>
      <path id="Trazado_166127" data-name="Trazado 166127" d="M827.3,225V334.577c0,5.352,2.548,10.583,6.666,13.2l130.8,75.552.217.124a1.774,1.774,0,0,0,2.653-1.539V306.07Z" transform="translate(-822.09 -204.296)" fill="#03336e"/>
      <path id="Trazado_166128" data-name="Trazado 166128" d="M967.441,422.467l-.217-.124-130.8-75.551c-4.119-2.618-6.666-7.849-6.666-13.2V226.425L827.3,225V334.577c0,5.352,2.548,10.583,6.666,13.2l130.8,75.552.217.124a1.77,1.77,0,0,0,2.544-.954C967.495,422.486,967.467,422.482,967.441,422.467Z" transform="translate(-822.09 -204.296)" fill="#001a46"/>
      <g id="Grupo_109116" data-name="Grupo 109116" transform="translate(125.019 79.169)">
        <path id="Trazado_166129" data-name="Trazado 166129" d="M1007.093,316.193a5.621,5.621,0,0,0,2.551,4.4c1.409.814,2.551.163,2.551-1.454a5.62,5.62,0,0,0-2.551-4.4C1008.236,313.926,1007.093,314.577,1007.093,316.193Z" transform="translate(-993.936 -306.746)" fill="#ffb476"/>
        <path id="Trazado_166130" data-name="Trazado 166130" d="M998.2,311.026a5.62,5.62,0,0,0,2.551,4.4c1.409.813,2.551.162,2.551-1.454a5.62,5.62,0,0,0-2.551-4.4C999.34,308.758,998.2,309.41,998.2,311.026Z" transform="translate(-991.62 -305.4)" fill="#ff6148"/>
        <path id="Trazado_166131" data-name="Trazado 166131" d="M989.3,305.859a5.621,5.621,0,0,0,2.55,4.4c1.409.813,2.551.162,2.551-1.455a5.619,5.619,0,0,0-2.551-4.4C990.445,303.591,989.3,304.242,989.3,305.859Z" transform="translate(-989.303 -304.054)" fill="#2efec7"/>
      </g>
    </g>
    <path id="Trazado_166132" data-name="Trazado 166132" d="M939.944,299.52l-9.594-5.539c-.969-.56-1.754-.112-1.754,1a3.866,3.866,0,0,0,1.754,3.026l9.594,5.539c.969.56,1.755.112,1.755-1A3.867,3.867,0,0,0,939.944,299.52Zm15.793,9.118-9.593-5.539c-.969-.559-1.755-.112-1.755,1a3.866,3.866,0,0,0,1.755,3.027l9.593,5.539c.969.56,1.755.112,1.755-1A3.867,3.867,0,0,0,955.737,308.638Zm15.794,9.119-9.594-5.539c-.969-.56-1.755-.112-1.755,1a3.866,3.866,0,0,0,1.755,3.026l9.594,5.539c.969.56,1.755.112,1.755-1A3.867,3.867,0,0,0,971.531,317.756Zm15.793,9.118-9.593-5.539c-.97-.559-1.755-.112-1.755,1a3.866,3.866,0,0,0,1.755,3.027l9.593,5.539c.97.56,1.755.112,1.755-1A3.866,3.866,0,0,0,987.324,326.874Z" transform="translate(-45.654 -25.194)" fill="#72b5e8"/>
    <g id="Grupo_109121" data-name="Grupo 109121" transform="translate(759.441 227.75)">
      <g id="Grupo_109118" data-name="Grupo 109118" transform="translate(6.726)">
        <path id="Trazado_166133" data-name="Trazado 166133" d="M892.471,311.287v41.285l4.516-2.643v-41.4Z" transform="translate(-802.413 -256.795)" fill="#2672ab"/>
        <path id="Trazado_166134" data-name="Trazado 166134" d="M860.773,294.027v41.285L770.7,283.657v-41.4Z" transform="translate(-770.698 -239.535)" fill="#3f92d1"/>
        <path id="Trazado_166135" data-name="Trazado 166135" d="M770.7,241.3l90.075,51.773,4.5-2.761-90.1-51.731Z" transform="translate(-770.698 -238.577)" fill="#72b5e8"/>
        <path id="Trazado_166136" data-name="Trazado 166136" d="M770.7,242.254l90.075,51.773,4.5-2.761L860.76,293.4Z" transform="translate(-770.698 -239.535)" fill="#fff" opacity="0.7"/>
      </g>
      <g id="Grupo_109119" data-name="Grupo 109119" transform="translate(42.87 30.284)">
        <path id="Trazado_166137" data-name="Trazado 166137" d="M864.645,341.527v-1.753l-28.429-16.161v1.753Z" transform="translate(-823.905 -291.009)" fill="#fff"/>
        <path id="Trazado_166138" data-name="Trazado 166138" d="M819.569,279.527v1.753l47.786,27.337v-1.753Z" transform="translate(-819.569 -279.527)" fill="#fff"/>
        <path id="Trazado_166139" data-name="Trazado 166139" d="M836.395,308.941l-16.825-9.714v1.753l16.825,9.714Z" transform="translate(-819.569 -284.657)" fill="#fff"/>
        <path id="Trazado_166140" data-name="Trazado 166140" d="M857.716,331.1v1.753l6.951,3.761v-1.753Z" transform="translate(-829.504 -292.959)" fill="#fff"/>
        <path id="Trazado_166141" data-name="Trazado 166141" d="M846.7,305.042l-27.133-15.665v1.753L846.7,306.8Z" transform="translate(-819.569 -282.092)" fill="#fff"/>
        <path id="Trazado_166142" data-name="Trazado 166142" d="M829.508,300.04l-9.938-5.738v1.753l9.938,5.738Z" transform="translate(-819.569 -283.375)" fill="#fff"/>
        <path id="Trazado_166143" data-name="Trazado 166143" d="M829.591,316.616l19.074,11.013v-1.753l-19.074-11.013Z" transform="translate(-822.18 -288.73)" fill="#fff"/>
        <path id="Trazado_166144" data-name="Trazado 166144" d="M835.341,303.408v1.753l26.78,15.209v-1.753Z" transform="translate(-823.677 -285.746)" fill="#fff"/>
        <path id="Trazado_166145" data-name="Trazado 166145" d="M844.654,313.709v1.753l13.389,7.73V321.44Z" transform="translate(-826.102 -288.429)" fill="#fff"/>
        <path id="Trazado_166146" data-name="Trazado 166146" d="M825.255,312.36l-5.686-3.283v1.753l5.686,3.283Z" transform="translate(-819.569 -287.223)" fill="#fff"/>
        <path id="Trazado_166147" data-name="Trazado 166147" d="M858.591,313.659l18.927,10.675v-1.753l-18.927-10.675Z" transform="translate(-829.732 -287.96)" fill="#fff"/>
        <path id="Trazado_166148" data-name="Trazado 166148" d="M873.885,327.073l7.616,4.4v-1.753l-7.616-4.4Z" transform="translate(-833.716 -291.453)" fill="#fff"/>
        <path id="Trazado_166149" data-name="Trazado 166149" d="M819.569,286.2l47.786,27.337v-1.753l-47.786-27.337Z" transform="translate(-819.569 -280.809)" fill="#fff"/>
        <path id="Trazado_166150" data-name="Trazado 166150" d="M865.091,327.262l14.12,7.9v-1.753l-14.12-7.9Z" transform="translate(-831.425 -291.502)" fill="#fff"/>
        <path id="Trazado_166151" data-name="Trazado 166151" d="M830.155,320.114,819.569,314v1.753l10.585,6.111Z" transform="translate(-819.569 -288.506)" fill="#fff"/>
        <path id="Trazado_166152" data-name="Trazado 166152" d="M876.989,348.566l5.32,3.072v-1.753l-5.32-3.072Z" transform="translate(-834.524 -297.051)" fill="#fff"/>
        <path id="Trazado_166153" data-name="Trazado 166153" d="M869.448,339.287l10.9,6.292v-1.753l-10.9-6.292Z" transform="translate(-832.56 -294.634)" fill="#fff"/>
        <path id="Trazado_166154" data-name="Trazado 166154" d="M819.569,305.905l47.786,27.337v-1.753l-47.786-27.337Z" transform="translate(-819.569 -285.94)" fill="#fff"/>
      </g>
      <path id="Trazado_166155" data-name="Trazado 166155" d="M798.785,266.742l-15.71-9.087c-2.747-1.586-4.973.1-4.973,3.759V279.6c0,3.662,2.226,7.916,4.973,9.5l15.71,9.088c2.747,1.586,4.973-.1,4.973-3.76V276.244C803.758,272.582,801.532,268.328,798.785,266.742Z" transform="translate(-765.9 -243.39)" fill="#2672ab"/>
      <path id="Trazado_166156" data-name="Trazado 166156" d="M800.727,296.721l-15.71-9.087c-2.747-1.586-4.973-5.84-4.973-9.5V259.948a5.966,5.966,0,0,1,.615-2.838c-1.524.253-2.556,1.825-2.556,4.318v18.184c0,3.662,2.226,7.916,4.973,9.5l15.71,9.087c1.879,1.085,3.512.639,4.358-.921A3.658,3.658,0,0,1,800.727,296.721Z" transform="translate(-765.9 -243.404)" fill="#084c94"/>
      <g id="Grupo_109120" data-name="Grupo 109120" transform="translate(0 17.252)">
        <path id="Trazado_166157" data-name="Trazado 166157" d="M782.285,273.617l-15.71-9.087c-2.747-1.586-4.973.1-4.973,3.759v18.184c0,3.662,2.226,7.916,4.973,9.5l15.71,9.088c2.747,1.586,4.973-.1,4.973-3.76V283.119C787.258,279.457,785.032,275.2,782.285,273.617Z" transform="translate(-761.603 -262.432)" fill="#246681"/>
        <path id="Trazado_166158" data-name="Trazado 166158" d="M785.441,271.586l-15.71-9.088a3.248,3.248,0,0,0-3.106-.336l-.027-.029-2.718,1.6.01.033a3.161,3.161,0,0,1,3.278.239l15.71,9.088c2.747,1.586,4.974,5.84,4.974,9.5v18.184a4.746,4.746,0,0,1-1.385,3.784l1.515-1a4.477,4.477,0,0,0,2.432-4.289V281.088C790.415,277.426,788.188,273.172,785.441,271.586Z" transform="translate(-762.196 -261.904)" fill="#083142"/>
        <path id="Trazado_166159" data-name="Trazado 166159" d="M783.183,273.3l-15.71-9.088a3.075,3.075,0,0,0-3.5-.1,3.357,3.357,0,0,1,2.893.425l15.71,9.088c2.747,1.586,4.973,5.84,4.973,9.5v18.184a4.654,4.654,0,0,1-1.475,3.86c1.257-.477,2.08-1.964,2.08-4.185V282.8C788.156,279.142,785.93,274.888,783.183,273.3Z" transform="translate(-762.221 -262.351)" fill="#fff" opacity="0.7"/>
        <path id="Trazado_166160" data-name="Trazado 166160" d="M767.237,271.525v20.816l17.037,9.84V281.365Zm15.945,28.764-14.853-8.58V273.417l14.853,8.578Z" transform="translate(-763.07 -264.41)" fill="#fff"/>
        <path id="Trazado_166161" data-name="Trazado 166161" d="M783.7,288.423c0,1.364-.964,1.913-2.152,1.227a4.742,4.742,0,0,1-2.151-3.712c0-1.364.963-1.913,2.151-1.227A4.742,4.742,0,0,1,783.7,288.423Z" transform="translate(-766.237 -267.767)" fill="#fff"/>
        <path id="Trazado_166162" data-name="Trazado 166162" d="M768.009,290.174l4.436-5.732,4.5,11.4,3.276-2.661L783.842,303l-.068,1-15.7-8.394Z" transform="translate(-763.271 -267.774)" fill="#fff"/>
      </g>
    </g>
    <g id="Grupo_109124" data-name="Grupo 109124" transform="translate(946.983 249.817)">
      <g id="Grupo_109122" data-name="Grupo 109122">
        <path id="Trazado_166163" data-name="Trazado 166163" d="M1042.329,287.259c0,2.829-.975,4.832-2.563,5.8-.048.029-2.711,1.681-2.76,1.708-1.651.923-.595-1.172-3.1-2.62-5.046-2.914-9.137-9.97-9.137-15.76,0-2.864-2.647-2.887-1.026-3.843.045-.027,3.026-1.729,3.073-1.754,1.646-.891,3.9-.727,6.378.706C1038.239,274.412,1042.329,281.468,1042.329,287.259Z" transform="translate(-1017.281 -268.891)" fill="#ffb476"/>
        <path id="Trazado_166164" data-name="Trazado 166164" d="M1031.054,273.613c-2.419-1.4-4.617-1.585-6.251-.768a7.191,7.191,0,0,1,5.462,1.075c5.046,2.913,9.137,9.969,9.137,15.76,0,3.015-1.111,5.09-2.886,5.977,2.23-.623,3.675-2.844,3.675-6.284C1040.192,283.582,1036.1,276.526,1031.054,273.613Z" transform="translate(-1017.694 -269.442)" fill="#fff"/>
        <ellipse id="Elipse_5035" data-name="Elipse 5035" cx="7.437" cy="12.882" rx="7.437" ry="12.882" transform="matrix(0.863, -0.505, 0.505, 0.863, 0, 7.507)" fill="#fac598"/>
      </g>
      <path id="Trazado_166165" data-name="Trazado 166165" d="M1029.549,282.608c0,.814-.575,1.141-1.284.731a2.828,2.828,0,0,1-1.284-2.214c0-.814.575-1.142,1.284-.732A2.829,2.829,0,0,1,1029.549,282.608Z" transform="translate(-1018.261 -271.489)" fill="#ffb476"/>
      <path id="Trazado_166166" data-name="Trazado 166166" d="M1036.571,286.661c0,.814-.575,1.142-1.284.732a2.828,2.828,0,0,1-1.284-2.214c0-.814.575-1.142,1.284-.732A2.83,2.83,0,0,1,1036.571,286.661Z" transform="translate(-1020.09 -272.544)" fill="#ffb476"/>
      <path id="Trazado_166167" data-name="Trazado 166167" d="M1025.667,287.981l1.2.2a8.728,8.728,0,0,0,3.677,5.1c1.6.923,3.06.619,3.638-.757l1.185,1.211c-.766,1.824-2.7,2.228-4.823,1A11.573,11.573,0,0,1,1025.667,287.981Z" transform="translate(-1017.919 -273.511)" fill="#ffb476"/>
      <path id="Trazado_166168" data-name="Trazado 166168" d="M1028.64,283.084a2.828,2.828,0,0,1-1.284-2.214,1.071,1.071,0,0,1,.173-.626c-.331.075-.548.389-.548.888a2.828,2.828,0,0,0,1.284,2.214c.478.277.89.211,1.112-.106A1.029,1.029,0,0,1,1028.64,283.084Z" transform="translate(-1018.261 -271.496)" fill="#fd9844"/>
      <path id="Trazado_166169" data-name="Trazado 166169" d="M1035.662,287.138a2.828,2.828,0,0,1-1.284-2.214,1.076,1.076,0,0,1,.172-.626c-.331.075-.547.389-.547.888a2.828,2.828,0,0,0,1.284,2.214c.478.276.89.211,1.111-.107A1.027,1.027,0,0,1,1035.662,287.138Z" transform="translate(-1020.09 -272.552)" fill="#fd9844"/>
      <g id="Grupo_109123" data-name="Grupo 109123" transform="translate(7.748 14.47)">
        <path id="Trazado_166170" data-name="Trazado 166170" d="M1037.132,294.275l-.147-.15a2.189,2.189,0,0,1-.549.785A1.926,1.926,0,0,0,1037.132,294.275Z" transform="translate(-1028.472 -289.581)" fill="#fd9844"/>
        <path id="Trazado_166171" data-name="Trazado 166171" d="M1030.916,294.478a11.527,11.527,0,0,1-4.775-6.417l-.475-.08a11.573,11.573,0,0,0,4.875,6.76c1.6.921,3.087.919,4.055.084A3.666,3.666,0,0,1,1030.916,294.478Z" transform="translate(-1025.667 -287.981)" fill="#fd9844"/>
      </g>
    </g>
    <g id="Grupo_109132" data-name="Grupo 109132" transform="translate(868.979 299.638)">
      <g id="Grupo_109125" data-name="Grupo 109125" transform="translate(0 0)">
        <path id="Trazado_166172" data-name="Trazado 166172" d="M1042.989,415.082V465.5l4.516-2.643V412.322Z" transform="translate(-944.426 -355.715)" fill="#2672ab"/>
        <path id="Trazado_166173" data-name="Trazado 166173" d="M1008.3,396.105v50.419l-98.58-56.531V339.457Z" transform="translate(-909.716 -336.738)" fill="#3f92d1"/>
        <path id="Trazado_166174" data-name="Trazado 166174" d="M909.716,338.5l98.58,56.648,4.5-2.761-98.609-56.607Z" transform="translate(-909.716 -335.781)" fill="#72b5e8"/>
        <path id="Trazado_166175" data-name="Trazado 166175" d="M909.716,339.457l98.58,56.648,4.5-2.761-4.511,2.132Z" transform="translate(-909.716 -336.738)" fill="#fff" opacity="0.7"/>
      </g>
      <ellipse id="Elipse_5036" data-name="Elipse 5036" cx="12.591" cy="21.809" rx="12.591" ry="21.809" transform="translate(55.249 60.04) rotate(-30.311)" fill="#2672ab"/>
      <path id="Trazado_166176" data-name="Trazado 166176" d="M1010.033,443.739c-8.543-4.933-15.469-16.879-15.469-26.683,0-3.658.965-6.5,2.617-8.37-2.542,1.7-4.1,5.022-4.1,9.664,0,9.8,6.926,21.75,15.469,26.682,5.356,3.092,10.076,2.693,12.852-.45C1018.58,446.468,1014.531,446.336,1010.033,443.739Z" transform="translate(-931.429 -354.769)" fill="#084c94"/>
      <g id="Grupo_109127" data-name="Grupo 109127" transform="translate(5.724 26.607)">
        <path id="Trazado_166177" data-name="Trazado 166177" d="M945.439,375.558l-3.326-1.921v37.484l3.326,1.921Zm4.791-1.88-3.327-1.92v42.087l3.327,1.921Zm4.931,8.468-3.326-1.921v36.437l3.326,1.921Zm-22.91,2.639v20.536l3.326,1.92V386.706Zm8.258-5.708-3.326-1.921v30.982l3.326,1.92ZM960,392.551l-3.326-1.92v28.849L960,421.4Zm4.744,11.9-3.327-1.92v19.724l3.327,1.921Zm-34.1-23.221-3.326-1.921v23.042l3.326,1.92Zm-13.189,1.361v13.961l3.327,1.921V384.506Zm8.258-5.476-3.326-1.92v24.175l3.326,1.921Z" transform="translate(-917.456 -371.758)" fill="#2672ab"/>
        <path id="Trazado_166178" data-name="Trazado 166178" d="M945.439,392.469l-3.326-1.921v22.77l3.326,1.921Zm4.791-10.353L946.9,380.2v35.846l3.327,1.921ZM955.161,391l-3.326-1.92V418.86l3.326,1.921Zm-22.91.976v15.546l3.326,1.92V393.893Zm8.258-.61-3.326-1.92v20.894l3.326,1.92Zm-9.864-6.054-3.326-1.921v21.157l3.326,1.92ZM917.456,394.7v4.043l3.327,1.921v-4.043Zm8.258.008-3.326-1.921v8.773l3.326,1.921ZM960,400.119l-3.326-1.921v23.48L960,423.6Zm4.744,9.452-3.327-1.921v16.8l3.327,1.921Z" transform="translate(-917.456 -373.956)" fill="#a8cff0"/>
        <g id="Grupo_109126" data-name="Grupo 109126" transform="translate(0 6.24)">
          <path id="Trazado_166179" data-name="Trazado 166179" d="M967.268,394.54l-3.326-1.92V392.2l3.326,1.92Z" transform="translate(-929.563 -383.323)" fill="#fff"/>
          <path id="Trazado_166180" data-name="Trazado 166180" d="M960.6,382.532l-3.326-1.92V380.2l3.326,1.92Z" transform="translate(-927.827 -380.196)" fill="#fff"/>
          <path id="Trazado_166181" data-name="Trazado 166181" d="M980.222,419.655l-3.326-1.92v-.416l3.326,1.92Z" transform="translate(-932.937 -389.864)" fill="#fff"/>
          <path id="Trazado_166182" data-name="Trazado 166182" d="M954.123,396.53l-3.326-1.92v-.416l3.326,1.92Z" transform="translate(-926.14 -383.841)" fill="#fff"/>
          <path id="Trazado_166183" data-name="Trazado 166183" d="M973.809,406.874l-3.326-1.92v-.416l3.326,1.92Z" transform="translate(-931.267 -386.536)" fill="#fff"/>
          <path id="Trazado_166184" data-name="Trazado 166184" d="M927.45,399.56l-3.326-1.92v-.416l3.326,1.92Z" transform="translate(-919.193 -384.631)" fill="#fff"/>
          <path id="Trazado_166185" data-name="Trazado 166185" d="M934.118,386.848l-3.326-1.92v-.416l3.326,1.92Z" transform="translate(-920.93 -381.32)" fill="#fff"/>
          <path id="Trazado_166186" data-name="Trazado 166186" d="M920.783,401.73v.416l-3.326-1.92v-.416Z" transform="translate(-917.456 -385.304)" fill="#fff"/>
          <path id="Trazado_166187" data-name="Trazado 166187" d="M947.455,395.035l-3.326-1.92V392.7l3.326,1.92Z" transform="translate(-924.403 -383.452)" fill="#fff"/>
          <path id="Trazado_166188" data-name="Trazado 166188" d="M940.787,398.455l-3.326-1.92v-.416l3.326,1.92Z" transform="translate(-922.667 -384.343)" fill="#fff"/>
        </g>
      </g>
      <g id="Grupo_109131" data-name="Grupo 109131" transform="translate(57.864 53.919)">
        <g id="Grupo_109128" data-name="Grupo 109128" transform="translate(0.138)">
          <path id="Trazado_166189" data-name="Trazado 166189" d="M992.371,420.728c.2-7.41,5.589-10.356,12.2-6.541a25.087,25.087,0,0,1,8.7,9.212l2.438-.613c-2.777-5.037-6.74-9.48-11.135-12.018-8.316-4.8-15.089-1.006-15.191,8.451l1.95,1.771Z" transform="translate(-988.465 -408.688)" fill="#ffb476"/>
          <path id="Trazado_166190" data-name="Trazado 166190" d="M1010.371,448.3a10.493,10.493,0,0,1-6.125-1.628c-6.259-3.613-11.427-12.029-12.128-19.4l-2.983-1.5c0,.054-1,.257-.992.311.862,9.18,8.31,19.517,16.1,24.016,2.83,1.634,4.746,2.493,7.017,2.252.1-.01.924-.246,1.019-.26Z" transform="translate(-988.144 -413.134)" fill="#ffb476"/>
          <path id="Trazado_166191" data-name="Trazado 166191" d="M1022.448,431.393a23.327,23.327,0,0,1,2.364,9.619c0,4.428-1.8,7.336-4.608,8.288l1.889,3.739c3.471-1.194,5.7-4.814,5.7-10.307a29,29,0,0,0-2.921-11.949Z" transform="translate(-996.494 -414.443)" fill="#ffb476"/>
        </g>
        <path id="Trazado_166192" data-name="Trazado 166192" d="M1011.877,435.046a10.4,10.4,0,0,1-2.143-2.565c-.354-.593-.342-1.237,0-1.437a2.734,2.734,0,0,0,1.093-1.22c.376.1.842-.035.842-.549a2.035,2.035,0,0,0-.543-1.387,6.814,6.814,0,0,0-3.445-6.05,3.211,3.211,0,0,0-2.094-.59c-.118.022-1.143.292-1.243.342-.7.348-.056,1.1-.108,2.32-.31-.069-.542.234-.542.76a2.49,2.49,0,0,0,.841,1.521,12.237,12.237,0,0,0,1.094,2.482c.345.6.357,1.257,0,1.441a2.823,2.823,0,0,1-2.142.091,1.61,1.61,0,0,0-.895-.036c-.075.021-1,.26-1.064.294-.481.239.067.589.067,1.405v2.318a1.563,1.563,0,0,0,.708,1.223l9.933,6.574c.172.1,1.147-.247,1.27-.294a.464.464,0,0,0,.257-.478v-2.318A5.52,5.52,0,0,0,1011.877,435.046Z" transform="translate(-991.442 -411.952)" fill="#ffb476"/>
        <g id="Grupo_109129" data-name="Grupo 109129" transform="translate(0.382 0.191)">
          <path id="Trazado_166193" data-name="Trazado 166193" d="M991.468,420.986c.2-7.41,5.589-10.356,12.2-6.541a25.087,25.087,0,0,1,8.7,9.212l2.438-.613c-2.777-5.037-6.74-9.48-11.136-12.018-8.316-4.8-15.089-1.006-15.19,8.451Z" transform="translate(-988.474 -408.946)" fill="#fff"/>
          <path id="Trazado_166194" data-name="Trazado 166194" d="M1009.818,448.555a10.492,10.492,0,0,1-6.125-1.628c-6.259-3.613-11.427-12.029-12.128-19.4l-2.983-1.5c.8,9.219,7.272,19.8,15.111,24.327a12.766,12.766,0,0,0,8.036,1.992Z" transform="translate(-988.502 -413.392)" fill="#fff"/>
          <path id="Trazado_166195" data-name="Trazado 166195" d="M1021.545,431.651a23.327,23.327,0,0,1,2.364,9.619c0,4.428-1.8,7.336-4.608,8.288l1.889,3.739c3.471-1.194,5.7-4.814,5.7-10.307a29,29,0,0,0-2.921-11.949Z" transform="translate(-996.503 -414.701)" fill="#fff"/>
        </g>
        <path id="Trazado_166196" data-name="Trazado 166196" d="M1011.067,435.3a10.406,10.406,0,0,1-2.143-2.565c-.354-.593-.342-1.237,0-1.437a2.735,2.735,0,0,0,1.093-1.22c.376.1.842-.035.842-.549a2.038,2.038,0,0,0-.542-1.387,6.816,6.816,0,0,0-3.446-6.05c-2.585-1.492-3.353-.069-3.445,2.072-.31-.069-.542.234-.542.76a2.49,2.49,0,0,0,.841,1.521,12.242,12.242,0,0,0,1.094,2.482c.345.6.357,1.257,0,1.441a2.823,2.823,0,0,1-2.142.091c-1.085-.328-1.892.327-1.892,1.663v2.318a1.563,1.563,0,0,0,.708,1.222l10.75,6.206c.392.226.709.045.709-.4v-2.318A5.52,5.52,0,0,0,1011.067,435.3Z" transform="translate(-991.3 -412.02)" fill="#fff"/>
        <g id="Grupo_109130" data-name="Grupo 109130" transform="translate(0 0.286)">
          <path id="Trazado_166197" data-name="Trazado 166197" d="M990.952,421.115c.2-7.41,5.589-10.356,12.2-6.541a25.086,25.086,0,0,1,8.7,9.212l2.438-.613c-2.777-5.037-6.74-9.48-11.136-12.018-8.316-4.8-15.089-1.006-15.19,8.451Z" transform="translate(-987.958 -409.075)" fill="#fac598"/>
          <path id="Trazado_166198" data-name="Trazado 166198" d="M1009.3,448.684a10.493,10.493,0,0,1-6.125-1.628c-6.259-3.613-11.427-12.029-12.128-19.4l-2.983-1.5c.8,9.219,7.272,19.8,15.111,24.327a12.766,12.766,0,0,0,8.036,1.992Z" transform="translate(-987.986 -413.521)" fill="#fac598"/>
          <path id="Trazado_166199" data-name="Trazado 166199" d="M1021.029,431.78a23.327,23.327,0,0,1,2.364,9.619c0,4.428-1.8,7.336-4.608,8.288l1.889,3.739c3.471-1.194,5.7-4.814,5.7-10.307a29,29,0,0,0-2.921-11.949Z" transform="translate(-995.987 -414.83)" fill="#fac598"/>
        </g>
        <path id="Trazado_166200" data-name="Trazado 166200" d="M1010.551,435.433a10.4,10.4,0,0,1-2.142-2.565c-.354-.593-.342-1.237,0-1.437a2.735,2.735,0,0,0,1.093-1.22c.376.1.842-.035.842-.549a2.038,2.038,0,0,0-.542-1.387,6.816,6.816,0,0,0-3.446-6.05c-2.585-1.492-3.353-.07-3.445,2.072-.31-.069-.542.234-.542.76a2.49,2.49,0,0,0,.841,1.521,12.232,12.232,0,0,0,1.094,2.482c.345.6.357,1.257,0,1.441a2.824,2.824,0,0,1-2.143.091c-1.085-.328-1.892.327-1.892,1.663v2.318a1.563,1.563,0,0,0,.708,1.222l10.75,6.206c.392.226.709.045.709-.4v-2.318A5.521,5.521,0,0,0,1010.551,435.433Z" transform="translate(-991.166 -412.053)" fill="#fac598"/>
      </g>
    </g>
    <g id="Grupo_109134" data-name="Grupo 109134" transform="translate(791.414 299.091)">
      <g id="Grupo_109133" data-name="Grupo 109133">
        <path id="Trazado_166201" data-name="Trazado 166201" d="M910.456,398.2v21.113L914,417.366v-21.23Z" transform="translate(-832.344 -350.953)" fill="#04e2a7"/>
        <path id="Trazado_166202" data-name="Trazado 166202" d="M882.965,383v21.113l-78.129-45.107v-21.23Z" transform="translate(-804.836 -335.754)" fill="#2efec7"/>
        <path id="Trazado_166203" data-name="Trazado 166203" d="M804.836,337.063l78.129,45.224,3.524-2.063-78.158-45.182Z" transform="translate(-804.836 -335.042)" fill="#9affe4"/>
        <path id="Trazado_166204" data-name="Trazado 166204" d="M804.836,337.775,882.965,383l3.524-2.063-3.451,1.509Z" transform="translate(-804.836 -335.754)" fill="#fff" opacity="0.7"/>
      </g>
      <path id="Trazado_166205" data-name="Trazado 166205" d="M880.35,400l-70.3-41.03v-12.44l70.3,41.03Z" transform="translate(-806.193 -338.033)" fill="#fff"/>
    </g>
    <g id="Grupo_109137" data-name="Grupo 109137" transform="translate(813.795 218.223)">
      <g id="Grupo_109135" data-name="Grupo 109135" transform="translate(0 10.474)">
        <path id="Trazado_166206" data-name="Trazado 166206" d="M852.8,251.533v14.723l2.221-1.223V250.2Z" transform="translate(-839.709 -242.55)" fill="#ffb476"/>
        <path id="Trazado_166207" data-name="Trazado 166207" d="M848.205,249.3V264.02L835.1,256.448V241.611Z" transform="translate(-835.099 -240.314)" fill="#fac598"/>
        <path id="Trazado_166208" data-name="Trazado 166208" d="M835.1,241.154l13.106,7.686,2.2-1.337-13.135-7.646Z" transform="translate(-835.099 -239.857)" fill="#ffe1c7"/>
        <path id="Trazado_166209" data-name="Trazado 166209" d="M835.1,241.611l13.106,7.686,2.2-1.337-2.315.628Z" transform="translate(-835.099 -240.314)" fill="#fff"/>
      </g>
      <g id="Grupo_109136" data-name="Grupo 109136" transform="translate(3.418)">
        <path id="Trazado_166210" data-name="Trazado 166210" d="M868.381,244.6v23.841l3.6-1.981V242.436Z" transform="translate(-847.185 -230.055)" fill="#ff6148"/>
        <path id="Trazado_166211" data-name="Trazado 166211" d="M839.721,227.8l21.223,12.446,3.569-2.166-21.269-12.381Z" transform="translate(-839.721 -225.695)" fill="#ffb3a7"/>
        <path id="Trazado_166212" data-name="Trazado 166212" d="M839.721,228.535l21.223,12.446,3.569-2.166-3.473,1.654Z" transform="translate(-839.721 -226.434)" fill="#fff" opacity="0.7"/>
      </g>
      <path id="Trazado_166213" data-name="Trazado 166213" d="M839.721,228.535v9.888l11.232,6.587v14.04l9.991,5.772V240.981Z" transform="translate(-836.303 -226.434)" fill="#ff9584"/>
    </g>
    <g id="Grupo_109143" data-name="Grupo 109143" transform="translate(869.139 280.295)">
      <g id="Grupo_109138" data-name="Grupo 109138">
        <path id="Trazado_166214" data-name="Trazado 166214" d="M929.72,322.68v16.46l2.483-1.367V321.184Z" transform="translate(-915.086 -312.637)" fill="#ff6148"/>
        <path id="Trazado_166215" data-name="Trazado 166215" d="M924.585,320.18v16.46l-14.652-8.465V311.587Z" transform="translate(-909.932 -310.137)" fill="#ff9584"/>
        <path id="Trazado_166216" data-name="Trazado 166216" d="M909.932,311.076l14.652,8.593,2.464-1.5-14.684-8.548Z" transform="translate(-909.932 -309.626)" fill="#ffb3a7"/>
        <path id="Trazado_166217" data-name="Trazado 166217" d="M909.932,311.587l14.652,8.593,2.464-1.5-2.588.7Z" transform="translate(-909.932 -310.137)" fill="#fff" opacity="0.7"/>
      </g>
      <g id="Grupo_109139" data-name="Grupo 109139" transform="translate(19.228 11.093)">
        <path id="Trazado_166218" data-name="Trazado 166218" d="M955.72,337.68v16.46l2.483-1.368V336.184Z" transform="translate(-941.086 -327.637)" fill="#ff6148"/>
        <path id="Trazado_166219" data-name="Trazado 166219" d="M950.585,335.18v16.46l-14.652-8.465V326.587Z" transform="translate(-935.932 -325.137)" fill="#ff9584"/>
        <path id="Trazado_166220" data-name="Trazado 166220" d="M935.932,326.076l14.652,8.593,2.464-1.5-14.684-8.548Z" transform="translate(-935.932 -324.626)" fill="#ffb3a7"/>
        <path id="Trazado_166221" data-name="Trazado 166221" d="M935.932,326.587l14.652,8.593,2.464-1.5-2.588.7Z" transform="translate(-935.932 -325.137)" fill="#fff" opacity="0.7"/>
      </g>
      <g id="Grupo_109140" data-name="Grupo 109140" transform="translate(38.334 22.063)">
        <path id="Trazado_166222" data-name="Trazado 166222" d="M981.553,352.513v16.46l2.483-1.367V351.018Z" transform="translate(-966.919 -342.47)" fill="#ff6148"/>
        <path id="Trazado_166223" data-name="Trazado 166223" d="M976.418,350.013v16.46l-14.652-8.465V341.42Z" transform="translate(-961.766 -339.97)" fill="#ff9584"/>
        <path id="Trazado_166224" data-name="Trazado 166224" d="M961.766,340.91l14.652,8.593,2.464-1.5L964.2,339.46Z" transform="translate(-961.766 -339.46)" fill="#ffb3a7"/>
        <path id="Trazado_166225" data-name="Trazado 166225" d="M961.766,341.42l14.652,8.593,2.464-1.5-2.588.7Z" transform="translate(-961.766 -339.97)" fill="#fff" opacity="0.7"/>
      </g>
      <g id="Grupo_109141" data-name="Grupo 109141" transform="translate(57.193 32.787)">
        <path id="Trazado_166226" data-name="Trazado 166226" d="M1007.053,367.013v16.46l2.483-1.368V365.518Z" transform="translate(-992.419 -356.97)" fill="#ff6148"/>
        <path id="Trazado_166227" data-name="Trazado 166227" d="M1001.918,364.513v16.46l-14.652-8.465V355.92Z" transform="translate(-987.266 -354.47)" fill="#ff9584"/>
        <path id="Trazado_166228" data-name="Trazado 166228" d="M987.266,355.41,1001.918,364l2.464-1.5L989.7,353.96Z" transform="translate(-987.266 -353.96)" fill="#ffb3a7"/>
        <path id="Trazado_166229" data-name="Trazado 166229" d="M987.266,355.92l14.652,8.593,2.464-1.5-2.588.7Z" transform="translate(-987.266 -354.47)" fill="#fff" opacity="0.7"/>
      </g>
      <path id="Trazado_166230" data-name="Trazado 166230" d="M973.332,359.385a6.566,6.566,0,0,1-1.356-1.623c-.224-.376-.216-.782,0-.91a1.735,1.735,0,0,0,.692-.771c.237.065.532-.022.532-.348a1.291,1.291,0,0,0-.343-.878,4.313,4.313,0,0,0-2.18-3.828c-1.636-.944-2.122-.044-2.179,1.311-.2-.044-.343.149-.343.481a1.571,1.571,0,0,0,.532.962,7.749,7.749,0,0,0,.692,1.571c.218.379.226.8,0,.912a1.79,1.79,0,0,1-1.356.058c-.686-.208-1.2.206-1.2,1.052v1.467a.988.988,0,0,0,.448.774l6.8,3.928c.248.143.449.028.449-.256V361.82A3.492,3.492,0,0,0,973.332,359.385Z" transform="translate(-924.751 -320.307)" fill="#fff"/>
      <path id="Trazado_166231" data-name="Trazado 166231" d="M990.845,374.313l2.375,1.371v-4.258l-2.375-1.371Zm3.761,2.171,2.375,1.371v-7.807l-2.375-1.371Zm3.76-9.184v11.354l2.375,1.371V368.671Z" transform="translate(-931.005 -324.647)" fill="#fff"/>
      <path id="Trazado_166232" data-name="Trazado 166232" d="M948.039,343.8a5.514,5.514,0,0,0-.047-.673l1.121-.142a10.12,10.12,0,0,0-.508-1.7l-1.279-.387a8.957,8.957,0,0,0-.8-1.373l.306-1.29a10.282,10.282,0,0,0-1.225-1.291l-.688.89a5.386,5.386,0,0,0-.563-.379,4.363,4.363,0,0,0-.562-.271l-.689-1.685a3.427,3.427,0,0,0-1.224-.124l.306,1.644a1.754,1.754,0,0,0-.8.454l-1.279-1.09a3.347,3.347,0,0,0-.508,1.112l1.122,1.438a4.276,4.276,0,0,0-.047.618,5.514,5.514,0,0,0,.047.673l-1.122.142a10.181,10.181,0,0,0,.508,1.7l1.279.386a8.961,8.961,0,0,0,.8,1.373l-.306,1.29a10.164,10.164,0,0,0,1.224,1.291l.689-.89a5.5,5.5,0,0,0,.562.379,4.324,4.324,0,0,0,.563.271l.688,1.685a3.412,3.412,0,0,0,1.225.124l-.306-1.644a1.756,1.756,0,0,0,.8-.453l1.279,1.089a3.345,3.345,0,0,0,.508-1.112l-1.121-1.438A4.276,4.276,0,0,0,948.039,343.8Zm-3.677-.428a3.254,3.254,0,0,1-1.477-2.547c0-.936.661-1.313,1.477-.842a3.254,3.254,0,0,1,1.477,2.547C945.839,343.47,945.178,343.846,944.362,343.376Z" transform="translate(-917.662 -316.331)" fill="#fff"/>
      <g id="Grupo_109142" data-name="Grupo 109142" transform="translate(2.347 7.976)">
        <path id="Trazado_166233" data-name="Trazado 166233" d="M913.6,320.432l4.716,7.37,4.716-1.924,0,.007a1.808,1.808,0,0,0-.561-.545l-8.321-4.8a.71.71,0,0,0-.56-.1Z" transform="translate(-913.234 -320.411)" fill="#fff"/>
        <path id="Trazado_166234" data-name="Trazado 166234" d="M922.922,325.908l-4.731,2.7-1.339-2.31-3.377,1.377-.015-.022,3.139-1.79-3.139-5.415a.594.594,0,0,0-.354.625v5.635a2.038,2.038,0,0,0,.924,1.6l8.321,4.8c.511.3.925.059.925-.527v-5.636A1.945,1.945,0,0,0,922.922,325.908Zm-.015,7.211-3.377-5.277.252-.143,3.139,5.415Z" transform="translate(-913.106 -320.42)" fill="#fff"/>
      </g>
    </g>
    <g id="Grupo_109145" data-name="Grupo 109145" transform="translate(753.3 303.648)">
      <g id="Grupo_109144" data-name="Grupo 109144" transform="translate(0 0)">
        <path id="Trazado_166235" data-name="Trazado 166235" d="M829.944,387.57v21.113l3.334-1.9v-21.23Z" transform="translate(-773.262 -352.755)" fill="#2672ab"/>
        <path id="Trazado_166236" data-name="Trazado 166236" d="M810,376.714v21.113L753.3,365.1v-21.23Z" transform="translate(-753.3 -341.899)" fill="#ffe7e3"/>
        <path id="Trazado_166237" data-name="Trazado 166237" d="M753.3,343.176,810,376.019l3.317-2.014-56.729-32.8Z" transform="translate(-753.3 -341.204)" fill="#ffa495"/>
        <path id="Trazado_166238" data-name="Trazado 166238" d="M753.3,343.871,810,376.714l3.317-2.014-3.451,1.385Z" transform="translate(-753.3 -341.899)" fill="#fff" opacity="0.7"/>
      </g>
      <path id="Trazado_166239" data-name="Trazado 166239" d="M776.766,363.246,766.4,357.262c-.636-.367-1.151-.073-1.151.657v7.021a2.537,2.537,0,0,0,1.151,1.986l6.479,3.741,3.239,5.587v-3.717l.648.373c.636.368,1.151.074,1.151-.656v-7.021A2.538,2.538,0,0,0,776.766,363.246Zm-7.308,1.314c-.337.192-.884-.124-1.221-.706s-.337-1.209,0-1.4.884.124,1.221.706S769.8,364.368,769.459,364.56Zm2.807,1.621c-.337.192-.884-.124-1.221-.706s-.338-1.209,0-1.4.884.124,1.221.7S772.6,365.989,772.266,366.181Zm2.807,1.62c-.337.192-.884-.124-1.222-.7s-.337-1.21,0-1.4.885.123,1.222.706S775.411,367.609,775.073,367.8Zm-10.688-3.361v-5.7l-3.959-2.286c-.636-.367-1.151-.073-1.151.657v7.021a2.537,2.537,0,0,0,1.151,1.986l.648.374v3.717l3.239-1.847,6.478,3.74c.636.368,1.152.074,1.152-.656v-.331l-5.543-3.2A4.45,4.45,0,0,1,764.385,364.44Z" transform="translate(-754.856 -345.135)" fill="#083142"/>
      <path id="Trazado_166240" data-name="Trazado 166240" d="M787.674,370.468v1.753l27.087,15.64v-1.753Z" transform="translate(-762.253 -348.826)" fill="#083142"/>
      <path id="Trazado_166241" data-name="Trazado 166241" d="M806.195,391.022l-18.52-10.7v1.753l18.52,10.7Z" transform="translate(-762.253 -351.391)" fill="#083142"/>
      <path id="Trazado_166242" data-name="Trazado 166242" d="M787.674,377.146l27.087,15.639v-1.753l-27.087-15.639Z" transform="translate(-762.253 -350.108)" fill="#083142"/>
    </g>
    <g id="Grupo_109149" data-name="Grupo 109149" transform="translate(785.753 290.628)">
      <path id="Trazado_166243" data-name="Trazado 166243" d="M865.107,440.6,847.5,430.717a5,5,0,0,0,2.412-3.869c0-3.938-6.722-7.132-15.014-7.132s-15.015,3.193-15.015,7.132,6.722,7.132,15.015,7.132a30.2,30.2,0,0,0,4.926-.4l18.961,10.648a5.309,5.309,0,0,0,4.776-.2C865.126,443.234,866.986,441.711,865.107,440.6Z" transform="translate(-803.094 -348.632)" fill="#92b4d1" opacity="0.2"/>
      <g id="Grupo_109148" data-name="Grupo 109148" transform="translate(0 0)">
        <g id="Grupo_109146" data-name="Grupo 109146" transform="translate(38.297 58.315)">
          <path id="Trazado_166244" data-name="Trazado 166244" d="M878.283,444.582a4.03,4.03,0,1,1-5.459-1.636A4.03,4.03,0,0,1,878.283,444.582Z" transform="translate(-854.628 -412.871)" fill="#001a46"/>
          <path id="Trazado_166245" data-name="Trazado 166245" d="M860.636,411.063l-8.725,4.7,13.015,24.01h0c.006.012.011.024.018.035.756,1.4,3.321,1.488,5.731.19s3.75-3.488,2.994-4.891l-.021-.035h0Z" transform="translate(-849.733 -404.693)" fill="#084c94"/>
          <path id="Trazado_166246" data-name="Trazado 166246" d="M860.574,410.7c.756,1.4-.584,3.593-2.994,4.891s-4.975,1.214-5.731-.189.584-3.593,2.994-4.891S859.818,409.293,860.574,410.7Z" transform="translate(-849.662 -404.308)" fill="#2672ab"/>
          <path id="Trazado_166247" data-name="Trazado 166247" d="M854.155,402.45l-5.189,2.8,3.69,6.848h0l.01.021c.45.835,1.976.885,3.409.113s2.23-2.074,1.78-2.909l-.012-.02h0Z" transform="translate(-848.966 -402.45)" fill="#001a46"/>
        </g>
        <g id="Grupo_109147" data-name="Grupo 109147" transform="translate(5.761)">
          <path id="Trazado_166248" data-name="Trazado 166248" d="M828.047,326.866c-6.461-3.73-12.32-4.158-16.608-1.836-.12.065-6.273,3.5-6.467,3.8,4.363-3.291,10.822-3.241,18.03.921,13.14,7.586,23.792,25.958,23.792,41.037,0,7.693-2.774,13.04-7.236,15.426a5.431,5.431,0,0,0,1.161-.51c.127-.071,4.322-2.614,4.446-2.689,4.132-2.526,6.674-7.742,6.674-15.107C851.839,352.825,841.187,334.453,828.047,326.866Z" transform="translate(-804.972 -323.599)" fill="#72b5e8"/>
        </g>
        <path id="Trazado_166249" data-name="Trazado 166249" d="M820.973,330.76c-13.139-7.586-23.791-1.513-23.791,13.564s10.652,33.45,23.791,41.037,23.792,1.513,23.792-13.564S834.112,338.347,820.973,330.76Zm-.357,51c-11.15-6.438-20.189-22.029-20.189-34.824s9.039-17.948,20.189-11.51,20.189,22.028,20.189,34.823S831.766,388.2,820.616,381.761Z" transform="translate(-797.182 -324.613)" fill="#d1ebff"/>
        <path id="Trazado_166250" data-name="Trazado 166250" d="M825.938,381.375c-11.15-6.438-20.189-22.028-20.189-34.823,0-5.22,1.505-9.166,4.043-11.574-4.986,1.34-8.222,6.255-8.222,13.909,0,12.8,9.039,28.386,20.189,34.824,6.6,3.811,12.462,3.558,16.146.063C834.556,384.673,830.418,383.962,825.938,381.375Z" transform="translate(-798.325 -326.563)" fill="#72b5e8"/>
        <path id="Trazado_166251" data-name="Trazado 166251" d="M825.163,329.99c-6.3-3.636-12.021-4.127-16.277-2,3.967-1.109,9.8-.51,15.135,2.569,13.14,7.586,23.792,25.958,23.792,41.036,0,7.85-3.805,13.48-8.427,15.791,5.808-1.624,9.569-7.4,9.569-16.362C848.954,355.949,838.3,337.577,825.163,329.99Z" transform="translate(-800.23 -324.414)" fill="#fff" style="mix-blend-mode: screen;isolation: isolate"/>
      </g>
    </g>
  </g>
</svg>
